<svg version="1.1" viewBox="0.000000 0.000000 96.000000 96.000000" xmlns="http://www.w3.org/2000/svg" xmlns:xlink="http://www.w3.org/1999/xlink" id="Icons_Bell" overflow="hidden"><path d=" M 80.400002 70.400002 C 76.699997 62.200001 67.599998 59.299999 67.000000 35.000000 L 67.000000 35.099998 C 66.699997 28.100000 62.599998 22.200001 56.799999 19.200001 C 57.000000 18.500000 57.099998 17.799999 57.099998 17.100000 C 57.099998 12.100000 53.099998 8.100000 48.099998 8.100000 C 43.099998 8.100000 39.099998 12.100000 39.099998 17.100000 C 39.099998 17.799999 39.200001 18.600000 39.400002 19.200001 C 33.599998 22.200001 29.500000 28.200001 29.200001 35.099998 L 29.200001 35.000000 C 28.600000 59.299999 19.500000 62.200001 15.800000 70.400002 C 14.800000 71.699997 14.200000 73.000000 14.200000 74.500000 C 14.000000 82.000000 29.200001 88.000000 48.000000 88.000000 C 66.800003 88.000000 82.000000 82.000000 82.000000 74.500000 C 82.000000 73.099998 81.500000 71.699997 80.400002 70.400002 Z M 48.000000 12.000000 C 50.799999 12.000000 53.000000 14.200000 53.000000 17.000000 C 53.000000 17.200001 53.000000 17.400000 52.900002 17.700001 C 51.400002 17.200001 49.700001 17.000000 48.000000 17.000000 C 46.299999 17.000000 44.599998 17.200001 43.099998 17.700001 C 43.099998 17.500000 43.000000 17.299999 43.000000 17.000000 C 43.000000 14.200000 45.200001 12.000000 48.000000 12.000000 Z M 48.000000 82.000000 C 30.500000 82.000000 21.000000 76.699997 20.000000 74.500000 C 20.799999 72.599998 28.500000 68.099998 42.599998 67.199997 C 42.200001 68.000000 41.900002 69.000000 41.900002 70.000000 C 41.900002 73.300003 44.599998 76.000000 48.000000 76.000000 C 51.400002 76.000000 54.099998 73.300003 54.099998 70.000000 C 54.099998 69.000000 53.799999 68.000000 53.400002 67.199997 C 67.500000 68.099998 75.199997 72.599998 76.000000 74.500000 C 75.000000 76.699997 65.500000 82.000000 48.000000 82.000000 Z" stroke="none" stroke-width="1.000000" stroke-dasharray="" stroke-dashoffset="1.000000" fill="#F2F2F2" fill-opacity="1.000000"/></svg>