<svg xmlns="http://www.w3.org/2000/svg" viewBox="0 0 23 19.7"><defs><style>.cls-1{fill:#424143;}</style></defs><title>Asset 2</title><g id="Layer_2" data-name="Layer 2"><g id="Layer_1-2" data-name="Layer 1"><path class="cls-1" d="M22.6,16.4H.4a.4.4,0,0,0-.4.4.5.5,0,0,0,.4.5H2.7a1.9,1.9,0,0,0-.2.8,1.6,1.6,0,0,0,1.6,1.6,1.7,1.7,0,0,0,1.7-1.6,1.1,1.1,0,0,0-.3-.8H16.7a1.1,1.1,0,0,0-.3.8,1.7,1.7,0,0,0,1.7,1.6,1.6,1.6,0,0,0,1.6-1.6,1.9,1.9,0,0,0-.2-.8h3.1a.5.5,0,0,0,.4-.5A.4.4,0,0,0,22.6,16.4Z"/><path class="cls-1" d="M22.6,2.5h-.4V.8h.4A.4.4,0,0,0,23,.4a.4.4,0,0,0-.4-.4H17.5L.2,8.3a.4.4,0,0,0-.2.5A.4.4,0,0,0,.4,9H.6L3.3,7.7V9.2l-1.4.7c-.2.1-.3.2-.3.4v5.3H5.8L18.6,9.9h.6l.7.6-.9.7a.4.4,0,0,0-.1.3c0,.2.1.3.2.3l.7.5-.7.5-.2.3a.5.5,0,0,0,.2.4l.7.5-.7.4a.5.5,0,0,0-.2.4.4.4,0,0,0,.1.3l.7.5h1.6l.7-.5.2-.3a.5.5,0,0,0-.2-.4l-.7-.4.7-.5a.5.5,0,0,0,.2-.4l-.2-.3-.7-.5.7-.5c.1,0,.2-.1.2-.3l-.2-.3-.8-.7.7-.6h.7a.5.5,0,0,0,.4-.5V2.9A.4.4,0,0,0,22.6,2.5ZM4.1,7.3l1.7-.8V8.1l-1.7.7Zm4.1-.4-1.6.8V6.1l1.6-.7Zm2.5-1.2L9,6.5V5l1.7-.8Zm2.4-1.1-1.6.7V3.8L13.1,3Zm2.5-1.2L14,4.2V2.6l1.6-.8Zm3.3-.9H17.5L16.4,3V1.5L17.8.8h1.1Zm1.6,12.7-.5-.4.5-.3.6.3ZM20,13.1l.5-.3.5.3-.5.4Zm.5-1.3-.5-.3.5-.5.6.5Zm-.1-1.9h0Zm1-7.4H19.7V.8h1.7Z"/></g></g></svg>