<svg version="1.1" width="26.000000" height="26.000000" viewBox="0.000000 0.000000 26.000000 26.000000" xmlns="http://www.w3.org/2000/svg" xmlns:xlink="http://www.w3.org/1999/xlink" overflow="hidden"><g id="surface1"><path d=" M 13.000000 2.500000 C 12.171900 2.500000 11.500000 3.171880 11.500000 4.000000 C 11.500000 4.828130 12.171900 5.500000 13.000000 5.500000 C 13.828100 5.500000 14.500000 4.828130 14.500000 4.000000 C 14.500000 3.171880 13.828100 2.500000 13.000000 2.500000 Z M 19.406300 4.812500 C 18.414101 4.812500 17.593800 5.601560 17.593800 6.593750 C 17.593800 7.585940 18.414101 8.406250 19.406300 8.406250 C 20.398399 8.406250 21.187500 7.585940 21.187500 6.593750 C 21.187500 5.601560 20.398399 4.812500 19.406300 4.812500 Z M 6.593750 5.406250 C 5.929690 5.406250 5.406250 5.929690 5.406250 6.593750 C 5.406250 7.257810 5.929690 7.812500 6.593750 7.812500 C 7.257810 7.812500 7.812500 7.257810 7.812500 6.593750 C 7.812500 5.929690 7.257810 5.406250 6.593750 5.406250 Z M 22.000000 11.187500 C 21.007799 11.187500 20.187500 12.007800 20.187500 13.000000 C 20.187500 13.992200 21.007799 14.812500 22.000000 14.812500 C 22.992201 14.812500 23.812500 13.992200 23.812500 13.000000 C 23.812500 12.007800 22.992201 11.187500 22.000000 11.187500 Z M 3.906250 11.687500 C 3.355470 11.687500 2.906250 12.136700 2.906250 12.687500 C 2.906250 13.238300 3.355470 13.687500 3.906250 13.687500 C 4.457030 13.687500 4.906250 13.238300 4.906250 12.687500 C 4.906250 12.136700 4.457030 11.687500 3.906250 11.687500 Z M 6.593750 16.906300 C 5.214840 16.906300 4.093750 18.027300 4.093750 19.406300 C 4.093750 20.785200 5.214840 21.906300 6.593750 21.906300 C 7.972660 21.906300 9.093750 20.785200 9.093750 19.406300 C 9.093750 18.027300 7.972660 16.906300 6.593750 16.906300 Z M 19.406300 17.593800 C 18.414101 17.593800 17.593800 18.414101 17.593800 19.406300 C 17.593800 20.398399 18.414101 21.187500 19.406300 21.187500 C 20.398399 21.187500 21.187500 20.398399 21.187500 19.406300 C 21.187500 18.414101 20.398399 17.593800 19.406300 17.593800 Z M 13.000000 20.000000 C 11.894500 20.000000 11.000000 20.894501 11.000000 22.000000 C 11.000000 23.105499 11.894500 24.000000 13.000000 24.000000 C 14.105500 24.000000 15.000000 23.105499 15.000000 22.000000 C 15.000000 20.894501 14.105500 20.000000 13.000000 20.000000 Z"/></g></svg>