<?xml version="1.0" encoding="utf-8"?>
<!-- Generator: Adobe Illustrator 23.0.2, SVG Export Plug-In . SVG Version: 6.00 Build 0)  -->
<svg version="1.1" id="Layer_1" xmlns="http://www.w3.org/2000/svg" xmlns:xlink="http://www.w3.org/1999/xlink" x="0px" y="0px"
	 viewBox="0 0 26 26" style="enable-background:new 0 0 26 26;" xml:space="preserve">
<style type="text/css">
	.st0{fill:#D7EEF9;}
</style>
<g id="surface1">
	<path class="st0" d="M7,0C6.4,0,6,0.4,6,1v3c0,0.6,0.4,1,1,1s1-0.4,1-1V1C8,0.4,7.6,0,7,0z M19,0c-0.6,0-1,0.4-1,1v3
		c0,0.6,0.4,1,1,1s1-0.4,1-1V1C20,0.4,19.6,0,19,0z M3,2C1.3,2,0,3.3,0,5v18c0,1.7,1.3,3,3,3h20c1.7,0,3-1.3,3-3V5c0-1.7-1.3-3-3-3
		h-2v2c0,1.1-0.9,2-2,2s-2-0.9-2-2V2H9v2c0,1.1-0.9,2-2,2S5,5.1,5,4V2H3z M2,9h22v14c0,0.6-0.4,1-1,1H3c-0.6,0-1-0.4-1-1V9z"/>
</g>
</svg>
