<svg version="1.1" width="26.000000" height="26.000000" viewBox="0.000000 0.000000 26.000000 26.000000" xmlns="http://www.w3.org/2000/svg" xmlns:xlink="http://www.w3.org/1999/xlink" overflow="hidden"><g id="surface1"><path d=" M 7.000000 0.000000 C 6.398440 0.000000 6.000000 0.398438 6.000000 1.000000 L 6.000000 4.000000 C 6.000000 4.601560 6.398440 5.000000 7.000000 5.000000 C 7.601560 5.000000 8.000000 4.601560 8.000000 4.000000 L 8.000000 1.000000 C 8.000000 0.398438 7.601560 0.000000 7.000000 0.000000 Z M 19.000000 0.000000 C 18.398399 0.000000 18.000000 0.398438 18.000000 1.000000 L 18.000000 4.000000 C 18.000000 4.601560 18.398399 5.000000 19.000000 5.000000 C 19.601601 5.000000 20.000000 4.601560 20.000000 4.000000 L 20.000000 1.000000 C 20.000000 0.398438 19.601601 0.000000 19.000000 0.000000 Z M 3.000000 2.000000 C 1.300780 2.000000 0.000000 3.300780 0.000000 5.000000 L 0.000000 23.000000 C 0.000000 24.699200 1.300780 26.000000 3.000000 26.000000 L 23.000000 26.000000 C 24.699200 26.000000 26.000000 24.699200 26.000000 23.000000 L 26.000000 5.000000 C 26.000000 3.300780 24.699200 2.000000 23.000000 2.000000 L 21.000000 2.000000 L 21.000000 4.000000 C 21.000000 5.101560 20.101601 6.000000 19.000000 6.000000 C 17.898399 6.000000 17.000000 5.101560 17.000000 4.000000 L 17.000000 2.000000 L 9.000000 2.000000 L 9.000000 4.000000 C 9.000000 5.101560 8.101560 6.000000 7.000000 6.000000 C 5.898440 6.000000 5.000000 5.101560 5.000000 4.000000 L 5.000000 2.000000 Z M 2.000000 9.000000 L 24.000000 9.000000 L 24.000000 23.000000 C 24.000000 23.601601 23.601601 24.000000 23.000000 24.000000 L 3.000000 24.000000 C 2.398440 24.000000 2.000000 23.601601 2.000000 23.000000 Z M 9.187500 12.406300 L 7.000000 13.406300 L 7.312500 14.906300 L 8.906250 14.093800 L 8.906250 20.906300 L 10.812500 20.906300 L 10.812500 12.406300 Z M 14.406300 12.406300 L 13.906300 16.812500 C 14.207000 16.710899 14.500000 16.687500 15.000000 16.687500 C 16.699200 16.687500 17.406300 17.195299 17.406300 18.093800 C 17.406300 18.992201 16.488300 19.406300 15.687500 19.406300 C 14.886700 19.406300 14.210900 19.199200 13.812500 19.000000 L 13.406300 20.500000 C 13.906300 20.800800 14.812500 21.000000 15.812500 21.000000 C 18.011700 21.000000 19.406300 19.601601 19.406300 18.000000 C 19.406300 17.000000 19.007799 16.304701 18.406300 15.906300 C 17.804701 15.507800 16.988300 15.312500 16.187500 15.312500 L 15.687500 15.312500 L 15.906300 14.000000 L 19.093800 14.000000 L 19.093800 12.406300 Z" stroke="none" stroke-width="1.000000" stroke-linecap="butt" fill="#D7EEF9" fill-opacity="1.000000"/></g></svg>