<?xml version="1.0"?>
<svg xmlns="http://www.w3.org/2000/svg" viewBox="0 0 24 24" width="24px" height="24px">
    <path style="line-height:normal;text-indent:0;text-align:start;text-decoration-line:none;text-decoration-style:solid;text-decoration-color:#000;text-transform:none;block-progression:tb;isolation:auto;mix-blend-mode:normal" d="M 11 2 L 11 6 L 13 6 L 13 4.2011719 C 16.932523 4.7114915 20 7.9244647 20 12 C 20 16.430666 16.430666 20 12 20 C 7.5693339 20 4 16.430666 4 12 C 4 11.085 4.152125 10.186031 4.453125 9.3320312 C 4.517125 9.1530312 4.5987813 8.9816406 4.6757812 8.8066406 L 3.1953125 7.2890625 C 2.9553125 7.7350625 2.7373594 8.1919687 2.5683594 8.6679688 C 2.1913594 9.7369688 2 10.858 2 12 C 2 17.511334 6.4886661 22 12 22 C 17.511334 22 22 17.511334 22 12 C 22 6.4886661 17.511334 2 12 2 L 11 2 z M 5.7226562 4.1523438 L 4.2910156 5.5488281 L 4.9902344 6.265625 L 10.597656 12.011719 L 11.294922 12.726562 L 11.304688 12.716797 A 1 1 0 0 0 12 13 A 1 1 0 0 0 13 12 A 1 1 0 0 0 12.601562 11.201172 L 12.029297 10.615234 L 6.421875 4.8691406 L 5.7226562 4.1523438 z" font-weight="400" font-family="sans-serif" white-space="normal" overflow="visible"/>
</svg>
