<?xml version="1.0" encoding="UTF-8"?>
<svg width="90px" height="18px" viewBox="0 0 90 18" version="1.1" xmlns="http://www.w3.org/2000/svg" xmlns:xlink="http://www.w3.org/1999/xlink">
    <!-- Generator: sketchtool 52.4 (67378) - http://www.bohemiancoding.com/sketch -->
    <title>5AC80C7F-C676-428C-9200-30F7E4B3E034</title>
    <desc>Created with sketchtool.</desc>
    <g id="workbench" stroke="none" stroke-width="1" fill="none" fill-rule="evenodd">
        <g id="WYN-HaulPLAN-Workbench" transform="translate(-50.000000, -12.000000)" fill="#05A792">
            <g id="Top-menu-bar">
                <g id="logo" transform="translate(12.000000, 11.000000)">
                    <g id="HaulPLAN" transform="translate(38.000000, 1.000000)">
                        <path d="M74.4134694,2.10367347 C74.4328571,2.08428571 74.4522449,2.06306122 74.4716327,2.03979592 C74.4871429,2.02040816 74.5026531,1.99918367 74.5179592,1.97591837 C74.5334694,1.95265306 74.5471429,1.92959184 74.5585714,1.90632653 C74.5702041,1.87938776 74.5818367,1.85408163 74.5934694,1.83081633 C74.6012245,1.80387755 74.6089796,1.77673469 74.6167347,1.74959184 C74.6244898,1.72265306 74.6302041,1.6955102 74.6340816,1.66836735 C74.6340816,1.63734694 74.6340816,1.60836735 74.6340816,1.58122449 C74.6340816,1.5544898 74.6340816,1.52714286 74.6340816,1.5 C74.6302041,1.47306122 74.6244898,1.44591837 74.6167347,1.41877551 C74.6128571,1.39183673 74.605102,1.36653061 74.5934694,1.34326531 C74.5857143,1.31653061 74.5761224,1.29102041 74.5644898,1.26795918 C74.5528571,1.24469388 74.5412245,1.22142857 74.5295918,1.19816327 C74.5140816,1.17897959 74.4987755,1.15755102 74.4832653,1.1344898 C74.4677551,1.11510204 74.4504082,1.09591837 74.4310204,1.07632653 C74.4155102,1.05693878 74.3981633,1.03959184 74.3787755,1.02408163 C74.3593878,1.00469388 74.34,0.989387755 74.3206122,0.977755102 C74.297551,0.96244898 74.2761224,0.946734694 74.2569388,0.93122449 C74.2336735,0.919591837 74.2104082,0.908163265 74.1871429,0.896530612 C74.1640816,0.884897959 74.1408163,0.875306122 74.117551,0.867346939 C74.0904082,0.855918367 74.0653061,0.848163265 74.0420408,0.844285714 C74.015102,0.836530612 73.9879592,0.830612245 73.9608163,0.826734694 C73.9338776,0.818979592 73.9067347,0.815102041 73.8795918,0.815102041 C73.852449,0.811428571 73.8255102,0.809387755 73.7983673,0.809387755 C73.7712245,0.809387755 73.7442857,0.811428571 73.7171429,0.815102041 C73.69,0.815102041 73.664898,0.817346939 73.6416327,0.821020408 C73.6144898,0.828979592 73.5893878,0.834693878 73.5661224,0.838367347 C73.5391837,0.846326531 73.5140816,0.853877551 73.4908163,0.861632653 C73.467551,0.873265306 73.4442857,0.882857143 73.4210204,0.890612245 C73.3979592,0.902244898 73.3765306,0.913877551 73.3573469,0.925510204 C73.3340816,0.937142857 73.3128571,0.950816327 73.2934694,0.966122449 C73.2740816,0.981632653 73.2546939,0.997346939 73.2353061,1.01244898 C73.2122449,1.02795918 73.1908163,1.0455102 73.1716327,1.06469388 C73.1561224,1.08428571 73.1385714,1.10530612 73.1193878,1.12857143 C73.1038776,1.14816327 73.0883673,1.16918367 73.0728571,1.19244898 C73.0612245,1.21571429 73.0477551,1.23877551 73.0322449,1.26204082 C73.0206122,1.28918367 73.0110204,1.31428571 73.0032653,1.33755102 C72.9955102,1.36469388 72.9877551,1.39183673 72.98,1.41877551 C72.9722449,1.44204082 72.9683673,1.46918367 72.9683673,1.5 C72.9644898,1.52714286 72.9626531,1.5544898 72.9626531,1.58122449 C72.9626531,1.60836735 72.9644898,1.63571429 72.9683673,1.66244898 C72.9683673,1.68959184 72.9722449,1.71693878 72.98,1.74387755 C72.9877551,1.77081633 72.9955102,1.79612245 73.0032653,1.81918367 C73.0110204,1.84632653 73.0206122,1.87142857 73.0322449,1.89469388 C73.0438776,1.91795918 73.0573469,1.94122449 73.0728571,1.96428571 C73.0844898,1.98755102 73.1,2.00877551 73.1193878,2.02816327 C73.134898,2.05142857 73.1522449,2.07265306 73.1716327,2.09204082 C73.1908163,2.11163265 73.2102041,2.12897959 73.2295918,2.14428571 C73.2489796,2.15979592 73.2683673,2.1755102 73.287551,2.19061224 C73.3069388,2.20612245 73.3281633,2.21979592 73.3514286,2.23142857 C73.3708163,2.24285714 73.3920408,2.2544898 73.4153061,2.26612245 C73.4385714,2.2777551 73.4618367,2.28734694 73.484898,2.29510204 C73.5120408,2.30673469 73.5371429,2.31469388 73.5604082,2.31836735 C73.587551,2.32632653 73.6126531,2.33204082 73.6359184,2.33571429 C73.6628571,2.34367347 73.69,2.34734694 73.7171429,2.34734694 C73.7442857,2.35122449 73.7712245,2.35326531 73.7983673,2.35326531 C73.8255102,2.35326531 73.852449,2.35122449 73.8795918,2.34734694 C73.9028571,2.34734694 73.9279592,2.3455102 73.955102,2.34163265 C73.9783673,2.33387755 74.0034694,2.32816327 74.0306122,2.32408163 C74.0536735,2.31653061 74.0769388,2.30897959 74.1002041,2.30102041 C74.1234694,2.29326531 74.1465306,2.28346939 74.1697959,2.27183673 C74.1891837,2.26428571 74.2104082,2.2544898 74.2336735,2.24285714 C74.2530612,2.22755102 74.2742857,2.21387755 74.297551,2.2022449 C74.3167347,2.19061224 74.3342857,2.17714286 74.3497959,2.16163265 C74.3728571,2.1422449 74.3942857,2.12326531 74.4134694,2.10367347 Z M75.0114286,0.699183673 C75.0267347,0.718571429 75.0422449,0.737755102 75.0577551,0.757142857 C75.0732653,0.776734694 75.0887755,0.795918367 75.1042857,0.815102041 C75.1195918,0.838367347 75.1332653,0.859795918 75.144898,0.878979592 C75.1565306,0.898571429 75.1679592,0.919591837 75.1795918,0.942857143 C75.1912245,0.966122449 75.2028571,0.989387755 75.2144898,1.01244898 C75.2261224,1.03204082 75.2377551,1.05306122 75.2493878,1.07632653 C75.2571429,1.09959184 75.2646939,1.12285714 75.272449,1.14591837 C75.2802041,1.16918367 75.2879592,1.1944898 75.2957143,1.22142857 C75.3034694,1.24469388 75.3091837,1.26795918 75.3130612,1.29102041 C75.3208163,1.31816327 75.3267347,1.34326531 75.3306122,1.36653061 C75.3344898,1.38979592 75.3383673,1.41510204 75.3422449,1.44204082 C75.3461224,1.46918367 75.3479592,1.49428571 75.3479592,1.51755102 C75.3479592,1.5444898 75.3479592,1.57183673 75.3479592,1.59877551 C75.3479592,1.62571429 75.3479592,1.65306122 75.3479592,1.68 C75.3440816,1.70326531 75.3422449,1.72857143 75.3422449,1.7555102 C75.3383673,1.78244898 75.3344898,1.80979592 75.3306122,1.83673469 C75.3228571,1.85979592 75.3169388,1.88530612 75.3130612,1.91204082 C75.3055102,1.93918367 75.2977551,1.96428571 75.29,1.98755102 C75.2822449,2.01469388 75.2744898,2.03979592 75.2667347,2.06306122 C75.2589796,2.08632653 75.2493878,2.10938776 75.2377551,2.13265306 C75.2261224,2.15591837 75.2144898,2.17897959 75.2028571,2.2022449 C75.1912245,2.2255102 75.1795918,2.24877551 75.1679592,2.27183673 C75.1565306,2.29510204 75.1428571,2.31836735 75.1273469,2.34163265 C75.1120408,2.36122449 75.0983673,2.3822449 75.0867347,2.4055102 C75.0714286,2.42489796 75.0538776,2.44408163 75.0344898,2.46346939 C75.0191837,2.48673469 75.0036735,2.50795918 74.9881633,2.52734694 C74.9687755,2.54693878 74.9493878,2.56428571 74.9302041,2.57959184 C74.9108163,2.59918367 74.8914286,2.61816327 74.8720408,2.63755102 C74.8526531,2.65306122 74.8334694,2.67040816 74.8140816,2.68979592 C74.7946939,2.70142857 74.7753061,2.71510204 74.7559184,2.73040816 C74.7367347,2.74591837 74.7173469,2.75938776 74.6979592,2.77102041 C74.6785714,2.78653061 74.6591837,2.8 74.64,2.81163265 C74.6167347,2.82326531 74.5955102,2.83489796 74.5761224,2.84653061 C74.5528571,2.85816327 74.5295918,2.86979592 74.5063265,2.88142857 C74.4871429,2.89285714 74.4657143,2.90265306 74.4426531,2.91040816 C74.4193878,2.92204082 74.3961224,2.93163265 74.3728571,2.93938776 C74.3497959,2.94734694 74.3265306,2.95489796 74.3032653,2.96265306 C74.28,2.97061224 74.2569388,2.97816327 74.2336735,2.98591837 C74.2065306,2.99367347 74.1814286,2.99959184 74.1581633,3.00326531 C74.1310204,3.01122449 74.1059184,3.01693878 74.0826531,3.02061224 C74.0557143,3.0244898 74.0306122,3.02857143 74.0073469,3.0322449 C73.9802041,3.03612245 73.955102,3.04020408 73.9318367,3.04387755 C73.9046939,3.04387755 73.8777551,3.04591837 73.8506122,3.04959184 C73.8234694,3.04959184 73.7965306,3.04959184 73.7693878,3.04959184 C73.7422449,3.04959184 73.715102,3.04959184 73.6881633,3.04959184 C73.6610204,3.04591837 73.6338776,3.04387755 73.6069388,3.04387755 C73.5797959,3.04020408 73.5526531,3.03612245 73.5255102,3.0322449 C73.502449,3.02857143 73.4771429,3.0244898 73.4502041,3.02061224 C73.4230612,3.01285714 73.3959184,3.00714286 73.3689796,3.00326531 C73.3457143,2.9955102 73.3206122,2.98795918 73.2934694,2.98 C73.2702041,2.97632653 73.2469388,2.96836735 73.2238776,2.95673469 C73.1967347,2.94897959 73.1716327,2.94142857 73.1483673,2.93346939 C73.125102,2.92204082 73.1018367,2.91244898 73.0787755,2.9044898 C73.0555102,2.89285714 73.0322449,2.88142857 73.0089796,2.86979592 C72.9859184,2.85816327 72.9644898,2.84653061 72.9453061,2.83489796 C72.9220408,2.82326531 72.8987755,2.80979592 72.8755102,2.79428571 C72.8561224,2.78265306 72.8369388,2.76918367 72.817551,2.75367347 C72.7942857,2.73836735 72.7730612,2.72265306 72.7536735,2.70714286 C72.7342857,2.69183673 72.714898,2.67632653 72.6957143,2.66081633 C72.6763265,2.6455102 72.6589796,2.62816327 72.6434694,2.60857143 C72.6240816,2.59326531 72.6046939,2.57591837 72.5853061,2.55632653 C72.5697959,2.53693878 72.5544898,2.5177551 72.5389796,2.49836735 C72.5195918,2.48306122 72.5022449,2.46346939 72.4867347,2.44020408 C72.4712245,2.42102041 72.4577551,2.40183673 72.4461224,2.3822449 C72.4306122,2.36285714 72.415102,2.34163265 72.3995918,2.31836735 C72.3879592,2.29897959 72.3765306,2.2777551 72.364898,2.2544898 C72.3532653,2.23142857 72.3416327,2.20816327 72.33,2.18489796 C72.3183673,2.1655102 72.3087755,2.14428571 72.3010204,2.12102041 C72.2893878,2.0977551 72.2797959,2.07265306 72.2720408,2.0455102 C72.2642857,2.02244898 72.2565306,1.99918367 72.2487755,1.97591837 C72.2410204,1.95265306 72.2332653,1.92755102 72.2255102,1.90040816 C72.2216327,1.87734694 72.2177551,1.85408163 72.2138776,1.83081633 C72.21,1.80387755 72.2061224,1.77673469 72.2022449,1.74959184 C72.1983673,1.72632653 72.1965306,1.70122449 72.1965306,1.67408163 C72.1926531,1.64734694 72.1908163,1.62183673 72.1908163,1.59877551 C72.1908163,1.57183673 72.1926531,1.5444898 72.1965306,1.51755102 C72.1965306,1.49061224 72.1983673,1.46326531 72.2022449,1.43612245 C72.2061224,1.41306122 72.21,1.3877551 72.2138776,1.36081633 C72.2177551,1.33755102 72.2236735,1.31244898 72.2314286,1.28530612 C72.2353061,1.26204082 72.2410204,1.23693878 72.2487755,1.20979592 C72.2565306,1.18673469 72.2642857,1.16346939 72.2720408,1.14020408 C72.2797959,1.11693878 72.2893878,1.09387755 72.3010204,1.07061224 C72.3087755,1.04734694 72.3183673,1.02408163 72.33,1.00102041 C72.3416327,0.977755102 72.3532653,0.954489796 72.364898,0.93122449 C72.3804082,0.908163265 72.3938776,0.886938776 72.4055102,0.867346939 C72.4210204,0.844285714 72.4344898,0.823061224 72.4461224,0.803673469 C72.4616327,0.784285714 72.4771429,0.763061224 72.492449,0.739795918 C72.5079592,0.720408163 72.5253061,0.70122449 72.5446939,0.681632653 C72.5602041,0.66244898 72.577551,0.644897959 72.5969388,0.629387755 C72.612449,0.610204082 72.6297959,0.591020408 72.6491837,0.571428571 C72.6685714,0.556122449 72.6879592,0.540408163 72.7073469,0.525102041 C72.7265306,0.505714286 72.7459184,0.490204082 72.7653061,0.478571429 C72.7846939,0.463265306 72.8040816,0.44755102 72.8232653,0.432244898 C72.8426531,0.420612245 72.8638776,0.406938776 72.8871429,0.391428571 C72.9065306,0.38 72.9277551,0.368367347 72.9510204,0.356734694 C72.9742857,0.341428571 72.9955102,0.329795918 73.014898,0.321836735 C73.0381633,0.310204082 73.0612245,0.298571429 73.0844898,0.287142857 C73.1077551,0.275510204 73.1310204,0.265918367 73.1540816,0.257959184 C73.1773469,0.250204082 73.202449,0.240612245 73.2295918,0.228979592 C73.2528571,0.22122449 73.2761224,0.213673469 73.2991837,0.205714286 C73.3263265,0.202040816 73.3514286,0.196326531 73.3746939,0.188367347 C73.4018367,0.184693878 73.4269388,0.178979592 73.4502041,0.171020408 C73.4771429,0.167346939 73.5042857,0.163265306 73.5314286,0.159387755 C73.5585714,0.155714286 73.5836735,0.151632653 73.6069388,0.147755102 C73.6338776,0.147755102 73.6610204,0.145918367 73.6881633,0.142040816 C73.715102,0.142040816 73.7422449,0.142040816 73.7693878,0.142040816 C73.8002041,0.142040816 73.8293878,0.142040816 73.8563265,0.142040816 C73.8834694,0.145918367 73.9106122,0.147755102 73.9377551,0.147755102 C73.9646939,0.151632653 73.9918367,0.155714286 74.0189796,0.159387755 C74.0459184,0.163265306 74.0730612,0.167346939 74.1002041,0.171020408 C74.1234694,0.178979592 74.1485714,0.184693878 74.1757143,0.188367347 C74.2026531,0.196326531 74.2277551,0.203877551 74.2510204,0.211632653 C74.2781633,0.219591837 74.3032653,0.227142857 74.3265306,0.234897959 C74.3536735,0.242653061 74.3787755,0.252244898 74.4020408,0.263877551 C74.425102,0.271836735 74.4483673,0.28122449 74.4716327,0.292857143 C74.494898,0.304489796 74.5179592,0.316122449 74.5412245,0.327755102 C74.5644898,0.339387755 74.5877551,0.350816327 74.6108163,0.36244898 C74.6302041,0.377959184 74.6514286,0.391428571 74.6746939,0.403061224 C74.6940816,0.418571429 74.7153061,0.432244898 74.7385714,0.443673469 C74.7579592,0.459183673 74.7773469,0.474897959 74.7965306,0.490204082 C74.8159184,0.505714286 74.8353061,0.521428571 74.8546939,0.536530612 C74.8740816,0.556122449 74.8932653,0.573469388 74.9126531,0.58877551 C74.9281633,0.608367347 74.9455102,0.625714286 74.964898,0.641020408 C74.9804082,0.660612245 74.9959184,0.679795918 75.0114286,0.699183673 Z M75.9134694,0.124489796 C76.6718367,0.124489796 77.4302041,0.124489796 78.1885714,0.124489796 C78.2157143,0.124489796 78.2446939,0.126734694 78.2755102,0.130408163 C78.3026531,0.134285714 78.3297959,0.138367347 78.3569388,0.142040816 C78.3877551,0.149795918 78.4167347,0.157346939 78.4438776,0.165102041 C78.4710204,0.173061224 78.4961224,0.182653061 78.5193878,0.194285714 C78.5465306,0.205714286 78.5716327,0.219591837 78.594898,0.234897959 C78.6179592,0.246530612 78.6412245,0.260204082 78.6644898,0.275510204 C78.6877551,0.291020408 78.7089796,0.306530612 78.7283673,0.321836735 C78.7514286,0.341428571 78.7728571,0.360612245 78.7920408,0.38 C78.8114286,0.399387755 78.8289796,0.418571429 78.8442857,0.437959184 C78.8636735,0.46122449 78.8810204,0.484285714 78.8965306,0.50755102 C78.9120408,0.527142857 78.9257143,0.550408163 78.9371429,0.577142857 C78.9526531,0.600408163 78.9663265,0.625714286 78.9777551,0.652653061 C78.9893878,0.675918367 78.9991837,0.70122449 79.0069388,0.728163265 C79.0146939,0.755306122 79.022449,0.78244898 79.03,0.809387755 C79.0338776,0.840612245 79.0377551,0.869591837 79.0416327,0.896530612 C79.0416327,0.92755102 79.0436735,0.956530612 79.047551,0.983469388 C79.0436735,1.01469388 79.0416327,1.04367347 79.0416327,1.07061224 C79.0377551,1.10163265 79.0338776,1.13081633 79.03,1.15755102 C79.022449,1.18469388 79.0146939,1.21204082 79.0069388,1.23877551 C78.9991837,1.26591837 78.9893878,1.29326531 78.9777551,1.32020408 C78.9663265,1.34714286 78.9526531,1.37244898 78.9371429,1.3955102 C78.9257143,1.42265306 78.9120408,1.44591837 78.8965306,1.46530612 C78.8810204,1.48836735 78.8636735,1.51163265 78.8442857,1.53489796 C78.8289796,1.5544898 78.8114286,1.57346939 78.7920408,1.59285714 C78.7728571,1.61244898 78.7514286,1.63163265 78.7283673,1.65102041 C78.7089796,1.66632653 78.6877551,1.68204082 78.6644898,1.69734694 C78.6412245,1.71285714 78.6179592,1.72857143 78.594898,1.74387755 C78.5716327,1.7555102 78.5465306,1.76693878 78.5193878,1.77857143 C78.4961224,1.79020408 78.4710204,1.8 78.4438776,1.80755102 C78.4167347,1.81918367 78.3877551,1.82714286 78.3569388,1.83081633 C78.3297959,1.83469388 78.3026531,1.83877551 78.2755102,1.84244898 C78.2446939,1.84632653 78.2157143,1.84836735 78.1885714,1.84836735 C77.8132653,1.84836735 77.4379592,1.84836735 77.0626531,1.84836735 C77.1089796,1.75183673 77.182449,1.60836735 77.2830612,1.41877551 C77.3102041,1.3877551 77.3373469,1.35489796 77.3644898,1.32020408 C77.4030612,1.31244898 77.4418367,1.30653061 77.4804082,1.30265306 C77.5965306,1.30265306 77.7726531,1.30265306 78.0085714,1.30265306 C78.0357143,1.29897959 78.0628571,1.29489796 78.0897959,1.29102041 C78.1169388,1.28346939 78.1420408,1.27183673 78.1653061,1.25632653 C78.1885714,1.24469388 78.2097959,1.22938776 78.2291837,1.20979592 C78.252449,1.18673469 78.2697959,1.16346939 78.2814286,1.14020408 C78.2969388,1.11693878 78.3085714,1.09183673 78.3161224,1.06469388 C78.32,1.03795918 78.3220408,1.01061224 78.3220408,0.983469388 C78.3220408,0.956530612 78.32,0.929387755 78.3161224,0.902244898 C78.3085714,0.875306122 78.2969388,0.85 78.2814286,0.826734694 C78.2659184,0.803673469 78.2485714,0.78244898 78.2291837,0.763061224 C78.2097959,0.739795918 78.1885714,0.722244898 78.1653061,0.710816327 C78.1420408,0.695510204 78.1169388,0.683877551 78.0897959,0.675918367 C78.0628571,0.675918367 78.0357143,0.673877551 78.0085714,0.670204082 C77.7377551,0.670204082 77.3314286,0.670204082 76.7897959,0.670204082 C76.755102,0.685510204 76.7202041,0.699183673 76.6853061,0.710816327 C76.6697959,0.749387755 76.6563265,0.786122449 76.6446939,0.821020408 C76.6446939,1.56387755 76.6446939,2.30673469 76.6446939,3.04959184 C76.4010204,3.04959184 76.1571429,3.04959184 75.9134694,3.04959184 C75.9134694,2.5622449 75.9134694,1.58714286 75.9134694,0.124489796 Z M80.7291837,3.04959184 C80.6169388,3.05346939 80.5028571,3.05346939 80.3867347,3.04959184 L80.3867347,3.04387755 C80.3906122,3.03612245 80.3906122,3.02857143 80.3867347,3.02061224 C80.3867347,3.00897959 80.3867347,2.99734694 80.3867347,2.98591837 C80.3867347,2.97061224 80.3867347,2.95673469 80.3867347,2.94510204 C80.3867347,2.92591837 80.3867347,2.90673469 80.3867347,2.88714286 C80.3867347,2.86387755 80.3867347,2.84285714 80.3867347,2.82326531 C80.3867347,2.79632653 80.3867347,2.77102041 80.3867347,2.74795918 C80.3867347,2.72102041 80.3867347,2.69183673 80.3867347,2.66081633 C80.3867347,2.63387755 80.3867347,2.60489796 80.3867347,2.57367347 C80.3867347,2.54285714 80.3867347,2.51204082 80.3867347,2.48081633 C80.3867347,2.44612245 80.3867347,2.41122449 80.3867347,2.37632653 C80.3867347,2.34163265 80.3867347,2.30673469 80.3867347,2.27183673 C80.3867347,2.23714286 80.3867347,2.2022449 80.3867347,2.16755102 C80.3867347,2.12897959 80.3867347,2.09204082 80.3867347,2.05714286 C80.3867347,2.01877551 80.3867347,1.98183673 80.3867347,1.94693878 C80.3867347,1.90836735 80.3867347,1.87142857 80.3867347,1.83673469 C80.3867347,1.79816327 80.3867347,1.76122449 80.3867347,1.72632653 C80.3867347,1.69163265 80.3867347,1.65489796 80.3867347,1.61612245 C80.3867347,1.58122449 80.3867347,1.54653061 80.3867347,1.51163265 C80.3867347,1.47673469 80.3867347,1.44408163 80.3867347,1.41306122 C80.3867347,1.37816327 80.3867347,1.3455102 80.3867347,1.31428571 C80.3867347,1.28346939 80.3867347,1.25265306 80.3867347,1.22142857 C80.3867347,1.1944898 80.3867347,1.16734694 80.3867347,1.14020408 C80.3867347,1.11326531 80.3867347,1.08795918 80.3867347,1.06469388 C80.3867347,1.04163265 80.3867347,1.01836735 80.3867347,0.995102041 C80.3867347,0.975714286 80.3867347,0.956530612 80.3867347,0.937142857 C80.3867347,0.921836735 80.3867347,0.906122449 80.3867347,0.890612245 C80.3867347,0.878979592 80.3867347,0.867346939 80.3867347,0.855918367 C80.3867347,0.848163265 80.3867347,0.840612245 80.3867347,0.832653061 C80.3867347,0.828979592 80.3867347,0.824897959 80.3867347,0.821020408 C80.3944898,0.774489796 80.3867347,0.737755102 80.3636735,0.710816327 C80.3326531,0.679795918 80.2938776,0.666530612 80.247551,0.670204082 C80.2436735,0.670204082 80.2397959,0.670204082 80.2359184,0.670204082 C80.2242857,0.670204082 80.2108163,0.670204082 80.1953061,0.670204082 C80.1720408,0.670204082 80.1508163,0.670204082 80.1314286,0.670204082 C80.1004082,0.670204082 80.0714286,0.670204082 80.0444898,0.670204082 C80.0134694,0.670204082 79.9806122,0.670204082 79.9457143,0.670204082 C79.9108163,0.670204082 79.8761224,0.670204082 79.8412245,0.670204082 C79.8065306,0.670204082 79.7716327,0.670204082 79.7367347,0.670204082 C79.7059184,0.670204082 79.6728571,0.670204082 79.6381633,0.670204082 C79.6071429,0.670204082 79.5781633,0.670204082 79.5510204,0.670204082 C79.5277551,0.670204082 79.5046939,0.670204082 79.4814286,0.670204082 C79.4659184,0.670204082 79.4504082,0.670204082 79.434898,0.670204082 C79.4273469,0.670204082 79.4214286,0.670204082 79.417551,0.670204082 C79.3363265,0.492244898 79.255102,0.314081633 79.1738776,0.136122449 C79.6922449,0.136122449 80.2108163,0.136122449 80.7291837,0.136122449 C81.2477551,0.136122449 81.7661224,0.136122449 82.2846939,0.136122449 C82.2342857,0.228979592 82.1628571,0.370408163 82.07,0.559795918 C82.0428571,0.591020408 82.0157143,0.621836735 81.9885714,0.652653061 C81.95,0.656530612 81.9112245,0.66244898 81.8726531,0.670204082 C81.7371429,0.670204082 81.5340816,0.670204082 81.2632653,0.670204082 C81.2283673,0.685510204 81.1916327,0.699183673 81.1528571,0.710816327 C81.1412245,0.749387755 81.1277551,0.786122449 81.1122449,0.821020408 C81.1122449,1.56387755 81.1122449,2.30673469 81.1122449,3.04959184 C81.0465306,3.04959184 80.9187755,3.04959184 80.7291837,3.04959184 Z M84.427551,1.65673469 C84.427551,1.88897959 84.427551,2.35326531 84.427551,3.04959184 C84.3038776,3.04959184 84.0581633,3.04959184 83.6906122,3.04959184 C83.6906122,2.80979592 83.6906122,2.32816327 83.6906122,1.6044898 C83.4932653,1.36081633 83.0985714,0.869591837 82.5065306,0.130408163 C82.6304082,0.130408163 82.8818367,0.130408163 83.2610204,0.130408163 C83.3965306,0.300816327 83.6673469,0.641020408 84.0734694,1.15183673 C84.2012245,0.981632653 84.462449,0.641020408 84.8571429,0.130408163 C84.9808163,0.130408163 85.232449,0.130408163 85.6116327,0.130408163 C85.4142857,0.385714286 85.0195918,0.894489796 84.427551,1.65673469 Z M89.6512245,0.310204082 C89.6512245,0.766734694 89.6491837,1.68 89.6453061,3.04959184 C89.5216327,3.04959184 89.2759184,3.04959184 88.9083673,3.04959184 C88.9083673,2.66285714 88.9083673,1.88693878 88.9083673,0.722244898 C88.7806122,1.10918367 88.5232653,1.88530612 88.1363265,3.04959184 C88.0318367,3.04959184 87.8230612,3.04959184 87.5095918,3.04959184 C87.234898,2.27183673 86.9581633,1.49632653 86.6795918,0.722244898 C86.6795918,1.49632653 86.6795918,2.27183673 86.6795918,3.04959184 C86.4359184,3.04959184 86.1920408,3.04959184 85.9483673,3.04959184 C85.9483673,2.43836735 85.9483673,1.51959184 85.9483673,0.292857143 C85.9638776,0.254285714 85.9793878,0.217346939 85.994898,0.182653061 C86.0334694,0.167346939 86.0702041,0.151632653 86.105102,0.136122449 C86.4377551,0.136122449 86.772449,0.136122449 87.1091837,0.136122449 C87.26,0.534693878 87.4902041,1.13244898 87.7997959,1.92959184 C87.7997959,1.92183673 87.8016327,1.91428571 87.8055102,1.90632653 C87.8093878,1.89857143 87.8132653,1.88897959 87.8171429,1.87734694 C87.8210204,1.86571429 87.824898,1.8522449 87.8287755,1.83673469 C87.8326531,1.82142857 87.8385714,1.80571429 87.8461224,1.79020408 C87.85,1.77489796 87.8559184,1.75755102 87.8636735,1.73795918 C87.8714286,1.71857143 87.8791837,1.69734694 87.8869388,1.67408163 C87.8944898,1.65489796 87.9022449,1.63346939 87.91,1.61040816 C87.9177551,1.58346939 87.9255102,1.55816327 87.9332653,1.53489796 C87.9410204,1.51163265 87.9487755,1.48653061 87.9565306,1.45938776 C87.9681633,1.43244898 87.9777551,1.40530612 87.9855102,1.37816327 C87.9971429,1.35122449 88.0067347,1.32408163 88.0144898,1.29693878 C88.0261224,1.26591837 88.0357143,1.23693878 88.0434694,1.20979592 C88.055102,1.17897959 88.0667347,1.14816327 88.0783673,1.11693878 C88.0861224,1.09020408 88.0957143,1.06102041 88.1073469,1.03 C88.1189796,0.998979592 88.1285714,0.97 88.1363265,0.942857143 C88.1479592,0.911836735 88.1595918,0.88122449 88.1712245,0.85 C88.1789796,0.823061224 88.1885714,0.794081633 88.2002041,0.763061224 C88.2118367,0.736122449 88.2214286,0.707142857 88.2291837,0.675918367 C88.2408163,0.648979592 88.2506122,0.621836735 88.2583673,0.594693878 C88.2697959,0.567755102 88.2795918,0.540408163 88.2873469,0.513469388 C88.295102,0.486530612 88.3046939,0.46122449 88.3163265,0.437959184 C88.3240816,0.411020408 88.3318367,0.385714286 88.3395918,0.36244898 C88.3473469,0.343061224 88.355102,0.321836735 88.3626531,0.298571429 C88.3704082,0.279387755 88.3781633,0.257959184 88.3859184,0.234897959 C88.3936735,0.219591837 88.3995918,0.202040816 88.4034694,0.182653061 C88.4110204,0.167346939 88.4169388,0.151632653 88.4208163,0.136122449 C88.6528571,0.136122449 89.0012245,0.136122449 89.4655102,0.136122449 C89.4926531,0.128367347 89.5195918,0.128367347 89.5467347,0.136122449 C89.5777551,0.147755102 89.5989796,0.167346939 89.6106122,0.194285714 C89.63,0.228979592 89.6434694,0.267755102 89.6512245,0.310204082 Z M12.0489796,5.40612245 C12.0489796,9.43816327 12.0489796,13.4789796 12.0489796,17.5271429 C11.024898,17.5271429 10.0006122,17.5271429 8.97673469,17.5271429 C8.97673469,15.894898 8.97673469,14.2626531 8.97673469,12.6306122 C7.44061224,12.6306122 5.90469388,12.6306122 4.36857143,12.6306122 C4.25632653,12.5987755 4.14408163,12.5669388 4.03244898,12.5344898 C3.93632653,12.4710204 3.86428571,12.3828571 3.81632653,12.2706122 C3.54408163,11.6789796 3.29632653,11.0785714 3.0722449,10.4704082 C4.97632653,10.4704082 6.24836735,10.4704082 6.88877551,10.4704082 C7.92877551,10.4704082 8.62469388,10.4704082 8.97673469,10.4704082 C8.97673469,9.70244898 8.97673469,9.19040816 8.97673469,8.93428571 C8.97673469,7.17428571 8.97673469,5.99816327 8.97673469,5.40612245 C10.3367347,5.40612245 11.3608163,5.40612245 12.0489796,5.40612245 Z M3.0722449,5.40612245 C3.0722449,7.9344898 3.0722449,9.62265306 3.0722449,10.4704082 C3.0722449,13.9908163 3.0722449,16.3430612 3.0722449,17.5271429 C1.53612245,17.5271429 0.512040816,17.5271429 -8.52651283e-14,17.5271429 C-8.52651283e-14,11.4626531 -8.52651283e-14,7.4222449 -8.52651283e-14,5.40612245 C1.53612245,5.40612245 2.56,5.40612245 3.0722449,5.40612245 Z M20.2693878,17.5271429 C19.4614286,15.1036735 18.647551,12.6744898 17.8279592,10.2389796 C17.43,11.2640816 17.0259184,12.2826531 16.6163265,13.2953061 C16.8934694,13.2953061 17.1706122,13.2953061 17.4481633,13.2953061 C17.8461224,13.2953061 18.237551,13.2953061 18.6236735,13.2953061 C18.4067347,13.717551 18.1832653,14.1453061 17.9544898,14.5793878 C17.87,14.6761224 17.7918367,14.7665306 17.7193878,14.8506122 C17.5865306,14.874898 17.46,14.8930612 17.3395918,14.904898 C16.7246939,14.904898 16.2604082,14.904898 15.9471429,14.904898 C15.6093878,15.785102 15.2659184,16.6589796 14.9163265,17.5271429 C14.1808163,17.5271429 13.4453061,17.5271429 12.71,17.5271429 C13.7828571,14.6457143 14.8620408,11.7644898 15.9471429,8.88265306 C15.995102,8.79857143 16.0434694,8.72 16.0918367,8.64755102 C16.1640816,8.58755102 16.2365306,8.53326531 16.3087755,8.48489796 C16.3930612,8.44877551 16.4834694,8.43061224 16.58,8.43061224 C17.46,8.41877551 18.3342857,8.41877551 19.202449,8.43061224 C20.9263265,12.9761224 22.0714286,16.0079592 22.6383673,17.5271429 C21.5893878,17.5271429 20.7995918,17.5271429 20.2693878,17.5271429 Z M32.6028571,12.6261224 C32.6028571,12.7108163 32.6028571,12.7953061 32.6028571,12.8793878 C32.5906122,12.9638776 32.5846939,13.0483673 32.5846939,13.132449 C32.5726531,13.2171429 32.5604082,13.3016327 32.5485714,13.3857143 C32.5363265,13.4702041 32.5242857,13.5546939 32.512449,13.6389796 C32.4879592,13.7234694 32.47,13.8016327 32.4581633,13.8740816 C32.4338776,13.9585714 32.4097959,14.0367347 32.3859184,14.1091837 C32.3614286,14.1936735 32.337551,14.2718367 32.3134694,14.3442857 C32.2891837,14.4287755 32.2591837,14.5069388 32.2230612,14.5793878 C32.1987755,14.6516327 32.1687755,14.7238776 32.1326531,14.7963265 C32.0965306,14.8685714 32.0604082,14.9410204 32.0240816,15.0132653 C31.9879592,15.0857143 31.9518367,15.1579592 31.9157143,15.2304082 C31.8673469,15.2908163 31.8253061,15.3569388 31.7889796,15.4291837 C31.7406122,15.4897959 31.6985714,15.5559184 31.662449,15.6281633 C31.6140816,15.6887755 31.5657143,15.7489796 31.5177551,15.8089796 C31.4693878,15.8695918 31.4210204,15.9297959 31.3730612,15.9897959 C31.3126531,16.0504082 31.2583673,16.1106122 31.2104082,16.1708163 C31.1497959,16.2189796 31.0955102,16.2732653 31.047551,16.3334694 C30.9871429,16.3818367 30.9269388,16.4302041 30.8667347,16.4781633 C30.8061224,16.5265306 30.7461224,16.574898 30.6859184,16.6228571 C30.6253061,16.6712245 30.5653061,16.7195918 30.505102,16.767551 C30.4326531,16.8159184 30.3663265,16.8579592 30.3061224,16.8940816 C30.2338776,16.9302041 30.1673469,16.9663265 30.1071429,17.0026531 C30.034898,17.0510204 29.962449,17.0871429 29.8902041,17.1110204 C29.8179592,17.1473469 29.7514286,17.1834694 29.6912245,17.2195918 C29.6189796,17.2440816 29.5402041,17.2679592 29.4561224,17.2920408 C29.3838776,17.3163265 29.3114286,17.3404082 29.2391837,17.3642857 C29.1667347,17.3887755 29.0944898,17.4067347 29.0222449,17.4185714 C28.937551,17.4428571 28.8593878,17.4610204 28.7871429,17.4728571 C28.702449,17.484898 28.6242857,17.4971429 28.5520408,17.5089796 C28.4673469,17.5212245 28.3828571,17.5271429 28.2987755,17.5271429 C28.2265306,17.5271429 28.1477551,17.5271429 28.0636735,17.5271429 C27.9791837,17.5271429 27.9010204,17.5271429 27.8285714,17.5271429 C27.7440816,17.5271429 27.6659184,17.5212245 27.5934694,17.5089796 C27.5089796,17.5089796 27.4244898,17.5030612 27.3402041,17.4908163 C27.2679592,17.4791837 27.1893878,17.4669388 27.1053061,17.4546939 C27.0328571,17.4428571 26.9606122,17.424898 26.8881633,17.4004082 C26.8036735,17.3887755 26.7255102,17.3706122 26.6530612,17.3461224 C26.5808163,17.3344898 26.5020408,17.3163265 26.4179592,17.2920408 C26.3457143,17.2679592 26.2732653,17.2377551 26.2010204,17.2016327 C26.1285714,17.177551 26.0563265,17.1473469 25.9838776,17.1110204 C25.9116327,17.0871429 25.845102,17.0569388 25.785102,17.0206122 C25.7126531,16.9844898 25.6404082,16.9483673 25.5679592,16.9122449 C25.507551,16.8761224 25.4473469,16.8338776 25.3871429,16.7855102 C25.314898,16.7493878 25.2483673,16.7073469 25.1883673,16.6589796 C25.1277551,16.6110204 25.067551,16.5626531 25.0073469,16.5142857 C24.9469388,16.4663265 24.8926531,16.4179592 24.8446939,16.3695918 C24.7840816,16.3095918 24.7297959,16.2493878 24.6818367,16.1887755 C24.6214286,16.1408163 24.5671429,16.0865306 24.5191837,16.0261224 C24.4830612,15.9659184 24.4404082,15.9057143 24.3926531,15.845102 C24.3563265,15.785102 24.3138776,15.724898 24.2659184,15.6642857 C24.2297959,15.6042857 24.1936735,15.5440816 24.157551,15.4834694 C24.1212245,15.4112245 24.085102,15.345102 24.0489796,15.2844898 C24.0128571,15.2122449 23.9765306,15.14 23.9404082,15.067551 C23.9042857,14.9953061 23.8740816,14.9228571 23.85,14.8506122 C23.8138776,14.7781633 23.7836735,14.7059184 23.7595918,14.6334694 C23.7234694,14.5612245 23.6930612,14.4830612 23.6691837,14.3983673 C23.6446939,14.3261224 23.6208163,14.2479592 23.5969388,14.1632653 C23.572449,14.0910204 23.5542857,14.0128571 23.5426531,13.9281633 C23.5181633,13.8559184 23.4942857,13.7777551 23.4702041,13.6930612 C23.4579592,13.6089796 23.4459184,13.5304082 23.4340816,13.4581633 C23.4218367,13.3738776 23.4097959,13.2893878 23.3979592,13.204898 C23.3857143,13.132449 23.3734694,13.0542857 23.3618367,12.9697959 C23.3618367,12.897551 23.3618367,12.8191837 23.3618367,12.7346939 C23.3495918,12.6506122 23.3436735,12.5718367 23.3436735,12.4995918 C23.3436735,10.6912245 23.3436735,9.33489796 23.3436735,8.43061224 C24.1032653,8.43061224 24.8685714,8.43061224 25.6404082,8.43061224 C25.6404082,9.82938776 25.6404082,11.2218367 25.6404082,12.6081633 C25.6522449,12.6926531 25.6583673,12.7708163 25.6583673,12.8432653 C25.6702041,12.9277551 25.6883673,13.0122449 25.7126531,13.0963265 C25.7244898,13.1687755 25.7367347,13.2410204 25.7489796,13.3134694 C25.7728571,13.3979592 25.7967347,13.4761224 25.8212245,13.5485714 C25.845102,13.6208163 25.8755102,13.6930612 25.9116327,13.7655102 C25.9357143,13.8261224 25.9659184,13.8920408 26.0020408,13.9644898 C26.0381633,14.024898 26.0744898,14.0910204 26.1106122,14.1632653 C26.1585714,14.2238776 26.2010204,14.2840816 26.2371429,14.3442857 C26.2973469,14.4046939 26.357551,14.464898 26.4179592,14.525102 C26.4781633,14.5855102 26.5444898,14.6457143 26.6169388,14.7059184 C26.6771429,14.7542857 26.7493878,14.8026531 26.8338776,14.8506122 C26.9063265,14.8989796 26.9785714,14.9410204 27.0510204,14.9771429 C27.1232653,15.0255102 27.2014286,15.0616327 27.2861224,15.0857143 C27.3702041,15.1218367 27.4546939,15.1463265 27.5391837,15.1579592 C27.6232653,15.182449 27.7079592,15.2004082 27.792449,15.2122449 C27.8887755,15.2244898 27.9791837,15.2304082 28.0636735,15.2304082 C28.1477551,15.2304082 28.2322449,15.2244898 28.3169388,15.2122449 C28.4010204,15.2004082 28.4855102,15.1883673 28.57,15.1761224 C28.6540816,15.1520408 28.7328571,15.1281633 28.805102,15.1036735 C28.8891837,15.0797959 28.9679592,15.0495918 29.0402041,15.0132653 C29.1126531,14.9771429 29.184898,14.935102 29.2573469,14.8867347 C29.3295918,14.8506122 29.3957143,14.8026531 29.4561224,14.7420408 C29.5163265,14.6940816 29.5828571,14.6397959 29.655102,14.5793878 C29.7030612,14.5314286 29.7514286,14.4771429 29.7997959,14.4165306 C29.86,14.3563265 29.9083673,14.2963265 29.9444898,14.2357143 C29.992449,14.1632653 30.034898,14.0973469 30.0710204,14.0367347 C30.1071429,13.9644898 30.1434694,13.8920408 30.1795918,13.8197959 C30.2034694,13.7473469 30.2338776,13.6691837 30.27,13.5846939 C30.2938776,13.5122449 30.3120408,13.4340816 30.3242857,13.3495918 C30.3481633,13.2771429 30.3663265,13.1989796 30.3785714,13.1144898 C30.3902041,13.0304082 30.3965306,12.9457143 30.3965306,12.8612245 C30.4083673,12.7889796 30.4146939,12.7108163 30.4146939,12.6261224 C30.4146939,11.4932653 30.4206122,10.3597959 30.4326531,9.22632653 C30.4326531,9.1422449 30.4385714,9.05183673 30.4508163,8.95510204 C30.4626531,8.89489796 30.4869388,8.83469388 30.5230612,8.77428571 C30.5710204,8.67795918 30.6434694,8.59346939 30.7402041,8.52102041 C30.8242857,8.47306122 30.9146939,8.44877551 31.0114286,8.44877551 C31.5538776,8.43693878 32.0965306,8.43693878 32.6389796,8.44877551 C32.6267347,10.3055102 32.6146939,11.6979592 32.6028571,12.6261224 Z M35.8579592,15.375102 C35.9783673,15.4234694 36.0989796,15.4716327 36.2197959,15.5197959 C36.7983673,15.5197959 37.6665306,15.5197959 38.8238776,15.5197959 C38.9440816,15.5440816 39.0708163,15.5622449 39.2036735,15.5738776 C39.2759184,15.682449 39.3542857,15.785102 39.4387755,15.8814286 C39.667551,16.4238776 39.8967347,16.9726531 40.1259184,17.5271429 C39.0287755,17.5271429 37.3830612,17.5271429 35.1889796,17.5271429 C35.1044898,17.5271429 35.0197959,17.5212245 34.9357143,17.5089796 C34.8512245,17.4971429 34.7667347,17.4791837 34.6826531,17.4546939 C34.5979592,17.4308163 34.5197959,17.4004082 34.447551,17.3642857 C34.3628571,17.3281633 34.2906122,17.2861224 34.2304082,17.2377551 C34.1581633,17.1897959 34.0857143,17.1414286 34.0134694,17.0930612 C33.9528571,17.0328571 33.8985714,16.9726531 33.8506122,16.9122449 C33.7902041,16.8520408 33.7359184,16.7855102 33.6879592,16.7132653 C33.6518367,16.6408163 33.6155102,16.5685714 33.5793878,16.4963265 C33.5432653,16.4120408 33.5130612,16.327551 33.4889796,16.2430612 C33.4646939,16.1589796 33.4465306,16.0744898 33.4346939,15.9897959 C33.422449,15.9057143 33.4167347,15.8212245 33.4167347,15.7367347 C33.4167347,15.6042857 33.4167347,15.477551 33.4167347,15.3569388 C33.4167347,15.345102 33.4167347,15.3330612 33.4167347,15.3208163 C33.4167347,15.2967347 33.4167347,15.2728571 33.4167347,15.2483673 C33.4167347,15.2122449 33.4167347,15.1761224 33.4167347,15.14 C33.4167347,15.0920408 33.4167347,15.0377551 33.4167347,14.9771429 C33.4167347,14.9169388 33.4167347,14.8569388 33.4167347,14.7963265 C33.4167347,14.7361224 33.4167347,14.6697959 33.4167347,14.5973469 C33.4167347,14.5132653 33.4167347,14.4346939 33.4167347,14.3622449 C33.4167347,14.2659184 33.4167347,14.1755102 33.4167347,14.0910204 C33.4167347,13.9946939 33.4167347,13.8983673 33.4167347,13.8016327 C33.4167347,13.7053061 33.4167347,13.6089796 33.4167347,13.5122449 C33.4167347,13.4038776 33.4167347,13.2953061 33.4167347,13.1867347 C33.4167347,13.0783673 33.4167347,12.9697959 33.4167347,12.8612245 C33.4167347,12.7528571 33.4167347,12.6442857 33.4167347,12.5357143 C33.4167347,12.4155102 33.4167347,12.3006122 33.4167347,12.1922449 C33.4167347,12.0718367 33.4167347,11.9571429 33.4167347,11.8485714 C33.4167347,11.7283673 33.4167347,11.6134694 33.4167347,11.504898 C33.4167347,11.3846939 33.4167347,11.2697959 33.4167347,11.1614286 C33.4167347,11.0410204 33.4167347,10.9263265 33.4167347,10.8177551 C33.4167347,10.7091837 33.4167347,10.6008163 33.4167347,10.4922449 C33.4167347,10.3959184 33.4167347,10.2932653 33.4167347,10.184898 C33.4167347,10.0885714 33.4167347,9.98591837 33.4167347,9.87734694 C33.4167347,9.79326531 33.4167347,9.70285714 33.4167347,9.60612245 C33.4167347,9.52204082 33.4167347,9.43734694 33.4167347,9.35285714 C33.4167347,9.26877551 33.4167347,9.19020408 33.4167347,9.1177551 C33.4167347,9.0455102 33.4167347,8.97938776 33.4167347,8.91897959 C33.4167347,8.85877551 33.4167347,8.79857143 33.4167347,8.73795918 C33.4167347,8.69 33.4167347,8.64163265 33.4167347,8.59346939 C33.4167347,8.55714286 33.4167347,8.52102041 33.4167347,8.48489796 C33.4167347,8.46081633 33.4167347,8.44285714 33.4167347,8.43061224 C33.4167347,8.41877551 33.4167347,8.40653061 33.4167347,8.3944898 C33.7783673,8.3944898 34.14,8.3944898 34.5016327,8.3944898 C34.9114286,8.3944898 35.3214286,8.3944898 35.7314286,8.3944898 C35.7314286,10.6128571 35.7314286,12.825102 35.7314286,15.0314286 C35.767551,15.1520408 35.8095918,15.2665306 35.8579592,15.375102 Z M40.7871429,5.43 C43.9232653,5.43 47.0595918,5.43 50.1959184,5.43 C50.307551,5.43 50.4277551,5.43836735 50.5559184,5.45408163 C50.6677551,5.47 50.7797959,5.48632653 50.8920408,5.50204082 C51.0197959,5.53428571 51.14,5.56612245 51.2520408,5.59816327 C51.3638776,5.63020408 51.4681633,5.67 51.5640816,5.71795918 C51.6757143,5.76612245 51.7802041,5.8222449 51.8761224,5.88591837 C51.9722449,5.93387755 52.0681633,5.99020408 52.1640816,6.05408163 C52.2602041,6.11816327 52.3479592,6.1822449 52.4281633,6.24612245 C52.5240816,6.32632653 52.6118367,6.40612245 52.6920408,6.48612245 C52.7720408,6.56632653 52.8440816,6.64612245 52.9081633,6.72612245 C52.9879592,6.82204082 53.0602041,6.91816327 53.1240816,7.01408163 C53.1879592,7.0944898 53.2442857,7.19040816 53.2922449,7.3022449 C53.3559184,7.39816327 53.4122449,7.50244898 53.4602041,7.61428571 C53.5081633,7.71020408 53.5479592,7.8144898 53.5804082,7.92632653 C53.6122449,8.03836735 53.6440816,8.15040816 53.6761224,8.2622449 C53.6920408,8.39061224 53.7081633,8.51040816 53.7242857,8.6222449 C53.7242857,8.75061224 53.7320408,8.87061224 53.7483673,8.9822449 C53.7320408,9.11061224 53.7242857,9.23061224 53.7242857,9.3422449 C53.7081633,9.47061224 53.6920408,9.59061224 53.6761224,9.70244898 C53.6440816,9.8144898 53.6122449,9.92673469 53.5804082,10.0385714 C53.5479592,10.1504082 53.5081633,10.2626531 53.4602041,10.3744898 C53.4122449,10.4865306 53.3559184,10.5904082 53.2922449,10.6865306 C53.2442857,10.7985714 53.1879592,10.8944898 53.1240816,10.9744898 C53.0602041,11.0706122 52.9879592,11.1665306 52.9081633,11.262449 C52.8440816,11.3428571 52.7720408,11.4226531 52.6920408,11.502449 C52.6118367,11.5828571 52.5240816,11.6626531 52.4281633,11.742449 C52.3479592,11.8067347 52.2602041,11.8710204 52.1640816,11.9344898 C52.0681633,11.9987755 51.9722449,12.0628571 51.8761224,12.1265306 C51.7802041,12.1746939 51.6757143,12.2226531 51.5640816,12.2706122 C51.4681633,12.3185714 51.3638776,12.3587755 51.2520408,12.3906122 C51.14,12.4385714 51.0197959,12.4710204 50.8920408,12.4865306 C50.7797959,12.5026531 50.6677551,12.5189796 50.5559184,12.5344898 C50.4277551,12.5508163 50.307551,12.5585714 50.1959184,12.5585714 C48.6436735,12.5585714 47.0914286,12.5585714 45.5393878,12.5585714 C45.7314286,12.1587755 46.0353061,11.5667347 46.4516327,10.782449 C46.5634694,10.6544898 46.6755102,10.5183673 46.7877551,10.3744898 C46.9473469,10.342449 47.107551,10.3185714 47.267551,10.302449 C47.7477551,10.302449 48.4757143,10.302449 49.4520408,10.302449 C49.5636735,10.2865306 49.6757143,10.2706122 49.7879592,10.2544898 C49.8995918,10.2226531 50.0038776,10.1746939 50.1,10.1104082 C50.1959184,10.062449 50.2836735,9.99857143 50.3638776,9.91836735 C50.46,9.8222449 50.5320408,9.72632653 50.58,9.63020408 C50.6436735,9.53428571 50.6916327,9.43061224 50.7240816,9.31836735 C50.7397959,9.20653061 50.7479592,9.0944898 50.7479592,8.9822449 C50.7479592,8.87061224 50.7397959,8.75836735 50.7240816,8.64612245 C50.6916327,8.5344898 50.6436735,8.43020408 50.58,8.33428571 C50.5159184,8.23816327 50.4438776,8.15040816 50.3638776,8.07020408 C50.2836735,7.97428571 50.1959184,7.9022449 50.1,7.85408163 C50.0038776,7.79061224 49.8995918,7.74244898 49.7879592,7.71020408 C49.6757143,7.71020408 49.5636735,7.70244898 49.4520408,7.68612245 C48.3318367,7.68612245 46.6516327,7.68612245 44.4116327,7.68612245 C44.267551,7.75040816 44.1234694,7.80612245 43.9793878,7.85408163 C43.9153061,8.01428571 43.8593878,8.16632653 43.8114286,8.31040816 C43.8114286,11.382449 43.8114286,14.4546939 43.8114286,17.5271429 C42.8032653,17.5271429 41.795102,17.5271429 40.7871429,17.5271429 C40.7871429,15.5110204 40.7871429,11.4785714 40.7871429,5.43 Z M57.9004082,14.6708163 C58.0604082,14.734898 58.2204082,14.7991837 58.3806122,14.8628571 C59.1485714,14.8628571 60.3008163,14.8628571 61.8369388,14.8628571 C61.9967347,14.895102 62.1646939,14.9189796 62.3408163,14.934898 C62.4369388,15.0787755 62.5408163,15.214898 62.6530612,15.3428571 C62.9567347,16.0628571 63.2610204,16.7912245 63.565102,17.5271429 C62.1087755,17.5271429 59.9246939,17.5271429 57.012449,17.5271429 C56.9004082,17.5271429 56.7881633,17.5191837 56.6763265,17.5030612 C56.5642857,17.4871429 56.4520408,17.4632653 56.3404082,17.4312245 C56.2283673,17.3991837 56.1242857,17.3589796 56.0283673,17.3110204 C55.9163265,17.2630612 55.8204082,17.2071429 55.7402041,17.1430612 C55.6442857,17.0791837 55.5481633,17.015102 55.4522449,16.9510204 C55.3720408,16.8712245 55.3002041,16.7912245 55.2363265,16.7110204 C55.1561224,16.6312245 55.0838776,16.5430612 55.0204082,16.4469388 C54.9722449,16.3510204 54.9242857,16.254898 54.8763265,16.1589796 C54.8283673,16.0471429 54.7881633,15.935102 54.7561224,15.8228571 C54.7240816,15.7110204 54.7,15.5989796 54.6842857,15.4869388 C54.6681633,15.3753061 54.6602041,15.2630612 54.6602041,15.1508163 C54.6602041,14.974898 54.6602041,14.8069388 54.6602041,14.6467347 C54.6602041,14.6310204 54.6602041,14.614898 54.6602041,14.5987755 C54.6602041,14.5669388 54.6602041,14.534898 54.6602041,14.5026531 C54.6602041,14.4546939 54.6602041,14.4067347 54.6602041,14.3587755 C54.6602041,14.295102 54.6602041,14.2230612 54.6602041,14.1428571 C54.6602041,14.0628571 54.6602041,13.9828571 54.6602041,13.9026531 C54.6602041,13.8228571 54.6602041,13.734898 54.6602041,13.6387755 C54.6602041,13.5269388 54.6602041,13.4226531 54.6602041,13.3265306 C54.6602041,13.1987755 54.6602041,13.0787755 54.6602041,12.9667347 C54.6602041,12.8387755 54.6602041,12.7108163 54.6602041,12.5826531 C54.6602041,12.4546939 54.6602041,12.3269388 54.6602041,12.1985714 C54.6602041,12.0546939 54.6602041,11.9106122 54.6602041,11.7665306 C54.6602041,11.6226531 54.6602041,11.4785714 54.6602041,11.3344898 C54.6602041,11.1904082 54.6602041,11.0465306 54.6602041,10.902449 C54.6602041,10.7428571 54.6602041,10.5904082 54.6602041,10.4465306 C54.6602041,10.2865306 54.6602041,10.1344898 54.6602041,9.99040816 C54.6602041,9.83061224 54.6602041,9.67836735 54.6602041,9.53428571 C54.6602041,9.37469388 54.6602041,9.2222449 54.6602041,9.07836735 C54.6602041,8.91857143 54.6602041,8.76632653 54.6602041,8.6222449 C54.6602041,8.47836735 54.6602041,8.33428571 54.6602041,8.19020408 C54.6602041,8.06244898 54.6602041,7.92632653 54.6602041,7.7822449 C54.6602041,7.6544898 54.6602041,7.51816327 54.6602041,7.37428571 C54.6602041,7.26244898 54.6602041,7.14244898 54.6602041,7.01408163 C54.6602041,6.90244898 54.6602041,6.79020408 54.6602041,6.67816327 C54.6602041,6.56632653 54.6602041,6.46204082 54.6602041,6.36612245 C54.6602041,6.27 54.6602041,6.1822449 54.6602041,6.10204082 C54.6602041,6.02204082 54.6602041,5.9422449 54.6602041,5.86204082 C54.6602041,5.79816327 54.6602041,5.73428571 54.6602041,5.67 C54.6602041,5.62204082 54.6602041,5.57408163 54.6602041,5.52591837 C54.6602041,5.49428571 54.6602041,5.47 54.6602041,5.45408163 C54.6602041,5.43836735 54.6602041,5.42204082 54.6602041,5.40612245 C55.1402041,5.40612245 55.6204082,5.40612245 56.1004082,5.40612245 C56.6440816,5.40612245 57.1883673,5.40612245 57.7326531,5.40612245 C57.7326531,8.35040816 57.7326531,11.2865306 57.7326531,14.2146939 C57.7806122,14.374898 57.8365306,14.5269388 57.9004082,14.6708163 Z M74.1738776,17.5271429 C73.1016327,14.3106122 72.0214286,11.0865306 70.9336735,7.85408163 C70.4055102,9.2144898 69.8691837,10.5663265 69.3255102,11.9106122 C69.6932653,11.9106122 70.0612245,11.9106122 70.4295918,11.9106122 C70.957551,11.9106122 71.4773469,11.9106122 71.9897959,11.9106122 C71.7016327,12.4710204 71.4053061,13.0387755 71.1016327,13.6146939 C70.9893878,13.7430612 70.8857143,13.8630612 70.7895918,13.974898 C70.6132653,14.0069388 70.4453061,14.0310204 70.2855102,14.0467347 C69.4695918,14.0467347 68.8532653,14.0467347 68.4373469,14.0467347 C67.9891837,15.214898 67.5330612,16.374898 67.0691837,17.5271429 C66.0930612,17.5271429 65.1169388,17.5271429 64.1410204,17.5271429 C65.564898,13.7028571 66.9973469,9.87857143 68.4373469,6.05408163 C68.5012245,5.9422449 68.5653061,5.83795918 68.6293878,5.74204082 C68.7255102,5.66204082 68.8214286,5.59020408 68.917551,5.52591837 C69.0291837,5.47795918 69.1491837,5.45408163 69.277551,5.45408163 C70.4453061,5.43836735 71.6057143,5.43836735 72.7577551,5.45408163 C75.0459184,11.4869388 76.5657143,15.5110204 77.3181633,17.5271429 C75.9261224,17.5271429 74.8777551,17.5271429 74.1738776,17.5271429 Z M86.7510204,15.0308163 C86.7510204,13.4467347 86.7510204,10.2626531 86.7510204,5.47795918 C87.2469388,5.47795918 88.2632653,5.47795918 89.7991837,5.47795918 C89.8312245,9.2544898 89.8312245,13.0308163 89.7991837,16.8069388 C89.7991837,16.9989796 89.7430612,17.1669388 89.6314286,17.3110204 C89.5671429,17.3914286 89.4789796,17.4632653 89.3671429,17.5271429 C89.255102,17.5271429 89.1430612,17.534898 89.0314286,17.5510204 C87.6389796,17.534898 86.2469388,17.5271429 84.854898,17.5271429 C83.6867347,14.3106122 82.5267347,11.1028571 81.3744898,7.9022449 C81.3744898,11.1028571 81.3744898,14.3106122 81.3744898,17.5271429 C80.3983673,17.5271429 79.4222449,17.5271429 78.4463265,17.5271429 C78.4463265,14.9989796 78.4463265,11.1987755 78.4463265,6.12591837 C78.4942857,5.98204082 78.5502041,5.83020408 78.6142857,5.67 C78.7740816,5.60612245 78.9340816,5.5422449 79.0944898,5.47795918 C80.4542857,5.47795918 81.822449,5.47795918 83.1987755,5.47795918 C83.9826531,7.60632653 85.1669388,10.7908163 86.7510204,15.0308163 Z" id="Combined-Shape"></path>
                    </g>
                </g>
            </g>
        </g>
    </g>
</svg>