<?xml version="1.0" encoding="UTF-8"?>
<svg width="27px" height="25px" viewBox="0 0 27 25" version="1.1" xmlns="http://www.w3.org/2000/svg" xmlns:xlink="http://www.w3.org/1999/xlink">
    <!-- Generator: sketchtool 52.4 (67378) - http://www.bohemiancoding.com/sketch -->
    <title>9DDDC948-38BD-4295-89DD-C93A4A09D457</title>
    <desc>Created with sketchtool.</desc>
    <g id="workbench" stroke="none" stroke-width="1" fill="none" fill-rule="evenodd">
        <g id="WYN-HaulPLAN-Workbench" transform="translate(-12.000000, -11.000000)" fill="#36A993" fill-rule="nonzero">
            <g id="Top-menu-bar">
                <g id="logo" transform="translate(12.000000, 11.000000)">
                    <path d="M23.5675165,24.999957 L0,25 L0.000167899383,2.73510006 C-0.0079263001,2.00815543 0.276933335,1.30855182 0.790522139,0.794022379 C1.30411094,0.279492937 2.00319214,-0.00664637343 2.73015036,0.000117631308 L23.5675165,0.000117631308 C24.2942503,-0.00665838877 24.9930842,0.279558673 25.5062789,0.794164526 C26.0194736,1.30877038 26.3037706,2.00838758 26.294999,2.73510006 L26.294999,22.2499747 C26.3050826,22.9784533 26.0216945,23.6803641 25.5086534,24.1976374 C24.9956124,24.7149107 24.2960533,25.0040556 23.5675165,24.999957 Z M16.9950587,16.7275102 L16.9875588,16.7100103 C17.2799988,16.7137375 17.5529458,16.563735 17.706568,16.314867 C17.8601902,16.065999 17.8719529,15.7547718 17.7375539,15.4950181 C17.412556,14.8700221 16.4075625,13.7450293 15.0050715,13.7450293 C14.1613197,13.715666 13.3532251,14.0863516 12.8250855,14.7450229 L12.6775865,14.9025219 C12.6525866,14.9300217 12.5350874,15.0700208 12.5000876,15.1025206 L8.0626161,15.1025206 C7.61445741,15.1038932 7.25149394,15.4668567 7.25012132,15.9150154 C7.25012132,16.3637439 7.61388762,16.7275102 8.0626161,16.7275102 L12.740086,16.7275102 C13.3425822,16.7275102 13.7000799,16.2475132 13.8900787,16.0400146 L14.0375777,15.8825156 C14.3250759,15.5775176 14.4675749,15.4225185 14.9950716,15.4225185 C15.7300668,15.4225185 16.2450635,16.2750131 16.2450635,16.2750131 C16.389534,16.5553905 16.6796627,16.7304348 16.9950587,16.7275102 Z M5.44263293,16.7300101 C5.89412282,16.7300101 6.26012768,16.3640053 6.26012768,15.9125154 C6.26012768,15.4610255 5.89412282,15.0950207 5.44263293,15.0950207 C4.99114305,15.0950207 4.62513819,15.4610255 4.62513819,15.9125154 C4.62513819,16.3640053 4.99114305,16.7300101 5.44263293,16.7300101 Z M20.4250367,15.7875162 C20.6449546,15.7977721 20.8594771,15.7175099 21.0186538,15.5654182 C21.1778305,15.4133266 21.2677703,15.2026782 21.2675313,14.9825214 C21.2675313,14.892522 21.2675313,14.7875226 21.2675313,14.7500229 C21.1429729,13.1829129 20.1120191,11.8340655 18.6325482,11.302545 C18.0550519,11.0825464 17.7400539,10.7575485 17.4275559,10.067553 C16.3075631,7.59256885 13.065084,7.47756959 12.907585,7.47756959 L10.7400989,7.47756959 L10.7400989,12.6025367 C10.733105,12.8366737 10.8230439,13.0633187 10.9886776,13.2289524 C11.1543113,13.3945861 11.3809563,13.4845249 11.6150933,13.477531 C12.0912214,13.4607642 12.4733208,13.0786648 12.4900877,12.6025367 L12.4900877,9.10255915 L12.8900851,9.10255915 C12.905085,9.10505913 15.2250701,9.25755815 15.9050657,10.7575485 C16.4000625,11.8500415 17.0450584,12.4800375 18.045052,12.865035 C18.9163517,13.1591884 19.5370757,13.9331415 19.6350418,14.8475222 C19.6350418,14.8700221 19.6350418,14.9275217 19.6350418,14.9775214 C19.632373,15.1896981 19.7141089,15.3942431 19.8622653,15.5461502 C20.0104216,15.6980573 20.2128596,15.7848806 20.4250367,15.7875162 Z" id="Combined-Shape"></path>
                </g>
            </g>
        </g>
    </g>
</svg>