<?xml version="1.0" encoding="utf-8"?>
<!-- Generator: Adobe Illustrator 21.0.2, SVG Export Plug-In . SVG Version: 6.00 Build 0)  -->
<svg version="1.1" id="Layer_1" xmlns="http://www.w3.org/2000/svg" xmlns:xlink="http://www.w3.org/1999/xlink" x="0px" y="0px"
	 viewBox="0 0 500 500" style="enable-background:new 0 0 500 500;" xml:space="preserve">
<path d="M418.7,226.4c-9.6,0-19.3,2.4-26.5,4.8l-62.7-72.3c9.6-14.5,16.9-33.7,16.9-53c0-53-43.4-96.4-96.4-96.4
	s-96.4,43.4-96.4,96.4c0,19.3,7.2,38.6,16.9,55.4l-62.7,72.3c-7.2-4.8-16.9-7.2-26.5-7.2c-41,0-72.3,31.3-72.3,72.3
	S40.3,371,81.3,371s72.3-31.3,72.3-72.3c0-12.1-4.8-24.1-9.6-36.2l62.7-72.3c7.2,4.8,12.1,7.2,19.3,9.6v151.8
	c-28.9,9.6-48.2,36.1-48.2,67.5c0,41,31.3,72.3,72.3,72.3s72.3-31.3,72.3-72.3c0-31.3-19.3-57.8-48.2-67.5V199.9
	c7.2-2.4,12-4.8,19.3-7.2L356,265c-4.8,9.6-9.6,21.7-9.6,33.7c0,41,31.3,72.3,72.3,72.3s72.3-31.3,72.3-72.3
	S459.7,226.4,418.7,226.4z"/>
</svg>
