<?xml version="1.0" encoding="utf-8"?>
<!-- Generator: Adobe Illustrator 21.0.2, SVG Export Plug-In . SVG Version: 6.00 Build 0)  -->
<svg version="1.1" id="Layer_1" xmlns="http://www.w3.org/2000/svg" xmlns:xlink="http://www.w3.org/1999/xlink" x="0px" y="0px"
	 viewBox="0 0 500 500" style="enable-background:new 0 0 500 500;" xml:space="preserve">
<style type="text/css">
	.st0{fill:none;}
</style>
<g>
	<path d="M35,315.3v79.2c0,5.5,4.5,10,10,10h20.6c0,25.6,20.8,46.3,46.3,46.3c25.6,0,46.3-20.8,46.3-46.3l0,0h20.6
		c5.5,0,10-4.5,10-10V230c0-5.5-4.5-10-10-10l0,0h-35.9H102c-3.4,0-6.6,1.7-8.4,4.5l-56.9,85.4c-1.2,1.4-1.7,3.4-1.7,5.3
		C35,315.2,35,315.2,35,315.3z M62.7,312.3l41.1-61.5h38.9v61.5H62.7z M88.9,404.8c0-12.6,10.2-23.1,23.1-23.1
		c12.6,0,23.1,10.2,23.1,23.1c0,12.6-10.4,23.1-23.1,23.1S88.9,417.4,88.9,404.8z M173.6,202.6v188.8c0,7.4,5.9,13.4,13.4,13.4h97.2
		c0,25.6,20.8,46.3,46.3,46.3c25.6,0,46.3-20.8,46.3-46.3h32.7c7.4,0,13.4-5.9,13.4-13.4V202.6c0-7.4-5.9-13.4-13.4-13.4H187.2
		C179.7,189.2,173.8,195.1,173.6,202.6z M307.7,404.8c0-12.6,10.2-23.1,23.1-23.1c12.6,0,23.1,10.2,23.1,23.1
		c0,12.6-10.4,23.1-23.1,23.1C317.9,427.8,307.5,417.4,307.7,404.8z"/>
</g>
<g>
	<g>
		<path class="st0" d="M480.2,138.2h-217v80.3h35.4c9.7,0,17.6,7.9,17.6,17.6v37.2l0.1,0.1h153.7c5.6,0,10.1-4.5,10.1-10.1V138.2z"
			/>
		<path d="M464.6,65.1v5.8v6.8c0,10.4-8.5,18.9-18.9,18.9h-2.7c-10.4,0-18.9-8.5-18.9-18.9v-6.8v-5.8h-105v5.8v6.8
			c0,10.4-8.5,18.9-18.9,18.9h-2.7c-10.4,0-18.9-8.5-18.9-18.9v-6.8v-5.8h-5.5c-11.9,0-21.7,9.7-21.7,21.7v134.5
			c0,2.2,3.7,6.9,4.4,7.7l53,53.5c0.7,0.7,1.6,1.2,2.5,1.5c0.9,0.6,2,1,3.2,1h155.3c11.9,0,21.7-9.7,21.7-21.7V86.8
			c0-11.9-9.7-21.7-21.7-21.7H464.6L464.6,65.1z M480.2,138.2v125.1c0,5.6-4.5,10.1-10.1,10.1H316.4l-0.1-0.1v-37.2
			c0-9.7-7.9-17.6-17.6-17.6h-35.4v-80.3H480.2z"/>
		<path d="M443.1,87.9h2.7c5.6,0,10.2-4.6,10.2-10.2V50.2c0-5.6-4.6-10.2-10.2-10.2h-2.7c-5.6,0-10.2,4.6-10.2,10.2v27.6
			C432.9,83.4,437.4,87.9,443.1,87.9L443.1,87.9z"/>
		<path d="M297.7,87.9h2.7c5.6,0,10.2-4.6,10.2-10.2V50.2c0-5.6-4.6-10.2-10.2-10.2h-2.7c-5.6,0-10.2,4.6-10.2,10.2v27.6
			C287.5,83.4,292,87.9,297.7,87.9L297.7,87.9z"/>
	</g>
</g>
</svg>
