<?xml version="1.0" encoding="utf-8"?>
<!-- Generator: Adobe Illustrator 21.0.2, SVG Export Plug-In . SVG Version: 6.00 Build 0)  -->
<svg version="1.1" id="Layer_1" xmlns="http://www.w3.org/2000/svg" xmlns:xlink="http://www.w3.org/1999/xlink" x="0px" y="0px"
	 viewBox="0 0 500 500" style="enable-background:new 0 0 500 500;" xml:space="preserve">
<style type="text/css">
	.st0{fill:none;}
	.st1{fill:#FFFFFF;}
</style>
<g>
	<g>
		<path class="st0" d="M432,101.2H214.4v80.5h35.5c9.7,0,17.7,8,17.7,17.7v37.3l0.1,0.1h154.1c5.6,0,10.1-4.5,10.1-10.1V101.2z"/>
		<path d="M416.4,28v5.8v6.8c0,10.4-8.5,18.9-18.9,18.9h-2.7c-10.4,0-18.9-8.5-18.9-18.9v-6.8V28H270.6v5.8v6.8
			c0,10.4-8.5,18.9-18.9,18.9h-2.7c-10.4,0-18.9-8.5-18.9-18.9v-6.8V28h-5.5c-12,0-21.7,9.7-21.7,21.7v134.9c0,2.2,3.7,6.9,4.4,7.7
			l53.2,53.7c0.7,0.7,1.6,1.2,2.5,1.5c0.9,0.6,2,1,3.2,1h155.7c12,0,21.7-9.7,21.7-21.7v-177c0-12-9.7-21.7-21.7-21.7H416.4
			L416.4,28z M432,101.2v125.5c0,5.6-4.5,10.1-10.1,10.1H267.7l-0.1-0.1v-37.3c0-9.7-8-17.7-17.7-17.7h-35.5v-80.5H432z"/>
		<path d="M394.7,50.8h2.7c5.6,0,10.2-4.6,10.2-10.2V13c0-5.6-4.6-10.2-10.2-10.2h-2.7c-5.6,0-10.2,4.6-10.2,10.2v27.6
			C384.5,46.2,389.1,50.8,394.7,50.8L394.7,50.8z"/>
		<path d="M248.9,50.8h2.7c5.6,0,10.2-4.6,10.2-10.2V13c0-5.6-4.6-10.2-10.2-10.2h-2.7c-5.6,0-10.2,4.6-10.2,10.2v27.6
			C238.7,46.2,243.3,50.8,248.9,50.8L248.9,50.8z"/>
	</g>
</g>
<g>
	<path d="M291.3,409.1c11.8-1.8,21.5-7.3,29.2-16.2c7.8-8.9,11.7-19.5,11.7-31.8V183.5c0-13.2-4.7-24.4-14.1-33.8
		c-9.5-9.3-20.9-14-34.5-14H148.9c-13.7,0-25.2,4.7-34.5,14c-9.3,9.5-14.1,20.7-14.1,33.8v177.6c0,12.2,4,22.9,12,32.1
		c8,9.1,17.6,14.4,28.9,15.8L80,500h34.5l5.8-8.7h191.9l5.9,8.7h34.5L291.3,409.1z M268.8,365c-12.5,0-22.7-10.2-22.7-22.7
		c0-12.5,10.2-22.7,22.7-22.7c12.5,0,22.7,10.2,22.7,22.7C291.6,354.8,281.4,365,268.8,365z M129.9,244.9v-56.8
		c0-6.6,2.1-12,6.4-16.2c4.1-4.2,9.6-6.4,16.1-6.4H280c6.6,0,12.1,2.1,16.6,6.4s6.7,9.7,6.7,16.2v56.8c0,6.6-2.2,12-6.7,16.2
		s-10,6.3-16.6,6.3H152.4c-6.6,0-12-2.1-16.1-6.3C132,256.9,129.9,251.5,129.9,244.9z M141.1,342.2c0-12.5,10.2-22.7,22.7-22.7
		c12.5,0,22.7,10.2,22.7,22.7s-10.2,22.7-22.7,22.7C151.3,365,141.1,354.8,141.1,342.2z M140,461.9l15.9-23.9h120.4l16,23.9H140z"/>
	<path class="st1" d="M285.3,266.9H152.2c-11,0-20-9-20-20v-61.6c0-11,9-20,20-20h133.1c11,0,20,9,20,20v61.6
		C305.3,257.9,296.3,266.9,285.3,266.9z"/>
</g>
</svg>
