<svg xmlns="http://www.w3.org/2000/svg" viewBox="0 0 23.3 20"><defs><style>.cls-1{fill:none;stroke:#424143;stroke-linecap:round;stroke-linejoin:round;}</style></defs><title>Asset 1</title><g id="Layer_2" data-name="Layer 2"><g id="Layer_1-2" data-name="Layer 1"><circle class="cls-1" cx="4.2" cy="18.3" r="1.2"/><circle class="cls-1" cx="18.3" cy="18.3" r="1.2"/><line class="cls-1" x1="0.5" y1="17" x2="22.8" y2="17"/><polygon class="cls-1" points="2.2 10.4 2.2 17 18.7 9.6 22.8 9.6 22.8 3 17.9 3 2.2 10.4"/><polyline class="cls-1" points="0.5 8.8 17.9 0.5 22.8 0.5"/><line class="cls-1" x1="22" y1="3" x2="22" y2="0.5"/><line class="cls-1" x1="19.5" y1="3" x2="19.5" y2="0.5"/><line class="cls-1" x1="16.2" y1="1.3" x2="16.2" y2="3.8"/><line class="cls-1" x1="13.7" y1="2.5" x2="13.7" y2="4.9"/><line class="cls-1" x1="11.3" y1="3.7" x2="11.3" y2="6.1"/><line class="cls-1" x1="8.8" y1="4.8" x2="8.8" y2="7.3"/><line class="cls-1" x1="6.3" y1="6" x2="6.3" y2="8.5"/><line class="cls-1" x1="3.8" y1="7.2" x2="3.8" y2="9.6"/><polyline class="cls-1" points="19.5 9.6 22 11.7 19.5 13.3 22 15 19.1 17"/><polyline class="cls-1" points="22 9.6 19.5 11.7 22 13.3 19.5 15 22 17"/></g></g></svg>