<svg version="1.1" width="50.000000" height="50.000000" viewBox="0.000000 0.000000 50.000000 50.000000" xmlns="http://www.w3.org/2000/svg" xmlns:xlink="http://www.w3.org/1999/xlink" overflow="hidden"><g id="surface1"><path d=" M 25.000000 3.000000 C 23.906300 3.000000 23.000000 3.906250 23.000000 5.000000 C 23.000000 5.730470 23.406300 6.367190 24.000000 6.718750 L 24.000000 12.445300 L 16.714800 17.000000 L 9.648440 17.000000 L 10.046900 18.296900 L 14.261700 32.000000 L 17.382799 32.000000 L 18.550800 34.343800 C 18.867201 34.972698 19.382799 35.457001 20.000000 35.734402 L 20.000000 48.000000 L 30.000000 48.000000 L 30.000000 35.734402 C 30.617201 35.457001 31.128901 34.972698 31.449200 34.343800 L 32.617199 32.000000 L 35.738300 32.000000 L 40.355499 17.000000 L 33.285198 17.000000 L 26.000000 12.445300 L 26.000000 6.718750 C 26.593800 6.367190 27.000000 5.730470 27.000000 5.000000 C 27.000000 3.906250 26.093800 3.000000 25.000000 3.000000 Z M 12.355500 19.000000 L 24.000000 19.000000 L 24.000000 30.000000 L 15.738300 30.000000 Z M 26.000000 19.000000 L 37.644501 19.000000 L 34.261700 30.000000 L 26.000000 30.000000 Z"/></g></svg>