<?xml version="1.0" standalone="no"?>
<!DOCTYPE svg PUBLIC "-//W3C//DTD SVG 1.1//EN" "http://www.w3.org/Graphics/SVG/1.1/DTD/svg11.dtd">
<svg xmlns="http://www.w3.org/2000/svg">
<metadata>Copyright (C) 2018 by original authors @ fontello.com</metadata>
<defs>
<font id="haulplan-20174" horiz-adv-x="1000" >
<font-face font-family="haulplan-20174" font-weight="400" font-stretch="normal" units-per-em="1000" ascent="850" descent="-150" />
<missing-glyph horiz-adv-x="1000" />
<glyph glyph-name="split" unicode="&#xe800;" d="M915 731c-16 17-36 25-60 25h-710c-24 0-44-8-60-25s-25-36-25-60v-643c0-23 8-43 25-59 16-17 36-25 60-25h710c24 0 44 8 60 25 17 16 25 36 25 59v643c0 24-8 44-25 60z m-449-710h-311c-5 0-9 2-12 5-4 4-5 8-5 12v583h318v-600h10z m396 17c0-4-1-8-5-12-3-3-7-5-12-5h-301v600h318v-583l0 0z" horiz-adv-x="1000" />

<glyph glyph-name="dock" unicode="&#xe801;" d="M813 850h-500c-69 0-125-56-125-125h125 375c149 0 187-44 187-187v-375c0 0 0-57 0-125 69 0 125 56 125 125v500c0 127-62 187-187 187z m-7-188h-799c-4 0-7-3-7-6v-799c0-4 3-7 7-7h799c4 0 7 3 7 7v799c0 3-4 6-7 6z m-56-750h-687v563h687v-563z" horiz-adv-x="1000" />

<glyph glyph-name="icons-dot-circled" unicode="&#xe802;" d="M571 350q0-59-41-101t-101-42-101 42-42 101 42 101 101 42 101-42 41-101z m-142 304q-83 0-153-41t-110-111-41-152 41-152 110-111 153-41 152 41 110 111 41 152-41 152-110 111-152 41z m428-304q0-117-57-215t-156-156-215-58-216 58-155 156-58 215 58 215 155 156 216 58 215-58 156-156 57-215z" horiz-adv-x="857.1" />

<glyph glyph-name="icons-delete" unicode="&#xe803;" d="M693 627v-680a95 95 0 0 0-92-97h-448a95 95 0 0 0-92 97v680h632z m-479 226h326c17 0 31-65 31-65h-387s13 65 30 65z m-168-65h662a47 47 0 0 0 46-48v-49h-754v49a47 47 0 0 0 46 48z m647-161v-680a95 95 0 0 0-92-97h-448a95 95 0 0 0-92 97v680h632z m-479 226h326c17 0 31-65 31-65h-387s13 65 30 65z m-168-65h662a47 47 0 0 0 46-48v-49h-754v49a47 47 0 0 0 46 48z" horiz-adv-x="754" />

<glyph glyph-name="icons-autorenew" unicode="&#xe804;" d="M130 287h-130v-312l93 85a500 500 0 0 1 903 227h-126a375 375 0 0 0-684-142l154 142h-210z m370 563a500 500 0 0 1-496-438h126a375 375 0 0 0 690 133l-133-133h313v313l-90-90a499 499 0 0 1-410 215z" horiz-adv-x="1000" />

<glyph glyph-name="icons-cancel-circled" unicode="&#xe805;" d="M146 704a500 500 0 1 0 0-708 500 500 0 0 0 0 708z m425-354l150 151a50 50 0 0 1-70 70l-151-151-151 151a50 50 0 1 1-70-70l151-151-151-151a50 50 0 1 1 70-70l151 150 151-150a50 50 0 1 1 70 70z" horiz-adv-x="1000" />

<glyph glyph-name="icons-check-circle" unicode="&#xe806;" d="M496 850a501 501 0 1 0-502-501 501 501 0 0 0 502 501z m265-309l-28 27a29 29 0 0 1-41 0l-288-288-151 151a29 29 0 0 1-41 0l-27-27a29 29 0 0 1 0-41l198-199a29 29 0 0 1 41 0l337 336a29 29 0 0 1 0 41z" horiz-adv-x="997" />

<glyph glyph-name="icons-error" unicode="&#xe807;" d="M494 850a500 500 0 1 1 507-494 500 500 0 0 1-507 494z m7-688a63 63 0 1 0-63-62 63 63 0 0 0 63 62z m-63 124v313a63 63 0 0 0 126 0v-313a63 63 0 0 0-126 0z" horiz-adv-x="1001" />

<glyph glyph-name="icons-warning-1" unicode="&#xe808;" d="M67-150h934a67 67 0 0 1 57 33 66 66 0 0 1 2 65l-466 867a67 67 0 0 1-59 35h0a67 67 0 0 1-59-35l-468-867a67 67 0 0 1 2-65 68 68 0 0 1 57-33z m468 267a67 67 0 1 0-67-67 67 67 0 0 0 67 67z m-67 132v267a67 67 0 0 0 134 0v-267a67 67 0 0 0-134 0z" horiz-adv-x="1068" />

<glyph glyph-name="icons-create" unicode="&#xe809;" d="M621 676l205-205c-205-202-412-409-624-621h-202v207c210 210 414 417 621 619z m50 57l105 105a62 62 0 0 0 86 0l126-126a62 62 0 0 0 0-86l-104-105z" horiz-adv-x="998" />

<glyph glyph-name="network" unicode="&#xe80a;" d="M575 842c-58 0-105-47-105-104 0-42 23-76 58-94l-42-166c-15 5-30 7-47 7-37 0-71-13-98-34l-161 137c10 15 18 34 18 54 0 52-43 95-94 95s-94-44-94-95 43-94 94-94c16 0 32 4 45 12l165-138c-21-26-32-58-32-93 0-36 12-68 32-96l-108-108c-21 14-46 23-72 23-70 0-126-57-126-126s56-126 126-126 126 57 126 126c0 27-9 53-23 72l107 108c26-20 60-33 96-33 53 0 99 26 128 67l159-75c-1-8-2-15-2-23 0-65 52-116 115-116s116 52 116 116c0 64-52 115-116 115-41 0-77-22-98-55l-154 74c6 17 10 36 10 55 0 15-2 31-7 44l158 104c18-20 43-33 71-33 52 0 94 44 94 95s-43 94-94 94-94-43-94-94c0-9 1-17 3-24l-154-103c-12 20-29 36-47 49l43 173c2 0 5 0 8 0 58 0 105 47 105 105-5 71-58 103-109 105z" horiz-adv-x="962" />

<glyph glyph-name="icons-more-vert" unicode="&#xe80b;" d="M251-28a126 126 0 1 1-125-126 125 125 0 0 1 125 126z m0 377a126 126 0 1 1-125-126 125 125 0 0 1 125 126z m0 376a126 126 0 1 1-125-126 125 125 0 0 1 125 126z" horiz-adv-x="251" />

<glyph glyph-name="icons-replay" unicode="&#xe80c;" d="M856 701a502 502 0 0 1-160 107 491 491 0 0 1-195 39 489 489 0 0 1-308-106l-126 126v-347h347l-126 127a351 351 0 0 0 213 70 357 357 0 0 0 262-108 357 357 0 0 0 109-262 357 357 0 0 0-109-263 357 357 0 0 0-262-108 357 357 0 0 0-262 108 357 357 0 0 0-108 262h-131a491 491 0 0 1 40-194 493 493 0 0 1 266-267 500 500 0 0 1 390 0 493 493 0 0 1 266 267 500 500 0 0 1 0 389 502 502 0 0 1-106 160z" horiz-adv-x="996" />

<glyph glyph-name="icons-cancel" unicode="&#xe80d;" d="M497-167a508 508 0 1 1-509 509 508 508 0 0 1 509-509z m0 117a389 389 0 0 0-231 76l546 546a391 391 0 0 0-315-622z m0 783a389 389 0 0 0 232-77l-546-547a391 391 0 0 0 314 624z" horiz-adv-x="1003" />

<glyph glyph-name="icons-about" unicode="&#xe80e;" d="M495-150a501 501 0 1 0 508 494 501 501 0 0 0-508-494z m7 689a63 63 0 1 1-63 63 63 63 0 0 1 63-63z m-63-125v-313a63 63 0 0 1 126 0v313a63 63 0 0 1-126 0z" horiz-adv-x="998" />

<glyph glyph-name="icons-copy" unicode="&#xe80f;" d="M782-150h-618a20 20 0 0 0-21 20v816a20 20 0 0 0 21 20h618a20 20 0 0 0 20-20v-816a20 20 0 0 0-20-20z m-56 776h-506v-696h506v696z m-648-513h-78v669a69 69 0 0 0 68 69h536v-79h-526v-659z" horiz-adv-x="802" />

<glyph glyph-name="icons-save" unicode="&#xe810;" d="M497-150q-189 0-378 0c-83 0-126 44-127 128q0 376 0 752c0 83 44 127 127 127 209 0 417 1 626-1a82 82 0 0 0 51-20c63-61 125-123 186-185a67 67 0 0 0 17-43q2-319 1-639a111 111 0 0 0-119-119c-128 0-256 0-384 0z m164 672v221h-554v-221h554z m3-307a168 168 0 1 1-165-169 168 168 0 0 1 165 169z" horiz-adv-x="1000" />

<glyph glyph-name="icons-add-circled" unicode="&#xe811;" d="M500 850a500 500 0 1 0-500-500 500 500 0 0 0 500 500z m50-550h213a50 50 0 0 1 0 100h-213v213a50 50 0 0 1-100 0v-213h-213a50 50 0 1 1 0-100h213v-213a50 50 0 1 1 100 0v213z" horiz-adv-x="1000" />

<glyph glyph-name="share" unicode="&#xe813;" d="M650 200q62 0 106-43t44-107q0-62-44-106t-106-44-106 44-44 106q0 6 1 14t1 12l-260 156q-42-32-92-32-62 0-106 44t-44 106 44 106 106 44q54 0 92-30l260 156q0 4-1 12t-1 12q0 62 44 106t106 44 106-43 44-107q0-62-44-106t-106-44q-52 0-90 32l-262-156q2-8 2-26 0-16-2-24l262-156q36 30 90 30z" horiz-adv-x="800" />

<glyph glyph-name="chart-bar" unicode="&#xe814;" d="M357 350v-286h-143v286h143z m214 286v-572h-142v572h142z m572-643v-72h-1143v858h71v-786h1072z m-357 500v-429h-143v429h143z m214 214v-643h-143v643h143z" horiz-adv-x="1142.9" />

<glyph glyph-name="chart-area" unicode="&#xe815;" d="M1143-7v-72h-1143v858h71v-786h1072z m-214 571l142-500h-928v322l250 321 321-321z" horiz-adv-x="1142.9" />

<glyph glyph-name="chart-line" unicode="&#xe817;" d="M1143-7v-72h-1143v858h71v-786h1072z m-72 696v-242q0-12-10-17t-20 4l-68 68-353-353q-6-6-13-6t-13 6l-130 130-232-233-107 108 326 326q6 6 13 6t13-6l130-130 259 259-67 67q-9 9-5 20t17 11h243q7 0 12-5t5-13z" horiz-adv-x="1142.9" />

<glyph glyph-name="sitemap" unicode="&#xe818;" d="M1000 154v-179q0-22-16-38t-38-16h-178q-22 0-38 16t-16 38v179q0 22 16 38t38 15h53v107h-285v-107h53q23 0 38-15t16-38v-179q0-22-16-38t-38-16h-178q-23 0-38 16t-16 38v179q0 22 16 38t38 15h53v107h-285v-107h53q22 0 38-15t16-38v-179q0-22-16-38t-38-16h-178q-23 0-38 16t-16 38v179q0 22 16 38t38 15h53v107q0 29 21 51t51 21h285v107h-53q-23 0-38 15t-16 38v179q0 22 16 38t38 16h178q23 0 38-16t16-38v-179q0-22-16-38t-38-15h-53v-107h285q29 0 51-21t21-51v-107h53q23 0 38-15t16-38z" horiz-adv-x="1000" />

<glyph glyph-name="graduation-cap" unicode="&#xe819;" d="M990 383l10-176q2-38-46-71t-131-52-180-20-180 20-131 52-46 71l10 176 320-101q12-3 27-3t27 3z m296 181q0-13-13-17l-625-196q-2-1-5-1t-6 1l-364 115q-24-19-39-63t-19-99q35-20 35-61 0-39-32-60l32-241q1-8-4-14-5-7-14-7h-107q-8 0-13 7-6 6-5 14l33 241q-33 21-33 60 0 41 36 62 7 115 55 184l-186 58q-12 4-12 17t12 18l625 196q3 1 6 1t5-1l625-196q13-5 13-18z" horiz-adv-x="1285.7" />

<glyph glyph-name="layout" unicode="&#xe81a;" d="M170 650q80 0 80-80l0-90q0-80-80-80l-90 0q-80 0-80 80l0 90q0 80 80 80l90 0z m350 0q80 0 80-80l0-90q0-80-80-80l-90 0q-80 0-80 80l0 90q0 80 80 80l90 0z m-350-350q80 0 80-80l0-90q0-80-80-80l-90 0q-80 0-80 80l0 90q0 80 80 80l90 0z m350 0q80 0 80-80l0-90q0-80-80-80l-90 0q-80 0-80 80l0 90q0 80 80 80l90 0z" horiz-adv-x="600" />

<glyph glyph-name="import" unicode="&#xe81b;" d="M830 225v-251h-702v251h-128v-308a67 67 0 0 1 67-67h825a67 67 0 0 1 66 67v308h-128z m-383 625l-255-313h191v-375h192v375h192l-256 313h-64z" horiz-adv-x="958" />

<glyph glyph-name="summary" unicode="&#xe81c;" d="M794-55l-69-89-75 81-73-87-74 85-71-82-70 91-72-88-75 84-65-85-75 82-75-73v976l66-83 69 89 75-81 71 85 74-85 73 84 70-91 72 88 75-84 65 85 75-82 75 73v-976z m-79 649h-571v-94h571v94z m0-196h-571v-94h571v94z m0-195h-571v-94h571v94z" horiz-adv-x="860" />

<glyph glyph-name="report" unicode="&#xe81d;" d="M808-150c-116 0-232 0-347 0s-232 0-348 0c-72 0-113 40-113 110q0 341 0 681c0 69 42 109 111 109 61 0 121-1 182 1a43 43 0 0 1 30 18 155 155 0 0 0 272 0 43 43 0 0 1 31-18c61-2 123 0 185-1a101 101 0 0 0 107-106q1-344 0-687c0-66-42-107-110-107z m-349 900a51 51 0 0 1-51-49 51 51 0 0 1 102 0 51 51 0 0 1-51 49z m233-230l-337-330-124 126-68-63 193-190 401 392z" horiz-adv-x="918" />

<glyph glyph-name="icons-user" unicode="&#xe81e;" d="M500 850a500 500 0 1 1 500-500 500 500 0 0 1-500 500z m0-150a165 165 0 1 0-165-165 165 165 0 0 0 165 165z m0-782a367 367 0 0 0-239 89c-16 13-74 72-74 93 0 93 124 189 217 189h192c93 0 216-96 216-189 0-21-58-80-73-93a367 367 0 0 0-239-89z" horiz-adv-x="1000" />

<glyph glyph-name="icons-admin" unicode="&#xe81f;" d="M505 850a507 507 0 1 1 507-507 507 507 0 0 1-507 507z m0-152a168 168 0 1 0-168-167 168 168 0 0 0 168 167z m0-792a372 372 0 0 0-242 89c-16 13-75 74-75 95 0 94 126 192 220 192h195c93 0 219-98 219-192 0-21-59-81-75-95a372 372 0 0 0-242-89z m0 374l-63-254 63-63 63 63z" horiz-adv-x="1002" />

<glyph glyph-name="expand" unicode="&#xe820;" d="M500-150a500 500 0 1 0 500 500 500 500 0 0 0-500-500z m-144 774v-548l412 274z" horiz-adv-x="1000" />

<glyph glyph-name="collapse" unicode="&#xe821;" d="M500-150a500 500 0 1 1-500 500 500 500 0 0 1 500-500z m144 774v-548l-412 274z" horiz-adv-x="1000" />

<glyph glyph-name="icons-reorder" unicode="&#xe822;" d="M910 290h-820c-17 0-30 13-30 30v60c0 17 13 30 30 30h820c17 0 30-13 30-30v-60c0-17-13-30-30-30z m0-240h-820c-17 0-30 13-30 30v60c0 17 13 30 30 30h820c17 0 30-13 30-30v-60c0-17-13-30-30-30z m0 480h-820c-17 0-30 13-30 30v60c0 17 13 30 30 30h820c17 0 30-13 30-30v-60c0-17-13-30-30-30z" horiz-adv-x="1000" />

<glyph glyph-name="current-scenario" unicode="&#xe823;" d="M900 345l-250 251 24-179h-430v164c0 13-11 24-24 24h-96c-13 0-24-11-24-24v-188-5-91c0-13 11-24 24-24h550l-24-178 250 250z" horiz-adv-x="1000" />

<glyph glyph-name="key" unicode="&#xe824;" d="M965 422h-444c-32 109-132 188-250 188-144 0-260-116-260-260s116-260 260-260c118 0 218 79 250 188h236v-164c0-13 11-24 24-24h96c13 0 24 11 24 24v164h64c13 0 24 11 24 24v96c0 13-10 24-24 24z m-694-188c-64 0-116 52-116 116s52 116 116 116 116-52 116-116-52-116-116-116z" horiz-adv-x="1000" />

<glyph glyph-name="icons-add" unicode="&#xe825;" d="M876 420h-306v306c0 13-11 24-24 24h-92c-13 0-24-11-24-24v-306h-306c-13 0-24-11-24-24v-92c0-13 11-24 24-24h306v-306c0-13 11-24 24-24h92c13 0 24 11 24 24v306h306c13 0 24 11 24 24v92c0 13-11 24-24 24z" horiz-adv-x="1000" />

<glyph glyph-name="icons-check" unicode="&#xe826;" d="M898 578l-57 57c-12 11-30 11-42-1l-392-392-206 207c-12 12-31 12-42 0l-57-57c-12-12-12-31 0-42l227-227 57-57c12-12 31-12 43 0l56 56 413 413c12 12 11 31 0 43z" horiz-adv-x="1000" />

<glyph glyph-name="optimization-mode" unicode="&#xe827;" d="M976 677l-354 0 140-108-232-232-116 116c-1 1-2 2-3 3l-11 10c-9 10-25 10-34 0l-335-334c-9-10-9-25 0-34l68-68c9-10 25-10 34 0l250 250 62-62 4-4 64-64c10-9 25-9 34 0l318 318 111-146 0 355z" horiz-adv-x="1000" />

<glyph glyph-name="icons-close" unicode="&#xe828;" d="M602 350l281 281c12 12 12 31 0 43l-59 59c-12 12-31 12-43 0l-281-281-281 281c-12 12-31 12-43 0l-59-59c-12-12-12-31 0-43l281-281-281-281c-12-12-12-31 0-43l59-59c12-12 31-12 43 0l281 281 281-281c12-12 31-12 43 0l59 59c12 12 12 31 0 43l-281 281z" horiz-adv-x="1000" />

<glyph glyph-name="icons-filter" unicode="&#xe829;" d="M912 731c-6 12-17 19-30 19h-764c-13 0-25-7-30-19-5-12-4-25 5-35l299-358v-361c0-19 12-27 31-27l151 112c0 0 33 21 33 39v237l300 358c9 10 10 23 5 35l0 0z m0 0" horiz-adv-x="1000" />

<glyph glyph-name="icones-sorting-down" unicode="&#xe82a;" d="M235 231l-235 236h471z" horiz-adv-x="471" />

<glyph glyph-name="icones-sorting-up" unicode="&#xe82b;" d="M471 231h-471l235 236z" horiz-adv-x="471" />

<glyph glyph-name="icons-grid" unicode="&#xe82c;" d="M286 82v107q0 8-5 13t-13 5h-179q-7 0-13-5t-5-13v-107q0-8 5-13t13-5h179q8 0 13 5t5 13z m0 214v108q0 7-5 12t-13 5h-179q-7 0-13-5t-5-12v-108q0-7 5-12t13-5h179q8 0 13 5t5 12z m285-214v107q0 8-5 13t-12 5h-179q-8 0-13-5t-5-13v-107q0-8 5-13t13-5h179q7 0 12 5t5 13z m-285 429v107q0 8-5 13t-13 5h-179q-7 0-13-5t-5-13v-107q0-8 5-13t13-5h179q8 0 13 5t5 13z m285-215v108q0 7-5 12t-12 5h-179q-8 0-13-5t-5-12v-108q0-7 5-12t13-5h179q7 0 12 5t5 12z m286-214v107q0 8-5 13t-13 5h-178q-8 0-13-5t-5-13v-107q0-8 5-13t13-5h178q8 0 13 5t5 13z m-286 429v107q0 8-5 13t-12 5h-179q-8 0-13-5t-5-13v-107q0-8 5-13t13-5h179q7 0 12 5t5 13z m286-215v108q0 7-5 12t-13 5h-178q-8 0-13-5t-5-12v-108q0-7 5-12t13-5h178q8 0 13 5t5 12z m0 215v107q0 8-5 13t-13 5h-178q-8 0-13-5t-5-13v-107q0-8 5-13t13-5h178q8 0 13 5t5 13z m72 178v-607q0-37-27-63t-63-26h-750q-36 0-63 26t-26 63v607q0 37 26 63t63 27h750q37 0 63-27t27-63z" horiz-adv-x="928.6" />

<glyph glyph-name="add-tweak" unicode="&#xe82d;" d="M835 461h-116v-160h-160v-116h160v-159h116v159h159v116h-159v160l0 0z m-638 304h406v-116h-406v116z m0-232h406v-116h-406v116z m0-232h246v-116h-246v116z m-191 464h117v-116h-117v116z m0-232h117v-116h-117v116z m0-232h117v-116h-117v116z" horiz-adv-x="1000" />

<glyph glyph-name="delete" unicode="&#xe82e;" d="M185-31c0-60 47-109 105-109h420c58 0 105 49 105 109v653h-630v-653z m649 817h-150l-53 54h-249c-8 0-17-4-23-10l-43-44h-150c-18 0-33-16-33-35v-74h735v74c0 19-16 35-34 35z" horiz-adv-x="1000" />

<glyph glyph-name="scenario" unicode="&#xe830;" d="M-1 458l501 393 501-393-501-392z m0-216l59 70 442-334 441 335 60-71-501-392z" horiz-adv-x="1000" />

<glyph glyph-name="icons-arrow-forward" unicode="&#xe831;" d="M951 372l-311 311c-12 12-32 12-44 0l-62-62c-12-12-12-32 0-45l151-151h-614c-17 0-31-14-31-31v-88c0-17 14-31 31-31h614l-151-152c-12-12-12-32 0-44l62-62c12-12 32-12 44 0l311 310c6 7 9 15 9 23 0 8-3 16-9 22z" horiz-adv-x="1000" />

<glyph glyph-name="lock" unicode="&#xe832;" d="M713-150h-669a44 44 0 0 0-44 44v516a44 44 0 0 0 44 43h73v135a262 262 0 0 0 524 0v-135h72a44 44 0 0 0 44-43v-516a44 44 0 0 0-44-44z m-329 237a98 98 0 1 1-98 97 98 98 0 0 1 98-97z m169 501a175 175 0 1 1-349 0v-135h349v135z" horiz-adv-x="757" />

<glyph glyph-name="unlock" unicode="&#xe833;" d="M716-150h-672a44 44 0 0 0-44 44v510a44 44 0 0 0 44 44h73v139a263 263 0 0 0 263 263c145 0 256-90 263-189a43 43 0 0 0-44-44 46 46 0 0 0-44 44c-7 51-78 102-175 102a175 175 0 0 1-175-176v-139h511a44 44 0 0 0 44-44v-510a44 44 0 0 0-44-44z m-332 406a98 98 0 1 1 97-98 98 98 0 0 1-97 98z" horiz-adv-x="759" />

<glyph glyph-name="add-scenario" unicode="&#xe834;" d="M572 782c0 0-197 0-327 0-62 0-109-46-109-109 0-166 0-484 0-654 0-65 43-109 109-109 133 0 358 0 491 0 66 0 109 45 109 109 0 159 0 436 0 436h-273v327z m55-436v-54h-109v-109h-54v109h-109v54h109v109h54v-109h109z m0 436v-272h218l-218 272z" horiz-adv-x="1000" />

<glyph glyph-name="archive" unicode="&#xe835;" d="M869 777h-739c-47 0-85-38-85-86v-682c0-47 38-86 85-86h740c47 0 85 39 85 86v683c0 47-38 85-86 85z m8-774h-755v695h755l0-695 0 0z m-669 604v-226h584v226h-584z m538-180h-492v134h492v-134z m-538-108v-226h584v226h-584z m538-180h-492v134h492v-134z" horiz-adv-x="1000" />

<glyph glyph-name="open" unicode="&#xe836;" d="M500 500c-83 0-150-67-150-150 0-83 67-150 150-150 83 0 151 67 151 150s-68 150-151 150z m497-138c-8 11-199 290-497 290-266 0-487-278-496-289-5-6-5-14-1-20 8-12 205-295 479-295 6 0 13 0 19 1 300 15 488 282 496 294 4 6 4 13 0 19z m-497-234c-122 0-222 100-222 222 0 122 100 222 222 222 122 0 222-100 222-222 0-122-100-222-222-222z" horiz-adv-x="1000" />

<glyph glyph-name="move" unicode="&#xe837;" d="M863-12h-330v67c56 0 235 0 334 0 40 0 67 26 67 67 0 143 0 467 0 467h-436l-7 0c-67 6-108 50-127 94-18 44-51 39-51 39s-109 0-182 0c-37 0-64-32-64-65 0-34 0-69 0-69s0-258 0-467c0-40 26-66 66-66 99 0 345 0 400 0v-67h-395c-75 0-138 80-138 133v534c0 64 57 133 138 133h183c39 0 85-19 106-67 0 0 9-61 71-66h431c39 0 71-29 71-66v-468c0-53-63-133-137-133z m-193 319l-167-139c-7-6-16 2-16 14v59h-141c-11 0-22 14-22 31v99c0 17 11 33 22 33h141v57c0 12 9 20 16 14l167-139c8-6 8-23 0-29z" horiz-adv-x="1000" />

<glyph glyph-name="open-folder" unicode="&#xe838;" d="M993 392c-7 15-19 26-33 34-15 8-32 12-50 12l-85 0v113c0 30-26 53-58 53h-353c-51 5-58 55-58 55-17 39-54 54-87 54h-150c-66 0-112-57-112-109v-508c0-1 0-2 0-3l0 0c0-29 12-54 33-74 22-21 49-32 79-32 0 0 0 0 1 0h0 323 243 5c23 0 47 5 72 17 25 11 45 25 59 43l155 255c15 19 23 38 23 58 0 11-2 22-7 32z m-932 158c0 0 0 28 0 56 0 27 23 53 53 53 60 0 149 0 149 0s27 4 42-32c15-36 49-72 103-77l6 0h356c0 0 0-23 0-112l-432 0c-23 0-47-6-71-17-25-12-45-26-60-43l-134-232-12-9c0 161 0 413 0 413z m871-213l-155-255c-9-11-22-21-39-28-16-8-32-12-47-12h-572c-26 0-32 12-32 23 0 6 3 14 10 23l155 256c10 11 23 20 39 27 17 8 33 12 47 12h572c27 0 32-13 32-23 0-7-3-15-10-23z" horiz-adv-x="1000" />

<glyph glyph-name="add-folder" unicode="&#xe839;" d="M934 597h-403c-58 5-66 62-66 62-20 45-62 62-99 62h-171c-75 0-128-65-128-124v-293c-39-48-63-108-63-174 0-155 126-280 280-280 97 0 183 49 233 124h354c70 0 129 75 129 125v437c0 34-30 61-66 61z m-494-498h-125v-124h-62v124h-124v62h124v125h62v-125h125v-62z m498 0c0-38-25-62-62-62-111 0-329 0-329 0 11 29 17 60 17 93 0 155-125 280-280 280-57 0-111-17-155-47v172c0 0 0 32 0 64 0 30 26 60 60 60 68 0 170 0 170 0s30 5 47-36c18-42 57-82 119-88l6 0h407c0 0 0-303 0-436z" horiz-adv-x="1000" />

<glyph glyph-name="folder" unicode="&#xe83a;" d="M863-40h-330v67c56 0 235 0 334 0 40 0 67 26 67 67 0 143 0 467 0 467h-436l-7 0c-67 6-108 50-127 94-18 44-51 39-51 39s-109 0-182 0c-37 0-64-32-64-65 0-34 0-69 0-69s0-258 0-467c0-40 26-66 66-66 99 0 345 0 400 0v-67h-395c-75 0-138 80-138 133v534c0 64 57 133 138 133h183c39 0 85-19 106-67 0 0 9-61 71-66h431c39 0 71-29 71-66v-468c0-53-63-133-137-133z" horiz-adv-x="1000" />

<glyph glyph-name="favorite" unicode="&#xe83b;" d="M500-114l-65 71c-241 232-399 388-399 580 0 156 111 277 255 277 79 0 158-50 209-116 51 66 130 116 209 116 143 0 255-121 255-277 0-192-158-348-400-580l-64-71z" horiz-adv-x="1000" />

<glyph glyph-name="tutorials" unicode="&#xe83c;" d="M219 400c0 16-13 29-29 29h-145c-16 0-29-13-29-29 0-16 13-29 29-29h145c16 0 29 13 29 29z m194-311c-12 0-21-10-21-22 0-12 10-22 22-22h173c12 0 22 10 22 22 0 12-9 22-20 22 13 125 128 152 128 299 0 128-91 232-216 232s-221-104-221-232c0-147 119-174 133-299z m43 481c10 4 20-1 24-11 4-10-1-22-10-26-51-22-90-70-104-128-2-8-9-14-17-14-2 0-3 0-5 0-10 3-16 14-13 24 17 70 64 128 125 155z m-197 28c6-6 14-8 22-8 7 0 15 3 21 8 12 12 12 31 0 43l-86 86c-11 12-31 12-42 0-12-12-12-31 0-43l85-86z m462-8c8 0 15 3 21 8l86 86c12 12 12 31 0 43-12 12-31 12-43 0l-85-86c-12-12-12-31 0-43 5-6 13-8 21-8z m-220 83c16 0 29 13 29 29v117c0 17-13 30-29 30-16 0-29-14-29-30v-117c0-16 13-29 29-29z m260-491c-12 12-31 12-43 0s-12-31 0-42l86-86c6-6 13-9 21-9 8 0 15 3 21 9 12 12 12 31 0 43l-85 85z m196 247h-147c-16 0-29-13-29-29 0-16 13-29 29-29h147c16 0 29 13 29 29 0 16-13 29-29 29z m-716-247l-86-85c-12-12-12-31 0-43 6-6 14-9 22-9 7 0 15 3 21 9l86 86c11 11 11 31 0 42-12 12-31 12-43 0z m348-238h-177c-14 0-25-15-21-31 3-10 13-16 22-16h1c12 0 24-8 30-20l0 0c8-17 23-27 41-27h32c17 0 33 11 40 27l1 0c5 12 17 20 30 20h0c10 0 19 6 22 16 5 16-6 31-21 31z m0 73h-177c-12 0-22-10-22-23 0-13 10-24 22-24h177c12 0 22 11 22 24 0 13-10 23-22 23z" horiz-adv-x="1000" />

<glyph glyph-name="release-notes" unicode="&#xe83d;" d="M970 678h-108v101c0 16-13 30-30 30h-802c-16 0-30-14-30-30v-789c0-54 44-99 99-99h802c55 0 99 45 99 99v658c0 16-13 30-30 30z m-910 70h742v-100-658c0-14 3-27 8-38h-711c-21 0-39 17-39 38v758z m841-796c-21 0-39 17-39 38v628h78v-628c0-21-18-38-39-38z m-771 467h602c17 0 30 14 30 30v202c0 17-13 30-30 30h-602c-16 0-30-13-30-30v-202c0-16 14-30 30-30z m31 202h541v-141h-541v141z m-31-598h263c17 0 30 13 30 30v263c0 16-13 30-30 30h-263c-16 0-30-14-30-30v-263c0-17 14-30 30-30z m31 262h202v-202h-202v202z m571 61h-254c-17 0-30-14-30-30 0-17 13-31 30-31h254c17 0 30 14 30 31 0 16-13 30-30 30z m0-263h-254c-17 0-30-14-30-30 0-17 13-30 30-30h254c17 0 30 13 30 30 0 16-13 30-30 30z m0 131h-254c-17 0-30-13-30-30 0-16 13-30 30-30h254c17 0 30 14 30 30 0 17-13 30-30 30z" horiz-adv-x="1000" />

<glyph glyph-name="engine" unicode="&#xe83e;" d="M250 194c0-17 14-31 31-31 18 0 32 14 32 31 0 17-14 31-32 31-17 0-31-14-31-31l0 0z m188 250c0-17 14-31 31-31 17 0 31 14 31 31 0 17-14 31-31 31-17 0-31-14-31-31l0 0z m250-188c0-17 14-31 31-31 17 0 31 14 31 31 0 18-14 32-31 32-17 0-31-14-31-32l0 0z m187 375c0-17 14-31 31-31 18 0 32 14 32 31 0 18-14 32-32 32-17 0-31-14-31-32l0 0z m-687-437c0 52 42 94 93 94 10 0 19-2 28-5l82 109c-10 15-16 33-16 52 0 52 42 94 94 94 52 0 94-42 94-94 0-10-2-19-5-28l109-82c15 10 33 16 52 16 4 0 7-1 11-1l109 217c-16 17-26 40-26 65 0 52 42 94 93 94 52 0 94-42 94-94 0-51-42-93-94-93-4 0-7 0-11 1l-109-218c16-17 27-39 27-65 0-51-42-93-94-93-52 0-94 42-94 93 0 10 2 19 5 28l-109 82c-15-10-33-16-52-16-10 0-19 2-28 5l-82-109c10-15 16-33 16-52 0-52-42-94-94-94-51 0-93 42-93 94l0 0z m-125-282l937 0 0-62-1000 0 0 1000 63 0 0-187 62 0 0-63-62 0 0-125 62 0 0-62-62 0 0-125 62 0 0-63-62 0 0-125 62 0 0-62-62 0 0-126z" horiz-adv-x="1000" />

<glyph glyph-name="empty-scenario" unicode="&#xe83f;" d="M418 768v-293-82h82 230v-418c0-29-13-43-43-43h-562c-10 0-25 2-33 10-9 9-10 25-10 33v750c0 27 16 43 43 43h293m144 82v-312h250l-250 312 0 0z m-62 0h-375c-72 0-125-53-125-125v-750c0-75 49-125 125-125h562c77 0 125 52 125 125v500h-312v375l0 0z" horiz-adv-x="814" />

<glyph glyph-name="engine-running" unicode="&#xe840;" d="M855 9c-189-190-520-172-705 13-190 190-200 494-28 695 11 13 21 26 35 34 36 23 85 18 117-13 30-31 35-76 16-112-5-9-9-15-16-22-140-151-145-379-8-516 153-153 407-121 542 34 106 122 142 297 77 451-83 198-305 291-510 222l0 1c236 82 492-24 588-252 71-167 37-355-72-493-11-15-23-29-36-42z" horiz-adv-x="1000" />

<glyph glyph-name="open-scenario" unicode="&#xe841;" d="M943 797h-200c-105 0-194-49-243-96-50 47-138 96-243 96h-200c-31 0-57-26-57-57v-676c0-32 26-57 57-57h200c76 0 159-51 189-82 13-14 32-22 51-22h6c20 0 38 8 51 22 30 31 113 82 189 82h200c32 0 57 25 57 57v676c0 31-26 57-57 57z m-486-770c-51 30-120 65-200 65h-171v619h171c122 0 200-68 200-103l0-581 0 0z m457 65h-171c-80 0-149-35-200-65v581c0 35 78 103 200 103h171l0-619 0 0z" horiz-adv-x="1000" />

<glyph glyph-name="icons-help" unicode="&#xe842;" d="M493 850a500 500 0 1 1 507-493 500 500 0 0 1-507 493z m-1-804l-3 0a73 73 0 0 0 2 145l2 0a73 73 0 1 0-1-145z m179 355a331 331 0 0 0-60-54l-31-21a83 83 0 0 1-30-37 77 77 0 0 1-5-31l0-5h-116l0 9c1 41 2 65 19 84a496 496 0 0 0 87 70 92 92 0 0 1 21 21 74 74 0 0 1 17 44 84 84 0 0 1-16 49 67 67 0 0 1-57 22 63 63 0 0 1-59-27 108 108 0 0 1-17-58v-5h-120l0 5c3 74 29 127 78 158a206 206 0 0 0 113 29 244 244 0 0 0 146-42 146 146 0 0 0 59-125 144 144 0 0 0-29-86z" horiz-adv-x="1000" />

<glyph glyph-name="icons-warning" unicode="&#xe843;" d="M262 844a20 20 0 0 1-14 6h-228a20 20 0 0 1-14-6 21 21 0 0 1-6-15l17-630a21 21 0 0 1 20-20h194a21 21 0 0 1 20 20l17 630a21 21 0 0 1-6 15z m-32-771h-192a21 21 0 0 1-21-21v-181a21 21 0 0 1 21-21h192a21 21 0 0 1 21 21v181a21 21 0 0 1-21 21z" horiz-adv-x="268" />

<glyph glyph-name="icons-right" unicode="&#xe844;" d="M245 702c0 0 0 0 0 0-3-3-5-7-5-12v-680c0-4 1-7 3-10 1-1 1-1 1-1l2-2c2-2 4-3 6-4 0-1-1-1-1-1l3 0c6-1 11 1 15 6l486 340c6 7 7 18 1 25l-486 340c-4 4-9 5-15 5l-5 0c0 0 1-1 2-1-3-1-5-3-7-5z" horiz-adv-x="1000" />

<glyph glyph-name="undock" unicode="&#xe845;" d="M312-25c-143 0-187 38-187 187v376 125c-69 0-125-56-125-125v-500c0-126 60-188 188-188h500c69 0 125 56 125 125-69 0-125 0-125 0h-376z m679 875h-795c-5 0-9-4-9-9v-795c0-5 4-9 9-9h795c5 0 9 4 9 9v795c0 5-4 9-9 9z m-53-750h-688v562h687v-562z" horiz-adv-x="1000" />

<glyph glyph-name="private-scenario" unicode="&#xe846;" d="M451 732c106 0 192-85 192-191s-86-191-192-191-191 86-191 191 86 191 191 191z m26-432c-9 1-17 1-26 1-134 0-254-63-331-162-63 79-98 183-89 294 16 206 182 371 388 386 247 19 454-177 454-420 0-8 0-16-1-24 0-4 2-7 5-8l0 0c5-3 12 1 12 7 0 8 1 17 1 25 0 247-206 447-456 439-228-9-413-194-422-422-9-251 191-456 439-456h1c18 0 28 17 22 33-15 35-23 73-23 113 0 58 17 111 45 156 11 16-1 36-19 38z m267-76c-27 0-50-22-50-50v-39h100v39c0 28-23 50-50 50z m-26-165c0-15 12-28 28-28s28 13 28 28c0 16-13 28-28 28s-28-12-28-28z m270 47c0-135-109-244-244-244s-244 109-244 244 109 244 244 244 244-109 244-244z m-136 17c0 6-5 12-12 12h-21v39c0 42-34 75-75 75-42 0-75-34-75-75v-39h-20c-7 0-13-6-13-12v-148c0-7 6-12 13-12h191c7 0 12 5 12 12l0 148z" horiz-adv-x="1000" />

<glyph glyph-name="active-state" unicode="&#xe847;" d="M785 240v-255h-709v709h578l81 67h-725v-842h842v387l-67-66z m-474 314l-168-168 316-316 533 534-122 123-408-339-151 166z" horiz-adv-x="1000" />

<glyph glyph-name="icons-first-page" unicode="&#xe848;" d="M258-10h-124c-17 0-30 13-30 30v660c0 17 13 30 30 30h124c17 0 30-13 30-30v-660c0-17-13-30-30-30z m619 8c0 0 0 0 0 0 3 3 5 7 5 12v680c0 4-1 7-3 10-1 1-1 1-1 1l-2 2c-2 2-4 3-6 4 0 1 1 1 1 1l-3 0c-6 1-11-1-15-6l-486-340c-6-7-7-18-1-25l486-340c4-4 9-5 15-5l5 0c0 0-1 1-2 1 3 1 5 3 7 5z" horiz-adv-x="1000" />

<glyph glyph-name="picons-revious" unicode="&#xe849;" d="M755-2c0 0 0 0 0 0 3 3 5 7 5 12v680c0 4-1 7-3 10-1 1-1 1-1 1l-2 2c-2 2-4 3-6 4 0 1 1 1 1 1l-3 0c-6 1-11-1-15-6l-486-340c-6-7-7-18-1-25l486-340c4-4 9-5 15-5l5 0c0 0-1 1-2 1 3 1 5 3 7 5z" horiz-adv-x="1000" />

<glyph glyph-name="icons-last-page" unicode="&#xe84a;" d="M736 710h124c17 0 30-13 30-30v-660c0-17-13-30-30-30h-124c-17 0-30 13-30 30v660c0 17 13 30 30 30z m-619-8c0 0 0 0 0 0-3-3-5-7-5-12v-680c0-4 1-7 3-10 1-1 1-1 1-1l2-2c2-2 4-3 6-4 0-1-1-1-1-1l3 0c6-1 11 1 15 6l486 340c6 7 7 18 1 25l-486 340c-4 4-9 5-15 5l-5 0c0 0 1-1 2-1-3-1-5-3-7-5z" horiz-adv-x="1000" />

<glyph glyph-name="map" unicode="&#xe84b;" d="M533 848v1h-33-33v-1c-250-17-449-216-466-466h-1v-33-33h1c17-250 216-449 466-466v-1h33 33v1c250 17 449 216 466 466h1v33 33h-1c-17 250-216 449-466 466z m-220-108c-32-43-59-96-78-158h-100c43 68 105 123 178 158z m-213-224h117c-9-43-15-87-16-134h-133c3 47 15 92 32 134z m-32-200h133c2-47 7-92 16-134h-117c-17 42-29 87-32 134z m67-200h100c19-62 46-115 78-158-73 35-135 90-178 158z m332-196c-69 18-128 92-164 196h164v-196z m0 262h-182c-10 42-16 87-18 134h200v-134z m0 200h-200c2 47 8 92 17 134h182v-134z m0 200h-164c36 104 95 178 164 196v-196z m398 0h-100c-19 62-46 115-78 158 73-35 135-90 178-158z m-332 196c69-18 128-92 164-196h-164v196z m0-262h182c10-42 16-87 18-134h-200v134z m0-200h200c-2-47-8-92-18-134h-182v134z m0-396v196h164c-36-104-95-178-164-196z m154 38c32 43 59 96 79 158h99c-43-68-105-123-178-158z m213 224h-117c9 43 15 87 16 134h133c-3-47-15-92-32-134z m-101 200c-1 47-7 92-16 134h117c18-42 29-87 32-134h-133z" horiz-adv-x="1000" />

<glyph glyph-name="horizontal-split" unicode="&#xe84c;" d="M913 730c-16 16-36 25-60 25-711 0-711 0-711 0-22 0-42-9-58-25-18-15-26-36-26-59 0-123 0-222 0-302 0-29 0-55 0-78 0-263 0-263 0-263 0-24 9-44 26-60 15-17 36-24 58-24 711 0 711 0 711 0 24 0 44 7 60 24s26 36 26 60c0 643 0 643 0 643-1 23-9 42-26 59z m-777-110c91 0 156 0 203 0 115 0 115 0 115 0h88c29 0 54 0 78 0 240 0 240 0 240 0 0-100 0-183 0-251h-724c0 251 0 251 0 251z m720-595c-4-3-8-5-12-5-110 0-180 0-224 0-77 0-78 0-78 0h-78c0 0 0 0-10 0h-115-187c-4 0-9 2-12 6-3 3-4 6-4 12 0 101 0 184 0 253h724c0-254 0-254 0-254 0-3-1-8-4-12z" horiz-adv-x="1000" />

<glyph glyph-name="vertical-split" unicode="&#xe84d;" d="M915 731c-16 17-36 25-60 25h-710c-24 0-44-8-60-25s-25-36-25-60v-643c0-23 8-43 25-59 16-17 36-25 60-25h710c24 0 44 8 60 25 17 16 25 36 25 59v643c0 24-8 44-25 60z m-449-710h-311c-5 0-9 2-12 5-4 4-5 8-5 12v583h318v-600h10z m396 17c0-4-1-8-5-12-3-3-7-5-12-5h-301v600h318v-583l0 0z" horiz-adv-x="1000" />

<glyph glyph-name="link-1" unicode="&#xe84e;" d="M294 116q14 14 34 14t36-14q32-34 0-70l-42-40q-56-56-132-56-78 0-134 56t-56 132q0 78 56 134l148 148q70 68 144 77t128-43q16-16 16-36t-16-36q-36-32-70 0-50 48-132-34l-148-146q-26-26-26-64t26-62q26-26 63-26t63 26z m450 574q56-56 56-132 0-78-56-134l-158-158q-74-72-150-72-62 0-112 50-14 14-14 34t14 36q14 14 35 14t35-14q50-48 122 24l158 156q28 28 28 64 0 38-28 62-24 26-56 31t-60-21l-50-50q-16-14-36-14t-34 14q-34 34 0 70l50 50q54 54 127 51t129-61z" horiz-adv-x="800" />

<glyph glyph-name="unpublish" unicode="&#xe84f;" d="M968 198q18-10 27-32t3-40l-28-154q-4-20-22-33t-40-13l-816 0q-22 0-40 13t-22 33l-28 154q-10 48 32 72l158 108 98 0-170-130 178 0q8 0 12-8l40-110 300 0 40 110q8 8 12 8l178 0-170 130 98 0z m-208 322l-260-244-260 244 166 0 0 256 190 0 0-256 164 0z" horiz-adv-x="1000" />

<glyph glyph-name="engine-running-1" unicode="&#xe851;" d="M521 844c64 0 116-52 116-116 0-64-52-116-116-116-64 0-116 52-116 116 0 64 52 116 116 116m0-853c38 0 69-31 69-70 0-38-31-69-69-69-39 0-70 31-70 69 0 39 31 70 70 70m-286 723c58 0 105-46 105-104 0-58-47-105-105-105-58 0-104 47-104 105 0 58 46 104 104 104m571-617c32 0 58-25 58-58 0-32-26-58-58-58-32 0-58 26-58 58 0 33 26 58 58 58m-689 320c51 0 93-41 93-92 0-52-42-93-93-93-51 0-93 41-93 93 0 51 42 92 93 92m807-46c26 0 47-21 47-46 0-26-21-47-47-47-25 0-46 21-46 47 0 25 21 46 46 46m-746-274c-32-32-32-83 0-115 31-32 83-32 115 0 31 32 31 83 0 115-32 32-83 32-115 0m663 513c0-19-16-35-35-35-19 0-35 16-35 35 0 19 16 35 35 35 19 0 35-16 35-35z" horiz-adv-x="1000" />

<glyph glyph-name="affected-network" unicode="&#xe852;" d="M896 307c-61 13-122-27-134-89-9-42 8-84 39-110-26-46-62-86-107-116-75-50-164-67-252-49-21 4-41-9-45-30-5-21 9-42 30-46 28-6 55-9 83-9 80 0 158 24 227 69 59 39 106 92 138 154 53 1 100 38 111 92 12 62-28 122-90 134z m-449 312c42 11 72 44 81 84 53-3 105-17 153-45 77-44 132-116 155-203 5-17 21-29 38-29 3 0 6 1 10 2 21 5 33 27 27 47-28 107-96 196-191 251-62 35-131 54-200 54-24 48-79 74-132 59-61-16-97-79-80-139 16-61 79-97 139-81z m-310-459c-26 46-41 99-43 153-3 89 29 174 91 239 14 16 14 41-2 55-16 15-40 14-55-1-76-81-115-185-112-295 2-72 23-140 59-199-28-45-21-105 19-143 46-43 118-41 162 5 43 46 40 119-5 162-32 29-76 37-114 24z" horiz-adv-x="1000" />

<glyph glyph-name="icons-down-open" unicode="&#xe853;" d="M827 478l-327-313-327 313 55 58 272-260 272 260 55-58z" horiz-adv-x="1000" />

<glyph glyph-name="minus" unicode="&#xe854;" d="M786 439v-107q0-22-16-38t-38-15h-678q-23 0-38 15t-16 38v107q0 23 16 38t38 16h678q23 0 38-16t16-38z" horiz-adv-x="785.7" />

<glyph glyph-name="icons-ok-squared" unicode="&#xe855;" d="M382 125l343 343q11 10 11 25t-11 25l-57 57q-11 11-25 11t-25-11l-261-261-118 118q-10 11-25 11t-25-11l-57-57q-10-10-10-25t10-25l200-200q11-10 25-10t25 10z m475 493v-536q0-66-47-113t-114-48h-535q-67 0-114 48t-47 113v536q0 66 47 113t114 48h535q67 0 114-48t47-113z" horiz-adv-x="857.1" />

<glyph glyph-name="search" unicode="&#xe857;" d="M772 78q30-34 6-62l-46-46q-36-32-68 0l-190 190q-74-42-156-42-128 0-223 95t-95 223 90 219 218 91 224-95 96-223q0-88-46-162z m-678 358q0-88 68-156t156-68 151 63 63 153q0 88-68 155t-156 67-151-63-63-151z" horiz-adv-x="789" />

<glyph glyph-name="icons-circle-empty" unicode="&#xe858;" d="M429 654q-83 0-153-41t-110-111-41-152 41-152 110-111 153-41 152 41 110 111 41 152-41 152-110 111-152 41z m428-304q0-117-57-215t-156-156-215-58-216 58-155 156-58 215 58 215 155 156 216 58 215-58 156-156 57-215z" horiz-adv-x="857.1" />

<glyph glyph-name="arrow-thru" unicode="&#xe861;" d="M995 363l-182 182c-7 7-19 7-26 0l-36-36c-8-8-8-19 0-26l88-89h-819c-10 0-18-8-18-18v-52c0-10 8-18 18-18h819l-89-89c-7-7-7-19 0-26l37-36c7-7 19-7 26 0l182 182c3 3 5 8 5 13 0 5-2 10-5 13z" horiz-adv-x="1000" />

<glyph glyph-name="asterisk-square-uncheck" unicode="&#xe862;" d="M820 850h-640c-99 0-180-81-180-180v-640c0-99 81-180 180-180h640c99 0 180 81 180 180v640c0 99-81 180-180 180z m78-758c0-77-63-140-140-140h-520c-77 0-140 63-140 140v520c0 77 63 140 140 140h520c77 0 140-63 140-140v-520z m-287 351c-34-16-56-26-67-30 14 101 21 170 21 207h-138c0-53 7-121 19-205-53 33-114 63-181 90l-46-136c14-5 43-13 87-24 61-15 98-23 110-26-4-4-14-14-30-29-40-38-79-78-116-120l117-91c41 63 77 123 108 178l105-172 118 78c-11 13-26 31-44 52l-93 104c75 13 142 25 199 38l-41 140c-39-15-81-33-128-54z" horiz-adv-x="1000" />

<glyph glyph-name="add-square" unicode="&#xe863;" d="M820 850h-640c-99 0-180-81-180-180v-640c0-99 81-180 180-180h640c99 0 180 81 180 180v640c0 99-81 180-180 180z m-71-529c0-8-7-15-15-15h-190v-190c0-8-7-15-15-15h-58c-8 0-15 7-15 15v190h-190c-8 0-15 7-15 15v58c0 8 7 15 15 15h190v190c0 8 7 15 15 15h58c8 0 15-7 15-15v-190h190c8 0 15-7 15-15v-58z" horiz-adv-x="1000" />

<glyph glyph-name="asterisk-square" unicode="&#xe864;" d="M820 850h-640c-99 0-180-81-180-180v-640c0-99 81-180 180-180h640c99 0 180 81 180 180v640c0 99-81 180-180 180z m-145-635c18-21 33-38 44-52l-119-78-104 173c-31-56-68-115-108-178l-117 90c37 42 75 82 116 120 16 15 26 25 30 29-13 2-50 11-111 26-43 11-72 19-86 24l45 136c68-27 128-57 182-90-13 84-19 152-19 205h138c0-37-7-106-21-207 10 4 33 14 67 30 46 21 89 39 128 54l41-140c-57-13-124-25-199-38l93-104z" horiz-adv-x="1000" />

<glyph glyph-name="ampersand-circle" unicode="&#xe865;" d="M436 460l29-34c28 16 47 31 55 44 9 12 13 26 13 42 0 18-6 33-18 44-11 12-25 17-43 17-17 0-32-5-44-17-11-11-17-25-17-41 0-9 2-17 6-26 4-10 10-19 19-29z m-71-170c-12-18-18-36-18-54 0-21 9-44 26-67 17-23 41-35 73-35 19 0 40 6 61 19 21 12 37 28 50 47l-120 149c-35-22-59-41-72-59z m135 556c-274 0-496-222-496-496s222-496 496-496 496 222 496 496-222 496-496 496z m180-773c-27 17-54 42-82 75-22-24-45-42-71-54-25-12-53-18-82-18-55 0-98 18-130 55-26 31-38 64-38 101 0 33 10 63 31 89 22 27 53 50 95 70-24 28-39 50-47 68-8 17-12 33-12 49 0 32 12 60 37 84 25 23 57 35 95 35 36 0 66-11 89-33 24-23 35-49 35-81 0-50-33-94-101-129l96-122c11 21 19 46 25 74l68-14c-11-47-27-85-47-115 25-33 52-60 83-82l-44-52z" horiz-adv-x="1000" />

<glyph glyph-name="thru" unicode="&#xe866;" d="M964 58l-171 171c-7 7-17 7-24 0l-34-34c-7-7-7-18 0-25l83-83h-770c-9 0-17-8-17-17v-48c0-10 8-17 17-17h770l-84-84c-6-6-6-17 0-24l35-34c6-7 17-7 24 0l171 171c3 3 5 7 5 12 0 4-2 9-5 12z m-314 792h-300c-47 0-85-38-85-85v-301c0-46 38-84 85-84h301c46 0 84 38 84 84v301c0 47-38 85-85 85z m37-356c0-37-29-66-66-66h-244c-36 0-66 29-66 66v244c0 36 30 66 66 66h244c36 0 66-30 66-66v-244z m-135 165c-16-8-26-12-31-14 6 47 10 79 10 97h-65c0-25 3-57 9-97-25 16-54 30-86 43l-21-64c7-2 20-6 41-11 28-7 46-11 52-12-2-2-7-7-14-14-19-18-38-37-55-56l55-43c19 30 36 57 51 84l49-82 56 37c-5 7-12 15-21 25l-44 48c35 6 67 12 94 18l-20 66c-18-7-38-15-60-25z" horiz-adv-x="1000" />

<glyph glyph-name="thru-check" unicode="&#xe867;" d="M964 58l-171 171c-7 7-17 7-24 0l-34-34c-7-7-7-18 0-25l83-83h-770c-9 0-17-8-17-17v-48c0-10 8-17 17-17h770l-84-84c-6-6-6-17 0-24l35-34c6-7 17-7 24 0l171 171c3 3 5 7 5 12 0 4-2 9-5 12z m-314 792h-300c-47 0-85-38-85-85v-301c0-46 38-84 85-84h301c46 0 84 38 84 84v301c0 47-38 85-85 85z m-68-299c9-10 16-18 21-24l-56-37-49 81c-15-26-32-54-51-83l-55 42c18 20 36 39 55 57 7 7 12 12 14 14-6 1-23 5-52 12-21 5-34 8-41 11l22 64c31-13 60-27 85-43-6 40-9 72-9 97h65c0-18-3-50-10-98 5 2 15 7 31 15 22 10 42 18 61 25l19-66c-27-6-58-12-94-18l44-49z" horiz-adv-x="1000" />

<glyph glyph-name="history" unicode="&#xe86a;" d="M525 817c-175 0-330-94-410-237l-115 114v-321h325l-140 138c65 124 190 208 340 208 205-1 375-168 375-371s-170-370-375-370c-165 0-300 103-355 247h-105c55-198 240-346 460-346 265 0 475 212 475 469s-215 469-475 469z m-75-247v-252l235-138 40 64-200 119v207h-75z" horiz-adv-x="1000" />

<glyph glyph-name="excel" unicode="&#xe86b;" d="M968 735h-353v-115h117v-78h-117v-77h116v-77h-116v-77h116v-77h-116v-77h116v-77h-116v-115h353c18 0 32 15 32 33v703c0 19-15 34-32 34z m-45-654h-154v77h154v-77z m0 154h-154v77h154v-77z m0 153h-154v77h154v-77z m0 154h-154v77h154v-77z m-923 197v-778l577-111v1000l-577-111z m365-584l-67 126c-3 5-5 14-8 26h-1c-1-6-4-15-9-27l-67-126h-105l124 195-113 195h106l56-117c4-9 8-20 12-33h1c2 8 6 19 12 34l62 116h98l-117-193 120-196-104 0 0 0z" horiz-adv-x="1000" />

<glyph glyph-name="settings" unicode="&#xe86c;" d="M1000 308v84c0 25-17 41-42 41h-75c-8 0-16 9-20 17-9 29-21 58-38 88-4 8-4 16 4 25l55 54c16 16 16 41 0 58l-59 59c-16 16-41 16-58 0l-54-55c-9-8-17-8-25-4-25 17-55 29-88 38-8 4-17 8-17 21v74c0 25-16 42-41 42h-84c-25 0-41-17-41-42v-75c0-8-9-16-17-20-29-9-58-21-87-38-9-4-17-4-25 4l-55 54c-16 17-41 17-58 0l-58-58c-17-17-17-42 0-58l54-55c8-8 8-16 4-25-17-25-29-54-38-87-4-9-8-17-20-17h-75c-25 0-42-16-42-41v-84c0-25 17-41 42-41h75c8 0 16-9 20-17 9-29 21-58 38-88 4-8 4-16-4-25l-54-54c-17-16-17-41 0-58l58-59c17-16 42-16 58 0l55 55c8 8 16 8 25 4 25-17 54-29 87-38 9-4 17-8 17-20v-75c0-25 16-42 41-42h84c25 0 41 17 41 42v75c0 8 9 16 17 20 29 9 58 21 88 38 8 4 16 4 25-4l54-55c16-16 41-16 58 0l59 59c16 16 16 41 0 58l-55 54c-8 9-8 17-4 25 17 25 29 55 38 88 4 8 8 17 20 17h75c25 0 42 16 42 41z m-500-166c-117 0-208 91-208 208s91 208 208 208 208-91 208-208-91-208-208-208z" horiz-adv-x="1000" />

<glyph glyph-name="load-rearrange-t5" unicode="&#xe86d;" d="M68 417c-37 0-68-31-68-69s31-69 68-69 69 31 69 69c0 38-31 69-69 69z m0-117c-26 0-47 21-47 48 0 26 21 48 47 48s48-21 48-48c0-26-21-48-48-48z m864 117c-38 0-69-31-69-69s31-69 69-69c37 0 68 31 68 69s-31 69-68 69z m0-117c-27 0-48 21-48 48 0 26 21 48 48 48 26 0 47-21 47-48 0-26-21-48-47-48z m-432 116c-37 0-68-31-68-69s31-69 68-69 69 31 69 69-31 69-69 69z m-310 3h-33v-25h33c0 0 0 25 0 25z m24-25h33v25h-33v-25z m60 0h32v25h-32v-25z m84 61c-2 0-4-2-4-4v-7c0-1 0-2 0-2l12-23h-35v-25h34l-12-24c-1-1-1-1-1-2l1-6c0-2 2-3 4-3h8l47 48-47 48h-7v0z m21-178h33v24h-33v-24z m-57 0h32v24h-32v-24z m-60 0h33v24h-33v-24z m-47 48c0 0 0 1 0 1v7c0 3-2 5-4 5h-7l-47-49 47-48h8c2 0 3 2 4 4l0 5c1 1 0 2 0 3l-13 24h35v24h-35l12 24z m574 13c-2 0-4-2-4-5v-7c0 0 0-1 0-1l12-24h-208v-24h208l-13-24c0-1 0-2 0-2l1-6c0-2 2-4 4-4h8l46 49-46 48h-8v0z m-143 108c0 0 1 1 1 2v7c0 2-2 4-5 4h-7l-46-48 46-49h8c2 0 4 2 4 4l1 6c0 0 0 1-1 2l-12 24h208v24h-208l11 24z" horiz-adv-x="1000" />

<glyph glyph-name="load-add-t1" unicode="&#xe86e;" d="M716 417c-38 0-68-31-68-69 0-38 30-69 68-69 38 0 68 31 68 69 0 38-30 69-68 69z m0-117c-26 0-48 21-48 48 0 26 22 48 48 48 26 0 48-21 48-48 0-26-22-48-48-48z m-432 116c-38 0-68-31-68-69 0-38 30-69 68-69 38 0 68 31 68 69 1 38-30 69-68 69z m290-18c-2 0-4-2-4-5v-7c0 0 0-1 0-1l12-24h-208v-24h208l-13-24c0-1 0-2 0-2l1-6c0-2 2-4 4-4h8l46 49-46 48h-8z" horiz-adv-x="1000" />

<glyph glyph-name="load-add-t2" unicode="&#xe86f;" d="M284 417c-38 0-68-31-68-69 0-38 30-69 68-69 38 0 68 31 68 69 1 38-30 69-68 69z m0-117c-26 0-48 21-48 48 0 26 22 48 48 48 26 0 48-21 48-48 0-26-22-48-48-48z m432 116c-38 0-68-31-68-69 0-38 30-69 68-69 38 0 68 31 68 69 0 38-30 69-68 69z m-143-18c-3 0-5-2-5-5v-7c0 0 1-1 1-1l12-24h-209v-24h208l-12-24c-1-1-1-2-1-2l1-6c0-2 2-4 4-4h8l46 49-46 48h-7z" horiz-adv-x="1000" />

<glyph glyph-name="load-add-t3" unicode="&#xe870;" d="M716 417c-38 0-69-31-69-69s31-69 69-69c37 0 68 31 68 69s-31 69-68 69z m0-117c-27 0-48 21-48 48 0 26 21 48 48 48 26 0 47-21 47-48 0-26-21-48-47-48z m-432 116c-37 0-68-31-68-69s31-69 68-69 69 31 69 69-31 69-69 69z m289-78c-2 0-4-2-4-5v-7c0 0 0-1 0-1l12-24h-208v-24h208l-13-24c0-1 0-2 0-2l1-6c0-2 2-4 4-4h8l46 49-46 48h-8v0z m-143 108c0 0 1 1 1 2v7c0 2-2 4-5 4h-7l-46-48 46-49h8c2 0 4 2 4 4l1 6c0 0 0 1-1 2l-12 24h208v24h-208l11 24z" horiz-adv-x="1000" />

<glyph glyph-name="load-add-t4" unicode="&#xe871;" d="M68 417c-37 0-68-31-68-69 0-38 31-69 68-69 38 0 69 31 69 69 0 38-31 69-69 69z m0-117c-26 0-47 21-47 48 0 26 21 48 47 48 27 0 48-21 48-48 0-26-21-48-48-48z m864 117c-38 0-69-31-69-69 0-38 31-69 69-69 37 0 68 31 68 69 0 38-31 69-68 69z m0-117c-27 0-48 21-48 48 0 26 21 48 48 48 26 0 47-21 47-48 0-26-21-48-47-48z m-432 116c-37 0-68-31-68-69 0-38 31-69 68-69 38 0 69 31 69 69 0 38-31 69-69 69z m289-18c-2 0-4-2-4-5v-7c0 0 0-1 0-1l12-24h-208v-24h208l-13-24c0-1 0-2 0-2l1-6c0-2 2-4 4-4h8l46 49-46 48h-8z m-432 0c-2 0-4-2-4-5v-7c0 0 0-1 0-1l12-24h-209v-24h209l-13-24c0-1-1-2 0-2l0-6c1-2 2-4 4-4h8l47 49-47 48h-7z" horiz-adv-x="1000" />

<glyph glyph-name="load-add-t5" unicode="&#xe872;" d="M68 417c-37 0-68-31-68-69 0-38 31-69 68-69 38 0 69 31 69 69 0 38-31 69-69 69z m0-117c-26 0-47 21-47 48 0 26 21 48 47 48 27 0 48-21 48-48 0-26-21-48-48-48z m864 117c-38 0-69-31-69-69 0-38 31-69 69-69 37 0 68 31 68 69 0 38-31 69-68 69z m0-117c-27 0-48 21-48 48 0 26 21 48 48 48 26 0 47-21 47-48 0-26-21-48-47-48z m-432 116c-37 0-68-31-68-69 0-38 31-69 68-69 38 0 69 31 69 69 0 38-31 69-69 69z m289-78c-2 0-4-2-4-5v-7c0 0 0-1 0-1l12-24h-208v-24h208l-13-24c0-1 0-2 0-2l1-6c0-2 2-4 4-4h8l46 49-46 48h-8z m-432 0c-2 0-4-2-4-5v-7c0 0 0-1 0-1l12-24h-209v-24h209l-13-24c0-1-1-2 0-2l0-6c1-2 2-4 4-4h8l47 49-47 48h-7z m289 108c0 0 1 1 1 2v7c0 2-2 4-5 4h-7l-46-48 46-49h8c2 0 4 2 4 4l1 6c0 0 0 1-1 2l-12 24h208v24h-208l11 24z m-430 0c0 0 0 1 0 2v7c0 2-1 4-4 4h-7l-47-48 47-49h8c2 0 4 2 4 4l1 6c0 0 0 1-1 2l-12 24h208v24h-209l12 24z" horiz-adv-x="1000" />

<glyph glyph-name="load-rearrange-t3" unicode="&#xe873;" d="M68 417c-37 0-68-31-68-69s31-69 68-69 69 31 69 69c0 38-31 69-69 69z m0-117c-26 0-47 21-47 48 0 26 21 48 47 48s48-21 48-48c0-26-21-48-48-48z m864 117c-38 0-69-31-69-69s31-69 69-69c37 0 68 31 68 69s-31 69-68 69z m0-117c-27 0-48 21-48 48 0 26 21 48 48 48 26 0 47-21 47-48 0-26-21-48-47-48z m-432 116c-37 0-68-31-68-69s31-69 68-69 69 31 69 69-31 69-69 69z m-121-82h33v25h-33c0 0 0-25 0-25z m-25 25h-32l0-25h32l0 25z m-59 0h-33l0-25h33l0 25z m-84 36v0h-7l-47-48 47-48h8c2 0 3 1 4 3l0 6c1 1 0 1 0 2l-13 24h35v25h-35l12 23c0 0 0 1 0 2v7c0 2-2 4-4 4l0 0z m586-37h-208v-24h208l-13-24c0-1 0-2 0-2l1-6c0-2 2-4 4-4h8l46 49-46 48h-8c-2 0-4-2-4-4v-7c0-1 0-2 1-2l11-24z" horiz-adv-x="1000" />

<glyph glyph-name="load-rearrange-t4" unicode="&#xe874;" d="M68 417c-37 0-68-31-68-69s31-69 68-69 69 31 69 69c0 38-31 69-69 69z m0-117c-26 0-47 21-47 48 0 26 21 48 47 48s48-21 48-48c0-26-21-48-48-48z m864 117c-38 0-69-31-69-69s31-69 69-69c37 0 68 31 68 69s-31 69-68 69z m0-117c-27 0-48 21-48 48 0 26 21 48 48 48 26 0 47-21 47-48 0-26-21-48-47-48z m-432 116c-37 0-68-31-68-69s31-69 68-69 69 31 69 69-31 69-69 69z m-310-57h-33v-25h33c0 0 0 25 0 25z m24-25h33v25h-33v-25z m60 0h32v25h-32v-25z m84 61c-2 0-4-2-4-4v-7c0-1 0-2 0-2l12-23h-35v-25h34l-12-24c-1-1-1-1-1-2l1-6c0-2 2-3 4-3h8l47 48-47 48h-7l0 0 0 0z m288-13c0 0 1 1 1 2v7c0 2-2 4-5 4h-7l-46-48 46-49h8c2 0 4 2 4 4l1 6c0 0 0 1-1 2l-12 24h208v24h-208l11 24z" horiz-adv-x="1000" />

<glyph glyph-name="load-remove-t1" unicode="&#xe875;" d="M648 348c0-38 30-69 68-69s68 31 68 69c0 38-30 69-68 69s-69-31-68-69z m20 0c0 27 22 48 48 48s48-22 48-48c0-27-22-48-48-48-26 0-48 22-48 48z m-452-1c0-38 30-69 68-69s68 31 68 69-30 69-68 69-68-31-68-69z m189 12h-32v-25h32c0 0 0 25 0 25z m25-25h33v25h-33v-25z m59 0h33v25h-33v-25z m84 61c-2 0-4-2-4-4v-7c0-1 0-2 1-2l11-23h-34v-25h34l-13-24c0-1 0-1 0-2l1-6c0-2 2-3 4-3h8l46 48-46 48h-8v0l0 0z" horiz-adv-x="1000" />

<glyph glyph-name="load-remove-t2" unicode="&#xe876;" d="M284 417c-38 0-68-31-68-69s30-69 68-69 68 31 68 69c1 38-30 69-68 69z m0-117c-26 0-48 21-48 48 0 26 22 48 48 48 26 0 48-21 48-48 0-26-22-48-48-48z m432 116c-38 0-68-31-68-69s30-69 68-69c38 0 68 31 68 69s-30 69-68 69z m-311-57h-32v-25h32c0 0 0 25 0 25z m25-25h33v25h-33v-25z m59 0h33v25h-33v-25z m84 61c-2 0-4-2-4-4v-7c0-1 0-2 1-2l11-23h-34v-25h34l-13-24c0-1 0-1 0-2l1-6c0-2 2-3 4-3h8l46 48-46 48h-8l0 0 0 0z" horiz-adv-x="1000" />

<glyph glyph-name="load-remove-t3" unicode="&#xe877;" d="M716 417c-38 0-69-31-69-69s31-69 69-69c37 0 68 31 68 69s-31 69-68 69z m0-117c-27 0-48 21-48 48 0 26 21 48 48 48 26 0 47-21 47-48 0-26-21-48-47-48z m-432 116c-37 0-68-31-68-69s31-69 68-69 69 31 69 69-31 69-69 69z m309-22h33v25h-33c0 0 0-25 0-25z m-24 25h-33v-25h33v25z m-60 0h-32v-25h32v25z m-84 36v0h-7l-46-48 46-48h8c2 0 4 1 4 3l1 6c0 1 0 1-1 2l-12 24h34v25h-35l12 23c0 0 1 1 1 2v7c0 2-2 4-5 4l0 0z m-19-154h-32v-24h32v24z m58 0h-33v-24h33v24z m59 0h-33v-24h33v24z m59 0h-35v-24h35l-13-24c0-1 0-2 0-3l1-5c0-2 2-4 4-4h8l46 48-46 49h-8c-2 0-4-2-4-5v-7c0 0 0-1 0-1l12-24z" horiz-adv-x="1000" />

<glyph glyph-name="load-remove-t4" unicode="&#xe878;" d="M68 417c-37 0-68-31-68-69s31-69 68-69 69 31 69 69c0 38-31 69-69 69z m0-117c-26 0-47 21-47 48 0 26 21 48 47 48s48-21 48-48c0-26-21-48-48-48z m864 117c-38 0-69-31-69-69s31-69 69-69c37 0 68 31 68 69s-31 69-68 69z m0-117c-27 0-48 21-48 48 0 26 21 48 48 48 26 0 47-21 47-48 0-26-21-48-47-48z m-432 116c-37 0-68-31-68-69s31-69 68-69 69 31 69 69-31 69-69 69z m-310-57h-33v-25h33c0 0 0 25 0 25z m24-25h33v25h-33v-25z m60 0h32v25h-32v-25z m84 61c-2 0-4-2-4-4v-7c0-1 0-2 0-2l12-23h-35v-25h34l-12-24c-1-1-1-1-1-2l1-6c0-2 2-3 4-3h8l47 48-47 48h-7v0z m262-36h-32v-25h32c0 0 0 25 0 25z m25-25h32v25h-32v-25z m59 0h33v25h-33v-25z m84 61c-2 0-4-2-4-4v-7c0-1 0-2 0-2l12-23h-35v-25h35l-13-24c0-1 0-1 0-2l1-6c0-2 2-3 4-3h8l46 48-46 48h-8v0z" horiz-adv-x="1000" />

<glyph glyph-name="load-remove-t5" unicode="&#xe879;" d="M68 417c-37 0-68-31-68-69s31-69 68-69 69 31 69 69c0 38-31 69-69 69z m0-117c-26 0-47 21-47 48 0 26 21 48 47 48s48-21 48-48c0-26-21-48-48-48z m864 117c-38 0-69-31-69-69s31-69 69-69c37 0 68 31 68 69s-31 69-68 69z m0-117c-27 0-48 21-48 48 0 26 21 48 48 48 26 0 47-21 47-48 0-26-21-48-47-48z m-432 116c-37 0-68-31-68-69s31-69 68-69 69 31 69 69-31 69-69 69z m-310 5h-33v-25h33c0 0 0 25 0 25z m24-25h33v25h-33v-25z m60 0h32v25h-32v-25z m84 61c-2 0-4-2-4-4v-7c0-1 0-2 0-2l12-23h-35v-25h34l-12-24c-1-1-1-1-1-2l1-6c0-2 2-3 4-3h8l47 48-47 48h-7l0 0 0 0z m21-180h33v24h-33v-24z m-57 0h32v24h-32v-24z m-60 0h33v24h-33v-24z m-47 48c0 0 0 1 0 1v7c0 3-2 5-4 5h-7l-47-49 47-48h8c2 0 3 2 4 4l0 5c1 1 0 2 0 3l-13 24h35v24h-35l12 24z m596 72h33v24h-33v-24z m-57 0h33v24h-33v-24z m-59 0h32v24h-32v-24z m-48 48c0 0 1 1 1 1v7c0 3-2 5-5 5h-7l-46-49 46-48h8c2 0 4 2 4 4l1 5c0 1 0 2-1 3l-12 24h34v24h-35l12 24z m-25-144h-32v-24h32v24z m58 0h-33v-24h33v24z m59 0h-33v-24h33v24z m59 0h-35v-24h35l-13-24c0-1 0-2 0-3l1-5c0-2 2-4 4-4h8l46 48-46 49h-8c-2 0-4-2-4-5v-7c0 0 0-1 0-1l12-24z" horiz-adv-x="1000" />

<glyph glyph-name="upgrade-downgrade" unicode="&#xe87a;" d="M250 750l-250-223 67-75 133 119v-621h100v621l133-119 67 75-250 223z m450 0v-621l-133 119-67-75 250-223 250 223-67 75-133-119v621h-100z" horiz-adv-x="1000" />

<glyph glyph-name="load-dispatch-plan" unicode="&#xe880;" d="M55 223c39 9 78-14 87-53 10-38-14-77-53-87-38-9-77 15-86 53-10 39 14 78 52 87z m257 338c46 11 93-17 104-63s-17-93-63-104-93 17-104 63c-11 46 17 93 63 104z m306-156c51 12 102-19 114-69 13-51-19-102-69-114-51-13-102 18-114 69-13 51 18 102 69 114z m259 389c53 13 106-19 119-72s-20-106-73-119-106 19-119 72 20 107 73 119z m-799-645l-11 8 263 335 314-205 250 415 12-7-257-428-316 207-255-325z" horiz-adv-x="1000" />

<glyph glyph-name="purchase-load" unicode="&#xe881;" d="M940 720h-11v-12-13c0-21-17-38-38-38h-5c-21 0-38 17-38 38v13 12h-210v-12-13c0-21-17-38-38-38h-5c-21 0-38 17-38 38v13 12h-11c-24 0-43-20-43-44v-269c0-4 7-13 9-15l106-107c1-1 3-2 5-3 1-1 4-2 6-2h311c23 0 43 19 43 43v353c0 24-19 44-43 44z m20-146v-251c0-11-9-20-20-20h-307l0 0v75c0 19-16 35-36 35h0-70v161l433 0 0 0z m-74 100h6c11 0 20 9 20 21v55c0 11-9 20-20 20h-6c-11 0-20-9-20-20v-56c0-11 9-20 20-20z m-291 0h6c11 0 20 9 20 21v55c0 11-9 20-20 20h-6c-11 0-20-9-20-20v-56c0-11 9-20 20-20z m-525-455v-158c0-11 9-20 20-20h41c0-51 42-93 93-93 51 0 92 42 92 93l0 0h42c11 0 20 9 20 20v329c0 11-9 20-20 20l0 0h-72-82c-7 0-13-3-17-9l-114-171c-2-3-3-7-3-10 0 0 0 0 0-1z m55 6l83 123h77v-123h-160z m53-185c0 26 20 47 46 47 25 0 46-21 46-47 0-25-21-46-46-46s-46 21-46 46z m169 405v-378c0-15 12-27 27-27h194c0-51 42-92 93-92 51 0 93 41 93 92h65c15 0 27 12 27 27v378c0 15-12 27-27 27h-445c-15 0-26-12-27-27z m268-405c0 26 21 47 47 47 25 0 46-21 46-47 0-25-21-46-46-46-26 0-47 21-47 46z" horiz-adv-x="1000" />

<glyph glyph-name="save-data-loader" unicode="&#xe882;" d="M820 325c-96-165-315-169-315-169l-5 0c-8-1-52-3-63-3-5 0-13 0-18 1h0c-107 3-206 31-272 75-36 24-60 50-77 86l-5 10 0 113c0 113 0 114 2 105 4-18 14-38 27-55 8-10 21-22 28-27 3-2 9-6 14-10 52-37 123-63 206-75 36-5 49-6 100-6 38 0 52 1 66 2 100 11 178 36 239 79 16 11 19 14 28 22 20 19 36 46 42 70 2 9 2 8 2-84l0-92z m-421 115c-20 2-44 4-57 6-60 9-115 25-159 48-63 31-101 69-115 116-4 11-5 37-2 49 16 82 126 150 276 172 36 5 49 6 100 6s64-1 100-6c59-9 114-25 159-47 66-33 107-77 117-125 2-13 1-38-2-49-7-24-19-42-38-62-53-55-150-93-268-106-16-1-97-3-111-2z m421-401c-96-165-315-169-315-169l-5-1c-8-1-52-3-63-2-5 0-13 0-18 0h0c-107 4-206 31-272 75-36 24-60 51-77 86l-6 11 0 113c0 112 1 113 2 104 4-18 14-37 28-54 8-10 21-23 28-27 3-2 9-7 14-10 52-37 123-63 206-75 36-5 49-6 100-6 38 0 52 0 66 2 100 10 178 36 239 79 16 11 19 13 28 22 20 18 36 46 42 70 2 8 2 8 2-84l0-93z" horiz-adv-x="1000" />

<glyph glyph-name="saved-data" unicode="&#xe883;" d="M419-133c-134 6-245 43-308 103-16 15-35 40-42 54l-5 10v115c0 115 0 116 2 107 6-25 22-51 43-71 15-14 47-35 73-48 45-23 100-39 159-48 35-5 50-6 98-6 26 0 50 1 55 1l8 1v-3c0-6 3-25 6-37 13-58 48-112 96-148l11-8-15-4c-35-8-71-14-107-17-18-1-61-2-74-1l0 0z m328 34c-16 2-32 5-48 11-62 20-111 69-132 132-15 43-15 90 0 133 36 109 155 169 265 132 62-21 111-70 132-132 15-43 15-90 0-133-20-63-70-112-132-132-16-6-33-9-50-11-12-1-23-1-35 0l0 0z m69 191l83 83-18 17c-10 10-18 18-19 19-2 1-15-13-64-61-34-35-63-63-64-63s-15 14-32 30-31 30-31 30c-2 0-39-37-39-38s98-99 100-99c1-1 38 37 84 82l0 0z m-397 62c-107 3-206 31-273 75-36 24-59 50-77 86l-5 10v113c0 113 0 114 2 105 4-18 14-38 28-55 8-10 21-22 28-27 3-2 9-6 14-10 52-37 123-63 206-75 35-5 49-6 100-6 38 0 52 0 66 2 100 10 178 36 239 79 16 11 19 14 28 22 20 19 36 46 42 70 2 9 2 8 2-84v-92l-12 2c-18 3-63 3-81 0-51-8-93-28-131-59-44-37-75-87-88-143l-2-11-5 0c-8-1-52-3-63-3-5 0-13 1-18 1l0 0z m-20 286c-20 2-44 4-57 6-60 9-115 25-159 48-63 31-101 69-115 116-4 11-4 36-2 49 17 82 126 150 276 172 36 5 49 6 100 6s64-1 100-6c60-9 115-25 159-47 66-33 107-77 117-125 3-13 2-38-2-49-7-24-18-42-37-62-54-55-150-93-269-106-16-2-97-3-111-2z" horiz-adv-x="1000" />

<glyph glyph-name="rail-load-1" unicode="&#xe884;" d="M844 376l0 0c11 0 20 9 20 21v251h0v-251c0-12-9-21-20-21z m-550-60c3 0 7-1 11-1h255c4 0 7 1 10 1h-273c-1 0-2 0-3 0z m204 432h5c11 0 21 10 21 21v55c0 11-10 20-21 20h-5c-11 0-21-9-21-20v-55c0-11 10-21 21-21z m291 0h6c11 0 20 10 20 21v55c0 11-9 20-20 20h-6c-11 0-20-9-20-20v-55c0-11 9-21 20-21z m-169-395h44v-225c0-25-7-46-23-64-15-18-35-29-58-32l122-182h-69l-12 17h-383l-12-17h-69l122 182c-22 3-41 13-57 32-16 18-24 39-24 64v355c0 26 9 49 28 68 18 18 41 28 69 28h108 23v-60h-132c-23 0-42-18-42-40v-123c0-21 17-38 39-40 3 0 7-1 11-1h255c4 0 7 1 10 1h8c22 0 40 16 42 37z m-318-187c0-22 15-40 36-45 3 0 6-1 10-1 25 0 45 21 45 46s-20 45-45 45c-4 0-7 0-10-1-21-5-36-23-36-44z m251-192h-241l-32-48h305l-32 48z m30 191c0 1 0 1 0 0 0 26-20 46-45 46-25 0-46-20-46-45 0 0 0 0 0-1 0 0 0 0 0 0 0-25 21-45 46-45 25 0 45 20 45 45 0 0 0 0 0 0z m81 318c0 26-9 49-28 68-19 18-42 28-69 28h-138v-60h149c23 0 42-18 42-40l0-126h44v23 107z m180 311h-11v-12-13c0-21-17-38-38-38h-5c-21 0-38 17-38 38v13 12h-211v-12-13c0-21-17-38-38-38h-5c-21 0-38 17-38 38v13 12h-11c-24 0-43-19-43-43v-172h23v69h435 0v-251c0-12-9-21-20-21h0-180v-23h180c24 0 43 19 43 43v354c0 24-19 44-43 44z m-306-674c-25 0-46 20-46 45 0 0 0 0 0 0 0-25 21-45 46-45 25 0 45 20 45 45 0 0 0 0 0 0 0-25-20-45-45-45z m0 91c-25 0-46-20-46-45 0 0 0 0 0-1 0 25 21 46 46 46 25 0 45-21 45-46 0 0 0 0 0 1 0 25-20 45-45 45z" horiz-adv-x="1000" />

<glyph glyph-name="load-plan" unicode="&#xe885;" d="M923 603c-23-6-47-3-67 8l-139-231 41-171-179-44-43 176-125 82-146-36-143-182c10-9 17-21 20-35 10-39-14-77-53-87s-77 15-86 53 14 78 52 87c20 5 40 1 56-9l144 184-35 144 157 38 34-141 139-91 154 38 139 232c-19 13-33 33-39 57-13 53 20 106 73 119s106-19 119-72-20-106-73-119z" horiz-adv-x="1000" />

<glyph glyph-name="download" unicode="&#xe888;" d="M229 470h181v362h180v-362h181l-271-301-271 301z m602-241v-241h-662v241h-120v-296c-1-36 27-65 62-65h777c35 0 64 29 63 65v296h-120z m-602 241h181v362h180v-362h181l-271-301-271 301z m602-241v-241h-662v241h-120v-296c-1-36 27-65 62-65h777c35 0 64 29 63 65v296h-120z" horiz-adv-x="1000" />

<glyph glyph-name="save-data-[recovered]-02" unicode="&#xe88a;" d="M146 229c67-44 166-72 273-75h0c5 0 13-1 18-1 11 0 55 2 63 3l5 0 3 11a268 268 0 0 0 87 143c38 31 81 51 132 59 17 3 62 3 80 0l12-2 0 92c0 92 0 93-2 84-5-24-21-51-42-70-8-8-12-11-27-22-62-43-140-68-239-79-15-1-28-2-67-2-51 0-64 1-100 6-82 12-154 38-205 75-5 3-12 8-14 10-8 5-20 17-28 27-14 17-24 37-28 55-2 9-2 8-2-105l0-113 5-10c17-36 41-62 76-86z m362-184c-3 13-6 32-6 37v3l-8-1c-4 0-29 0-54 0-49 0-63 0-98 6-60 8-115 25-160 47-26 13-58 34-72 48-22 21-38 47-43 71-2 9-2 8-2-106l0-116 4-10c7-14 26-39 42-54 63-60 174-97 308-103h0c14-1 56 0 74 1a698 698 0 0 1 107 17l15 4-11 8c-47 37-83 91-96 148z m-325 449c44-23 99-39 159-48 13-2 37-4 57-6 14-1 95 0 111 2 118 13 215 51 268 106 19 20 31 38 38 62 3 11 4 37 2 49-10 48-51 92-117 125-45 22-100 38-159 47-36 5-49 6-100 6s-64-1-100-6c-150-22-259-90-276-172-2-12-2-38 2-49 14-47 52-85 115-116z m781-317a209 209 0 0 1-397 0 205 205 0 0 1 0-133 208 208 0 0 1 132-132 203 203 0 0 1 48-11h0a152 152 0 0 1 35 0 199 199 0 0 1 50 11 208 208 0 0 1 132 132 205 205 0 0 1 0 133z m-80-99h-88v-88h-62v88h-89v62h89v89h62v-89h88z" horiz-adv-x="1000" />

<glyph glyph-name="ok-squared" unicode="&#xe88b;" d="M806 824h-612c-93 0-168-75-168-168v-612c0-93 75-168 168-168h612c93 0 168 75 168 168v612c0 91-77 168-168 168z m-406-735l-2 2-5-5-255 255 102 100 154-154 346 346 102-102-442-442z" horiz-adv-x="1000" />

<glyph glyph-name="icons-check-empty" unicode="&#xe88c;" d="M776 815h-552c-104 0-189-85-189-189v-550c0-105 85-190 189-190h550c105 0 190 85 190 189v551c1 102-86 189-188 189z m112-189v-551c0-62-51-112-113-112h-550c-62 0-112 51-112 113v550c0 62 50 112 112 112h551c60 0 112-52 112-112z" horiz-adv-x="1000" />

<glyph glyph-name="plan-data" unicode="&#xe88d;" d="M325 723h352c13 0 24 11 24 24v78c0 13-11 24-24 24h-352c-13 0-24-11-24-24v-78c0-13 11-24 24-24z m542 48c-19 10-93 14-120 14h-2v-46c0-33-27-60-59-60h-374c-33 0-60 27-60 60v48h-3c-27 0-101-6-120-14-53-29-80-78-80-141 0-86 0-174 0-258v-28c0-55 0-109 0-164 0-24 0-46 0-70v-11c0-65 0-46 1-113 0-36 16-71 42-97 25-26 60-41 98-41 77 0 206 0 281 0h26 26c70 0 170 0 244 0 36 0 108 14 135 41 26 26 42 60 42 97 1 67 1 48 1 113v11c0 22 0 46 0 70 0 55 0 109 0 164v27c0 85 0 173 0 258 1 64-27 112-78 140z m-650-221c6 6 14 9 22 9 9 0 17-4 24-11 8-8 17-17 23-25l5-6 34 34 0 0c7 5 15 10 23 10 13 0 24-9 30-24l0 0 0-1c3-14-5-25-10-30l-28-27 5-5c9-9 17-17 24-25l0-1c6-9 11-19 9-31-3-11-11-19-22-22-6-3-19-5-32 8l-29 28-30-28c-9-8-17-11-24-11-3 0-5 1-8 1-11 3-19 11-22 22-2 11 0 22 8 30 9 11 17 19 27 27l3 3-30 29c-7 7-10 15-10 24 0 9 3 17 8 22z m265-400c-27-13-55-22-81-29-13-49-60-85-111-85-65 0-117 51-117 117 0 64 53 117 117 117 41 0 82-25 102-61 50 13 96 36 135 68 41 33 76 77 105 130 0 1 1 2 1 2 2 3 2 3 2 6l-4 1-1 0c-4 2-8 4-12 5-4 2-8 4-13 6-14 5-22 14-25 26l0 1v2c0 9 5 20 16 30l0 1c23 19 48 40 78 63 12 10 24 20 37 31l1 0c13 10 24 10 31 7 10-3 18-12 23-25l0-1 0-1c5-48 14-94 27-153l1-6c3-9 0-19-7-27-11-10-24-13-35-8-12 4-25 8-37 15-1 0-2 1-2 1 0-1 0-1-1-1l0-1c-23-51-54-97-93-135-38-39-85-71-137-96z m310-91c8-8 16-16 23-25l0 0c6-10 12-20 9-31-3-11-11-19-21-22-7-3-20-6-33 8l-29 28-30-28c-8-9-17-11-24-11-3 0-5 0-7 1-11 2-20 11-22 22-3 11 0 22 7 30 9 10 17 19 28 27l2 2-30 30c-7 7-10 15-10 24 0 8 3 16 8 22 6 5 14 8 22 8 9 0 17-3 24-10 9-9 17-17 24-26l4-5 34 33 0 1c7 4 15 9 23 9 13 0 24-9 30-23l0-1 1-1c2-14-6-24-11-29l-27-28 5-5z" horiz-adv-x="1000" />

<glyph glyph-name="add-tweak-1" unicode="&#xe88e;" d="M721-113c-145 0-264 118-264 264s119 264 264 264 264-119 264-264-118-264-264-264z m0 486c-122 0-222-100-222-222s100-222 222-222 222 99 222 222-99 222-222 222z m45-72h-81v-110h-110v-80h110v-111h81v111h110v80h-110v110l0 0z m-16650-117h32766m-16683 579h406v-116h-406v116z m0-232h336v-116h-336v116z m0-232h206v-116h-206v116z m-191 464h117v-116h-117v116z m0-232h117v-116h-117v116z m0-232h117v-116h-117v116z" horiz-adv-x="1000" />

<glyph glyph-name="delete-tweak" unicode="&#xe88f;" d="M725-89c-145 0-264 118-264 264s119 264 264 264 264-119 264-264-118-264-264-264z m0 486c-122 0-222-100-222-222s100-222 222-222 222 99 222 222-99 222-222 222z m-524 392h406v-116h-406v116z m0-232h336v-116h-336v116z m0-232h206v-116h-206v116z m-191 464h117v-116h-117v116z m0-232h117v-116h-117v116z m0-232h117v-116h-117v116z m866-109h-302v-82h302v82z" horiz-adv-x="1000" />

<glyph glyph-name="map-zoom" unicode="&#xe890;" d="M500 563c-117 0-212-95-212-213 0-117 95-212 212-212s213 95 213 212-95 213-213 213z m507-165h-68c-10 99-55 193-127 265-71 71-165 116-265 127v68l-94 0v-69c-100-10-194-55-265-127-71-71-116-165-127-264h-69l0-94 69 0c11-100 56-194 127-265 71-72 165-117 265-127v-69h94v69c100 10 194 55 265 126 72 72 117 166 127 266h68l0 94z m-243-95l80 0c-11-74-45-144-99-198-54-53-124-88-198-98v79l-94 0v-79c-74 10-144 45-198 99-53 53-88 123-98 198h78l0 94h-78c10 74 45 144 98 197 54 54 124 89 198 99l0-79h94v79c74-10 145-45 198-99 54-53 89-123 99-198h-79l-1-94z" horiz-adv-x="1000" />

<glyph glyph-name="import-header" unicode="&#xe891;" d="M1000 350c0-276-224-500-500-500s-500 224-500 500 224 500 500 500 500-224 500-500z" horiz-adv-x="1000" />

<glyph glyph-name="driver-links" unicode="&#xe892;" d="M151 423c10-14 16-32 16-52 0-26-14-50-35-65l155-291c5 1 11 2 17 2 42 0 79-37 79-87 0-43-37-80-79-80-50 0-87 37-87 80 0 27 11 51 30 67l-157 295c-1 0-2 0-3 0-50 0-87 37-87 79 0 50 37 87 87 87 11 0 21-2 31-6l245 245c-4 12-6 24-4 35-3 48 34 87 80 89 41-2 73-29 80-67l359 0-72 59c-10 6-10 21-8 30 10 9 24 9 29 0l123-85c10-15 12-30 1-41l-124-96c-7-7-21-5-29 0-4 12-2 26 8 30l72 66-359 0c-7-39-39-66-80-66-15 0-31 5-46 14l-242-242z m549-148c-69 0-125 56-125 125 0 69 56 125 125 125 69 0 125-56 125-125 0-69-56-125-125-125z m58-8c79 0 142-64 142-142l0-58c0-16-9-25-25-25l-350 0c-16 0-25 9-25 25l0 58c0 78 64 142 142 142l116 0z" horiz-adv-x="1000" />

<glyph glyph-name="trailer-routes" unicode="&#xe893;" d="M908 58l-33 0 0-66-33 0 0 66-125 0 0-116c-3 0-291 0-250 0-5-31-16-60-42-75-19-10-41-17-58-17-49 0-81 36-92 92-17 1-37 1-58 0 0 9 0 15 0 25 0 101 0 206 0 308 0 50 24 75 66 75 135 0 298 0 434 0l0-250 125 0 0 67 33 0 0-67 33 0 0-42z m-541-66c-22-1-42-21-42-42 0-29 20-50 42-50 29 0 50 21 50 50-1 21-22 42-50 42z m516 700l-175-109c13-29 1-62-25-83-27-15-63-13-83 8-28 21-36 56-25 84l-175 133c-22-20-50-23-75-8l-192-234c17-32 13-73-16-100-23-22-64-23-92 0-27 24-33 64-17 92 23 32 62 43 92 25l200 233c-21 32-18 71 8 92 22 28 61 32 92 8 26-15 36-53 25-83l175-125c28 17 67 14 92-8l166 108c-4 18-1 42 9 58 17 21 39 31 58 34 36-3 64-24 75-59 6-27-7-60-33-75-29-18-64-14-84 9z" horiz-adv-x="1000" />

<glyph glyph-name="modify" unicode="&#xe894;" d="M458 323c-10-25-20-47-27-64-8-17-18-37-30-60-13-23-25-42-36-57-11-15-25-31-41-47-16-17-33-30-50-39-18-10-37-18-60-24-22-7-46-10-71-10l-125 0c-5 0-10 2-13 5-3 4-5 8-5 13l0 110c0 5 2 10 5 13 3 4 8 5 13 5l125 0c18 0 34 3 48 9 15 6 28 14 39 26 11 11 20 23 28 35 8 12 16 27 25 44 12 24 27 56 44 98 11 25 20 46 27 63 8 17 18 37 31 60 12 23 24 42 35 57 12 16 25 31 41 48 17 16 33 29 51 39 17 10 37 18 59 24 22 6 46 9 71 9l143 0 0 110c0 5 2 10 5 13 4 4 8 5 13 5 4 0 9-2 13-5l178-183c4-3 5-7 5-13 0-5-1-9-5-13l-178-183c-3-3-8-5-13-5-5 0-9 2-13 6-3 3-5 7-5 12l0 110-143 0c-17 0-34-3-48-8-15-6-27-15-39-26-11-12-20-23-28-35-8-12-16-27-25-45-12-23-26-56-44-97z m-440 211c-5 0-10 2-13 5-3 4-5 8-5 13l0 110c0 5 2 10 5 13 3 4 8 5 13 5l125 0c93 0 169-42 228-128-22-35-47-87-76-156-8 17-15 31-21 41-5 11-13 23-22 37-10 13-19 24-29 32-9 8-21 14-35 20-14 5-29 8-45 8l-125 0z m798-243l178-183c4-3 5-7 5-13 0-5-1-9-5-13l-178-183c-3-3-8-5-13-5-5 0-9 2-12 5-4 4-6 8-6 13l0 110c-12 0-27 0-47 0-20 0-35-1-45-1-11 0-24 0-41 1-17 0-30 1-40 3-9 1-21 3-35 6-14 2-26 6-35 10-10 5-21 10-33 17-12 6-23 14-33 22-9 9-20 19-30 31-11 12-22 25-32 40 22 35 48 87 76 156 8-17 15-31 21-42 5-10 13-22 22-36 10-14 19-25 29-32 9-8 21-15 35-20 14-6 29-9 45-9l143 0 0 110c0 5 2 10 5 13 4 4 8 5 13 5 4 0 9-2 13-5z" horiz-adv-x="1000" />

<glyph glyph-name="terminal" unicode="&#xe89a;" d="M1002 533l-2-3v-680h-60v645l-439 215-438-215v-645h-61v680l-2 3 501 245 501-245z m-667-673h-222v228h222v-228z m-61 176h-100v-114h100v114z m-30 331h222v-228h-222v228z m61-166h100v114h-100v-114z m312-341h-222v228h222v-228z m-60 176h-101v-114h101v114z m-21 331h222v-228h-222v228z m61-166h101v114h-101v-114z m302-341h-222v228h222v-228z m-60 176h-101v-114h101v114z" horiz-adv-x="1000" />

<glyph glyph-name="link" unicode="&#xe89b;" d="M762-72c-89 0-160 72-160 160 0 34 10 65 28 91l-315 293c-23-12-49-20-77-20-88 0-160 72-160 160 0 88 72 160 160 160s160-72 160-160c0-29-8-55-21-78l321-299c20 8 41 13 64 13 88 0 160-71 160-160s-72-160-160-160z" horiz-adv-x="1000" />

<glyph glyph-name="load" unicode="&#xe89c;" d="M895-150c-58 0-105 48-105 106 0 42 24 77 58 95l-47 384c-4-1-8-2-11-2-55 0-100 43-105 97l-283 81c-19-27-51-45-86-45-14 0-28 3-40 8l-98-250c20-19 33-46 33-76 0-59-48-106-106-106s-105 47-105 106c0 58 47 106 105 106 9 0 18-2 26-4l101 258c-13 18-22 40-22 64 0 59 48 106 106 106 58 0 105-47 105-106 0-4-1-7-1-11l273-79c16 38 53 64 96 64 58 0 105-48 105-106 0-36-17-66-43-86l48-392c56-3 101-49 101-106 0-58-47-106-105-106z" horiz-adv-x="1000" />

<glyph glyph-name="service" unicode="&#xe89d;" d="M802 90v71c5 3 13 7 21 14 95 75 137 195 108 311-28 114-123 202-236 220-149 23-287-78-323-236-1-5-2-11-3-18-21 0-40 0-58 0 10 167 146 305 322 318 168 12 316-104 356-271 44-179-53-350-187-409z m-259 301c0-46 0-90 0-136 30 0 57-1 85 0 12 1 20-3 28-13 27-38 56-75 84-112 3-5 7-11 7-17 1-53 1-107 1-163-24 0-46 0-66 0-14-67-50-102-104-101-54 0-90 34-104 100-66 0-133 0-201 0-3-33-15-64-45-81-19-11-43-18-65-18-52 0-87 39-96 100-21 0-43 0-67 0 0 9 0 16 0 22 0 114 0 228 0 341 0 51 26 77 77 77 148 0 297 0 445 0 6 1 13 1 21 1z m152-271c-22 28-42 53-62 78-2 3-8 6-12 6-25 0-50 0-76 0 0-29 0-56 0-84 49 0 97 0 150 0z m-118-221c28 0 52 23 51 51 0 28-23 51-51 51-28-1-50-23-50-50-1-28 22-51 50-52z m-408 102c-27-1-50-23-50-50 0-28 23-52 51-52 28 0 51 24 51 52 0 28-24 50-52 50z m439 574h58v-158l155-91-31-49-182 106v192z" horiz-adv-x="1000" />

<glyph glyph-name="purchase" unicode="&#xe89e;" d="M957 342c0 7-5 15-10 21-34 46-68 91-102 138-9 13-19 17-35 17-33-1-67-1-103-1v167h-26c-181 0-363 0-544 0-62 0-94-32-94-95 0-140 0-280 0-421v-27h82c11-75 54-124 117-124 27 0 56 9 80 23 37 21 51 59 55 100h245c17-82 61-124 127-124 66 0 111 43 127 125h81c0 69 0 135 0 201z m-706-264c-35 0-63 29-63 64 1 33 28 61 61 61 35 1 64-27 64-62 0-34-28-63-62-63z m498 0c-34 0-62 29-62 64 1 33 28 61 61 61 35 1 63-27 64-62 0-34-29-63-63-63z m-40 273v103c32 0 63 1 93 0 6 0 12-4 15-8 25-30 49-61 76-95l-184 0 0 0z" horiz-adv-x="1000" />

<glyph glyph-name="rail" unicode="&#xe89f;" d="M922 660c-1 63-32 112-93 140-27 13-57 23-86 29-121 25-243 24-365 15-57-4-114-12-168-28-92-27-132-83-133-175 0-171 0-342 0-513 1-91 59-158 154-177 8-2 16-3 24-5-19-37-71-49-72-96 213 0 423 0 635 0-4 47-53 60-73 96 110 20 176 80 177 170 2 181 1 362 0 544z m-422-612c-59 0-107 46-106 102 1 55 50 100 109 98 57-1 103-47 102-101 0-54-48-99-105-99z m314 353c-208 0-418 0-630 0 0 83 0 163 0 246 210 0 419 0 630 0 0-81 0-162 0-246z" horiz-adv-x="1000" />

<glyph glyph-name="rail-load" unicode="&#xe8a0;" d="M916 462c-1 48-24 85-69 106a278 278 0 0 1-65 22c-89 19-181 18-271 11-42-3-85-9-125-21-69-20-99-63-99-133q0-101 0-202l-136 40a76 76 0 0 1-34 89l41 211a77 77 0 0 1 63 82 59 59 0 0 1-1 9l275 58a77 77 0 0 1 143 46 78 78 0 0 1-84 70 77 77 0 0 1-71-80l-281-59a77 77 0 1 1-83-123l-40-204c-3 0-5 1-8 1a77 77 0 1 1 58-133l158-47q0-72 0-145c0-69 44-120 114-134 6-1 12-2 18-3-14-28-53-37-54-73h474c-3 36-40 45-55 73 82 15 131 61 132 128q1 205 0 411z m-315-462c-43 0-79 34-78 76s37 76 81 75c42-1 77-36 76-77s-36-74-79-74z m234 266h-469v186h469v-186z" horiz-adv-x="916" />

<glyph glyph-name="base" unicode="&#xe8a1;" d="M907 850h-814c-15 0-26-12-26-26v-241c0-15 11-26 26-26h814c15 0 27 11 27 26v241c0 14-12 26-27 26z m-407-209h-347v139h347v-139z m407-146h-814c-15 0-26-12-26-26v-241c0-15 11-26 26-26h814c15 0 27 11 27 26v241c0 14-12 26-27 26z m-407-206h-347v139h347v-139z m407-145h-814c-15 0-26-12-26-27v-241c0-14 11-26 26-26h814c15 0 27 12 27 26v241c0 15-12 27-27 27z m-407-217h-347v139h347v-139z" horiz-adv-x="1000" />

<glyph glyph-name="terminal-update-1" unicode="&#xe8a2;" d="M972 177h-31v314l-220 105-221-105v-314h-31v331l-1 2 250 118 1 2 2-1 1 1 2-2 249-118-1-2v-331z m-51 5h-112v111h112v-111z m-30 86h-51v-56h51v56z m-41 50h-112v111h112v-111z m-30 85h-51v-55h51v55z m-41-221h-112v111h112v-111z m-31 86h-50v-56h50v56z m-111-86h-112v111h112v-111z m-31 86h-50v-56h50v56z m97 50h-112v111h112v-111z m-31 85h-50v-55h50v55z m264-421l-78 66 24 22 118-110-118-110-24 22 78 66h-872l78-66-24-22-118 110 118 110 24-22-78-66h872z m-886 272h74v-74h-74v74z m20-54h34v37h-34v-37z m23 144h74v-74h-74v74z m21-54h33v37h-33v-37z m30-36h74v-74h-74v74z m20-54h34v37h-34v-37z m148-20h-74v74h74v-74z m-20 57h-34v-37h34v37z m-101 107h74v-74h-74v74z m20-54h34v37h-34v-37z m134-113h-20v208l-146 70-146-70v-208h-20v219l-1 1 165 78 1 2 1-1 1 1 1-2 165-78 0-1v-219z" horiz-adv-x="1000" />

<glyph glyph-name="tweak-mode" unicode="&#xe8a3;" d="M966 49c-124 125-247 250-371 375-18 18-24 32-17 58 41 151-44 307-191 354-72 23-143 18-218-17 67-68 131-133 191-193-45-45-89-90-136-137-61 61-124 125-189 191-4-9-9-18-12-27-35-111-17-212 61-298 78-86 177-113 289-83 22 5 35 2 50-14 126-128 251-255 377-382 34-35 52-35 87 1 26 26 52 53 79 80 37 38 37 54 0 92z" horiz-adv-x="1000" />

<glyph glyph-name="schedules" unicode="&#xe8a4;" d="M901-150h-802-67v882l134-2v-35c-2-57 43-104 100-106 0 0 0 0 0 0 57 2 102 49 100 106v35h268v-35c-3-56 40-103 95-106 55-2 102 40 105 96 0 3 0 7 0 10v35h133l1-880-67 0z m4 625h-810v-562h810l0 562 0 0z m-311-187h-437v125h437v-125z m-125-188h-312v125h312v-125l0 0z m-125-125h-187v62h187v-62z m499 0h-436v62h436l0-62 0 0z m-312 250h312v-125h-312v125z m125 188h187v-125h-187l0 125 0 0z m77 226c-37 1-67 32-66 69v73c-2 36 26 67 63 69 36 2 67-26 69-63 0-2 0-4 0-6v-73c1-37-29-68-66-69 0 0 0 0 0 0z m-468 0c-37 1-67 32-66 69 0 0 0 0 0 0v73c-2 36 26 67 63 69s67-26 69-63c0-2 0-4 0-6v-73c1-37-29-68-66-69 0 0 0 0 0 0l0 0z" horiz-adv-x="1000" />

<glyph glyph-name="trailer" unicode="&#xe8a5;" d="M1000 153h-49v-97h-49v97h-183v-171c0 0-417 0-361 0-4-44-19-86-58-108-26-14-58-24-87-24-67 0-114 52-125 133-28 0-57 0-88 0 0 11 0 20 0 29 0 151 0 302 0 452 0 68 34 103 100 103 191 0 427 0 619 0v-353h183v86h49v-86h49v-61z m-778-103c-36 0-65-30-66-66 0-37 30-68 67-68 37 0 67 31 67 68 0 37-31 67-68 66z" horiz-adv-x="1000" />

<glyph glyph-name="shipment" unicode="&#xe8a6;" d="M524 366c-69 0-138 0-207 0-69 0-137 0-206 0-38 0-47-8-47-46 0-121 0-242 0-363 0-37 9-45 45-46 139 0 277 0 416 0 35 0 45 10 45 44 0 123 0 245-1 368 0 35-9 43-45 43z m-310-297v-116h-67v116h-35l69 98 69-98h-36z m155 0v-116h-67v116h-35l69 98 69-98h-36z m-274 369c107 0 214 0 320 0 27 0 35 7 35 33 0 95 0 190 0 284 0 27-7 34-35 34-53 0-107 0-160 0-53 0-105 0-158 0-30 0-37-6-37-36 0-93 0-186 0-280 0-28 7-35 35-35z m175 197l53-75h-28v-90h-51v90h-28l54 75z m-120 0l54-75h-28v-90h-52v90h-27l53 75z m763-443c-42 0-84 0-126 0-42 0-83 0-125 0-23 0-28-5-28-28-1-74-1-147 0-220 0-23 5-28 27-28 84-1 168-1 252 0 21 0 27 5 27 26 0 74 0 149 0 223 0 21-6 27-27 27z m-188-181v-70h-41v70h-22l42 60 42-60h-21z m94 0v-70h-41v70h-22l42 60 42-60h-21z" horiz-adv-x="1000" />

<glyph glyph-name="terminal-update" unicode="&#xe8ae;" d="M836-63l65 56h-805l66-56-36-33-127 119 127 119 35-34-65-56h805l-65 56 35 34 128-119-128-119-35 33z m115 264v327l-217 103-218-103v-327h-48v347l266 137 266-137v-347h-49z m-631 0v217l-141 68-141-68v-217h-38v232l179 94 179-94v-232h-38z m433 134v-131h131v131h-131z m89-87h-47v44h47v-44z m-266 87v-131h132v131h-132z m89-87h-47v44h47v-44z m-1 250v-132h132v132h-132z m90-87h-48v44h48v-44z m-559-117v-92h93v92h-93z m61-60h-31v28h31v-28z m-186 60v-92h94v92h-94z m62-60h-32v28h31v-28z m3 177v-92h93v92h-93z m61-61h-31v29h31v-29z" horiz-adv-x="1000" />

<glyph glyph-name="filter-setting" unicode="&#xe8b4;" d="M827 693c-6 12-17 19-30 19h-764c-13 0-25-7-30-19-5-12-4-25 5-35l299-358v-361c0-19 12-27 31-27l151 112c0 0 33 21 33 39v237l300 358c9 10 10 23 5 35l0 0z m211-501l-33 5c-3 11-8 22-13 32l19 26c9 12 7 27-3 37l-28 29c-6 5-13 8-21 8-6 0-11-1-16-5l-27-19c-10 5-21 10-33 13l-5 32c-2 14-14 24-28 24h-41c-14 0-26-10-28-24l-6-33c-10-3-21-7-31-13l-27 19c-4 4-10 6-16 6-8 0-15-3-20-9l-29-28c-10-10-11-26-3-37l19-27c-5-11-9-21-13-32l-32-5c-13-3-23-15-23-29v-40c0-14 10-26 23-28l33-6c4-11 8-21 13-31l-19-27c-8-11-6-27 3-36l29-29c6-6 13-9 20-9 6 0 12 2 17 6l27 19c10-5 20-9 31-12l5-33c2-14 14-24 28-24h41c14 0 26 10 28 24l6 33c11 3 21 7 31 13l27-20c5-3 11-5 17-5 7 0 14 3 20 8l29 29c9 10 11 26 3 37l-20 27c6 10 10 20 13 31l33 6c14 2 24 14 24 28v40c-1 15-11 26-24 29z m-208-148c-55 0-99 44-99 99 0 55 44 100 99 100s100-45 100-100c0-55-45-99-100-99z" horiz-adv-x="1140" />

<glyph glyph-name="advansed-filter" unicode="&#xe8b5;" d="M827 693c-6 12-17 19-30 19h-764c-13 0-25-7-30-19s-4-25 5-35l299-358v-361c0-19 12-27 31-27l151 112c0 0 33 21 33 39v237l300 358c9 10 10 23 5 35l0 0z m229-765c-15 0-26 4-35 14-6 7-13 20-21 40l-166 392h-21l-164-403c-6-15-13-26-22-33-8-7-18-10-28-10v-17h136v17c-20 0-34 2-41 5s-11 11-11 20c0 6 1 12 2 18 1 4 3 8 4 12l23 60h147l24-60c5-9 7-19 7-28 0-14-6-21-18-23-12-2-24-3-34-4v-17h218l0 17 0 0z m-333 142l59 154 2 0 64-154h-125l0 0z" horiz-adv-x="1140" />

<glyph glyph-name="exclude" unicode="&#xe8b6;" d="M383 815c5 5 6 12 4 19-2 6-8 11-15 12l-349-1c-5 0-11-2-15-6-4-3-5-9-5-14l3-349c1-7 5-13 12-15 7-2 14-1 19 4l346 350z m-264-522h-115c-1 0-3 0-4 0v-10-411c0-12 10-22 22-22h956c12 0 22 10 22 22v956c0 12-10 22-22 22h-423c0-1 0-3 0-4v-116c0 0 0-1 0-1h324v-757h-758v321c-1 0-1 0-2 0l0 0z m517 18c32 1 64 5 95 12v130c-12-4-24-7-37-10-203-41-401 89-443 292l-127-5c41-248 260-428 512-419z" horiz-adv-x="1000" />

<glyph glyph-name="swap" unicode="&#xe8b7;" d="M306 369c0 7-3 14-9 20-6 5-12 9-20 9s-15-3-20-9l-244-244c-6-5-9-12-9-20s3-15 9-20l244-245c5-5 12-8 20-8s14 3 20 8c6 6 9 13 9 21v152h288c8 0 14 3 20 9 6 5 9 12 9 20v125c0 7-3 14-9 20-6 5-12 8-20 8h-288v154z m386 297h-288c-8 0-15-3-21-9-5-6-8-12-8-20v-124c0-8 3-15 8-21 6-5 13-8 21-8h288v-153c0-8 3-15 8-20 6-6 13-17 21-17s14 11 20 17l244 244c5 5 9 12 9 20 0 8-3 15-9 20l-244 244c-6 6-13 9-20 9s-15-3-21-9c-5-5-8-12-8-20l0-153 0 0z" horiz-adv-x="1000" />

<glyph glyph-name="include" unicode="&#xe8b8;" d="M119 293h-115c-1 0-3 0-4 0v-10-411c0-12 10-22 22-22h956c12 0 22 10 22 22v956c0 12-10 22-22 22h-423c0-1 0-3 0-4v-116c0 0 0-1 0-1h324v-757h-758v321c-1 0-1 0-2 0l0 0z m194-104c-5-5-7-12-5-19 3-6 9-11 15-12l349 0c6-1 11 1 15 5 4 4 6 9 5 15l-1 348c0 7-5 13-12 15s-13 1-18-4l-348-348z m-218 482c-32-2-64-6-95-13v-130c12 4 25 7 37 10 203 42 402-89 444-291l126 4c-41 249-260 428-512 420z m-36 60c-20-1-39-3-59-6v-127c0 0 1 0 1 0 203 42 402-89 443-291l127 4c-41 249-260 429-512 420z" horiz-adv-x="1000" />

<glyph glyph-name="parent" unicode="&#xe8c5;" d="M892-148h-219c-66 0-107 42-107 104v323c0 59 45 104 107 104h149v-201h177v-226c0-61-42-104-107-104z m37 261v1h-107-70v68 133h-79c-23 0-37-14-37-36v-323c0-7 1-20 9-27 7-7 19-9 28-9h220c25 0 36 12 36 36v157z m-53 270l123-149h-123v149z m-265 81h-192-68v69 245h-245c-23 0-36-14-36-36v-627c0-7 1-20 8-27 7-7 19-9 28-9h389v-68h-390c-63 0-104 42-104 104v627c0 59 45 104 105 104h313v-313h261v-96h-68v27z m-140 382l209-261h-209v261z" horiz-adv-x="1000" />

<glyph glyph-name="itself" unicode="&#xe8c6;" d="M688-152h-562c-76 0-125 50-125 125v750c0 72 53 125 125 125h375v-375h312v-500c0-73-49-125-125-125z m43 543h-230-82v82 293h-293c-27 0-43-16-43-43v-750c0-8 1-24 10-33 8-8 23-10 33-10h562c29 0 43 14 43 43v418z m-184-294c-3-3-7-5-11-5h-109v-70c0-4-2-8-5-11-3-3-7-5-11-5s-8 2-11 5l-133 133c-3 3-5 7-5 11s2 8 5 11l133 133c3 3 7 4 11 4s8-1 11-4c3-3 5-7 5-11v-71h109c4 0 8-1 11-4 3-4 5-7 5-11v-94c0-5-2-8-5-11z m16 751l250-312h-250v312z" horiz-adv-x="814" />

<glyph glyph-name="open-folder-1" unicode="&#xe8c9;" d="M993 392c-7 15-19 26-33 34-15 8-32 12-50 12l-85 0v113c0 30-26 53-58 53h-353c-51 5-58 55-58 55-17 39-54 54-87 54h-150c-66 0-112-57-112-109v-508c0-1 0-2 0-3l0 0c0-29 12-54 33-74 22-21 49-32 79-32 0 0 0 0 1 0h0 323 243 5c23 0 47 5 72 17 25 11 45 25 59 43l155 255c15 19 23 38 23 58 0 11-2 22-7 32z m-932 158c0 0 0 28 0 56 0 27 23 53 53 53 60 0 149 0 149 0s27 4 42-32c15-36 49-72 103-77l6 0h356c0 0 0-23 0-112l-432 0c-23 0-47-6-71-17-25-12-45-26-60-43l-134-232-12-9c0 161 0 413 0 413z m871-213l-155-255c-9-11-22-21-39-28-16-8-32-12-47-12h-572c-26 0-32 12-32 23 0 6 3 14 10 23l155 256c10 11 23 20 39 27 17 8 33 12 47 12h572c27 0 32-13 32-23 0-7-3-15-10-23z" horiz-adv-x="1000" />

<glyph glyph-name="plus-squared" unicode="&#xf0fe;" d="M714 314v72q0 14-10 25t-25 10h-179v179q0 15-11 25t-25 11h-71q-15 0-25-11t-11-25v-179h-178q-15 0-25-10t-11-25v-72q0-14 11-25t25-10h178v-179q0-14 11-25t25-11h71q15 0 25 11t11 25v179h179q14 0 25 10t10 25z m143 304v-536q0-66-47-113t-114-48h-535q-67 0-114 48t-47 113v536q0 66 47 113t114 48h535q67 0 114-48t47-113z" horiz-adv-x="857.1" />

<glyph glyph-name="angle-right" unicode="&#xf105;" d="M332 314q0-7-5-12l-261-261q-5-5-12-5t-13 5l-28 28q-6 6-6 13t6 13l219 219-219 220q-6 5-6 12t6 13l28 28q5 6 13 6t12-6l261-260q5-5 5-13z" horiz-adv-x="357.1" />

<glyph glyph-name="angle-up" unicode="&#xf106;" d="M600 189q0-7-6-12l-28-28q-5-6-12-6t-13 6l-220 219-219-219q-5-6-13-6t-12 6l-28 28q-6 5-6 12t6 13l260 260q5 6 12 6t13-6l260-260q6-5 6-13z" horiz-adv-x="642.9" />

<glyph glyph-name="angle-down" unicode="&#xf107;" d="M600 439q0-7-6-12l-260-261q-5-5-13-5t-12 5l-260 261q-6 5-6 12t6 13l28 28q5 6 12 6t13-6l219-219 220 219q5 6 13 6t12-6l28-28q6-5 6-13z" horiz-adv-x="642.9" />

<glyph glyph-name="minus-squared" unicode="&#xf146;" d="M714 314v72q0 14-10 25t-25 10h-500q-15 0-25-10t-11-25v-72q0-14 11-25t25-10h500q14 0 25 10t10 25z m143 304v-536q0-66-47-113t-114-48h-535q-67 0-114 48t-47 113v536q0 66 47 113t114 48h535q67 0 114-48t47-113z" horiz-adv-x="857.1" />

<glyph glyph-name="dot-circled" unicode="&#xf192;" d="M571 350q0-59-41-101t-101-42-101 42-42 101 42 101 101 42 101-42 41-101z m-142 304q-83 0-153-41t-110-111-41-152 41-152 110-111 153-41 152 41 110 111 41 152-41 152-110 111-152 41z m428-304q0-117-57-215t-156-156-215-58-216 58-155 156-58 215 58 215 155 156 216 58 215-58 156-156 57-215z" horiz-adv-x="857.1" />
</font>
</defs>
</svg>
